<?xml version="1.0" encoding="UTF-8"?><svg xmlns="http://www.w3.org/2000/svg" xmlns:xlink="http://www.w3.org/1999/xlink" viewBox="0 0 2475 1650"><defs><style>.cls-1{fill:url(#linear-gradient-61);}.cls-2{fill:url(#linear-gradient-15);}.cls-3{fill:url(#linear-gradient-13);}.cls-4{fill:url(#linear-gradient-28);}.cls-5{fill:url(#linear-gradient-65);}.cls-6{fill:url(#linear-gradient-69);}.cls-7{fill:url(#linear-gradient-53);}.cls-8{fill:url(#linear-gradient-42);}.cls-9{fill:url(#linear-gradient-46);}.cls-10{fill:url(#linear-gradient-70);}.cls-11{fill:url(#linear-gradient-60);}.cls-12{fill:url(#linear-gradient-93);}.cls-13{fill:url(#linear-gradient-95);}.cls-14{fill:url(#linear-gradient-2);}.cls-15{fill:url(#linear-gradient-87);}.cls-16{fill:url(#linear-gradient-64);}.cls-17{fill:url(#linear-gradient-56);}.cls-18{fill:url(#linear-gradient-43);}.cls-19{fill:url(#linear-gradient-25);}.cls-20{fill:url(#linear-gradient-82);}.cls-21{fill:url(#linear-gradient-10);}.cls-22{fill:url(#linear-gradient-12);}.cls-23{fill:url(#linear-gradient-40);}.cls-24{fill:url(#linear-gradient-27);}.cls-25{fill:url(#linear-gradient-68);}.cls-26{fill:url(#linear-gradient-37);}.cls-27{fill:url(#linear-gradient-75);}.cls-28{fill:#dce5fe;}.cls-29{fill:url(#linear-gradient-55);}.cls-30{fill:#fff;}.cls-31{fill:url(#linear-gradient-39);}.cls-32{fill:url(#linear-gradient-89);}.cls-33{fill:url(#linear-gradient-52);}.cls-34{fill:url(#linear-gradient-58);}.cls-35{fill:url(#linear-gradient-47);}.cls-36{fill:url(#linear-gradient-26);}.cls-37{fill:url(#linear-gradient-74);}.cls-38{fill:url(#linear-gradient-97);}.cls-39{fill:url(#linear-gradient-72);}.cls-40{fill:url(#linear-gradient-4);}.cls-41{fill:url(#linear-gradient-35);}.cls-42{fill:url(#linear-gradient-30);}.cls-43{fill:url(#linear-gradient-76);}.cls-44{fill:url(#linear-gradient-73);}.cls-45{fill:url(#linear-gradient-100);opacity:.34;}.cls-46{fill:url(#linear-gradient-71);}.cls-47{fill:url(#linear-gradient-44);}.cls-48{fill:url(#linear-gradient-96);}.cls-49{fill:url(#linear-gradient-49);}.cls-50{fill:url(#linear-gradient-3);}.cls-51{fill:url(#linear-gradient-34);}.cls-52{fill:url(#linear-gradient-5);}.cls-53{fill:url(#linear-gradient-38);}.cls-54{fill:url(#linear-gradient-91);}.cls-55{fill:url(#linear-gradient-22);}.cls-56{fill:url(#linear-gradient-24);}.cls-57{fill:url(#linear-gradient-94);}.cls-58{fill:url(#linear-gradient-54);}.cls-59{fill:url(#linear-gradient-92);}.cls-60{fill:url(#linear-gradient-90);}.cls-61{fill:url(#linear-gradient-33);}.cls-62{fill:url(#linear-gradient-79);}.cls-63{fill:url(#linear-gradient-78);}.cls-64{fill:url(#linear-gradient-51);}.cls-65{fill:url(#linear-gradient-8);}.cls-66{fill:url(#linear-gradient-66);}.cls-67{fill:url(#linear-gradient-57);}.cls-68{fill:url(#linear-gradient-77);}.cls-69{fill:url(#linear-gradient-88);}.cls-70{fill:url(#linear-gradient-14);}.cls-71{fill:url(#linear-gradient-62);}.cls-72{fill:url(#linear-gradient-29);}.cls-73{fill:url(#linear-gradient-20);}.cls-74{fill:url(#linear-gradient-67);}.cls-75{fill:url(#linear-gradient-17);}.cls-76{fill:url(#linear-gradient-50);}.cls-77{fill:url(#linear-gradient-7);}.cls-78{fill:url(#linear-gradient-9);}.cls-79{fill:url(#linear-gradient-59);}.cls-80{fill:url(#linear-gradient-11);}.cls-81{fill:url(#linear-gradient-19);}.cls-82{fill:url(#linear-gradient-80);}.cls-83{fill:url(#linear-gradient-6);}.cls-84{fill:url(#linear-gradient-83);}.cls-85{fill:#7d97f4;}.cls-86{fill:#91b3fa;}.cls-87{fill:url(#linear-gradient-36);}.cls-88{fill:url(#linear-gradient-21);}.cls-89{fill:url(#linear-gradient-45);}.cls-90{fill:url(#linear-gradient-85);}.cls-91{fill:url(#linear-gradient-98);}.cls-92{fill:url(#linear-gradient-81);}.cls-93{fill:url(#linear-gradient-84);}.cls-94{fill:url(#linear-gradient-48);}.cls-95{fill:url(#linear-gradient-32);}.cls-96{fill:url(#linear-gradient-86);}.cls-97{fill:url(#linear-gradient-41);}.cls-98{opacity:.32;}.cls-99{fill:url(#linear-gradient-16);}.cls-100{fill:#bdd0fb;}.cls-101{fill:url(#linear-gradient);}.cls-102{fill:url(#linear-gradient-23);}.cls-103{fill:url(#linear-gradient-31);}.cls-104{fill:url(#linear-gradient-63);}.cls-105{fill:url(#linear-gradient-99);}.cls-106{fill:url(#linear-gradient-18);}</style><linearGradient id="linear-gradient" x1="215.84" y1="807.69" x2="2273.53" y2="807.69" gradientUnits="userSpaceOnUse"><stop offset="0" stop-color="#dae3fe"/><stop offset="1" stop-color="#e9effd"/></linearGradient><linearGradient id="linear-gradient-2" x1="1202.93" y1="167.9" x2="1172.93" y2="1403.65" gradientUnits="userSpaceOnUse"><stop offset="0" stop-color="#09005d"/><stop offset="1" stop-color="#1a0f91"/></linearGradient><linearGradient id="linear-gradient-3" x1="1198.8" y1="599.23" x2="1174.8" y2="1679.02" gradientUnits="userSpaceOnUse"><stop offset="0" stop-color="#4042e2"/><stop offset="1" stop-color="#4f52ff"/></linearGradient><linearGradient id="linear-gradient-4" x1="1184.61" y1="768.89" x2="1202.6" y2="1374.77" xlink:href="#linear-gradient-2"/><linearGradient id="linear-gradient-5" x1="1195.86" y1="1077.79" x2="1155.86" y2="1677.79" gradientUnits="userSpaceOnUse"><stop offset="0" stop-color="#fe7062"/><stop offset="1" stop-color="#ff928e"/></linearGradient><linearGradient id="linear-gradient-6" x1="1210.5" y1="1078.77" x2="1170.5" y2="1678.77" xlink:href="#linear-gradient-5"/><linearGradient id="linear-gradient-7" x1="1566.81" y1="1076.1" x2="1558.81" y2="1448.1" xlink:href="#linear-gradient-5"/><linearGradient id="linear-gradient-8" x1="1563.01" y1="1076.02" x2="1555.01" y2="1448.02" xlink:href="#linear-gradient-5"/><linearGradient id="linear-gradient-9" x1="-1163.64" y1="201.31" x2="-1096.53" y2="201.31" gradientTransform="translate(800.7 51.07) rotate(-179.46) scale(1 -1)" xlink:href="#linear-gradient-3"/><linearGradient id="linear-gradient-10" x1="-1164.37" y1="213.36" x2="-1096.59" y2="213.36" gradientTransform="translate(800.7 51.07) rotate(-179.46) scale(1 -1)" xlink:href="#linear-gradient-2"/><linearGradient id="linear-gradient-11" x1="-1114.24" y1="214.75" x2="-1096.54" y2="335.84" gradientTransform="translate(800.7 51.07) rotate(-179.46) scale(1 -1)" gradientUnits="userSpaceOnUse"><stop offset="0" stop-color="#ff928e"/><stop offset="1" stop-color="#feb3b1"/></linearGradient><linearGradient id="linear-gradient-12" x1="-1273.47" y1="257.26" x2="-1193.53" y2="257.26" gradientTransform="translate(800.7 51.07) rotate(-179.46) scale(1 -1)" xlink:href="#linear-gradient-2"/><linearGradient id="linear-gradient-13" x1="-1276.87" y1="254.28" x2="-1199.05" y2="254.28" gradientTransform="translate(800.7 51.07) rotate(-179.46) scale(1 -1)" xlink:href="#linear-gradient-3"/><linearGradient id="linear-gradient-14" x1="-1203.41" y1="227.78" x2="-1185.71" y2="348.88" xlink:href="#linear-gradient-11"/><linearGradient id="linear-gradient-15" x1="1899.87" y1="404.02" x2="1942.87" y2="213.02" xlink:href="#linear-gradient-3"/><linearGradient id="linear-gradient-16" x1="-1127.34" y1="233.7" x2="-1026.74" y2="430.23" gradientTransform="translate(800.7 51.07) rotate(-179.46) scale(1 -1)" xlink:href="#linear-gradient-3"/><linearGradient id="linear-gradient-17" x1="-810.63" y1="185.62" x2="-974.26" y2="820.66" gradientTransform="translate(800.7 51.07) rotate(-179.46) scale(1 -1)" xlink:href="#linear-gradient-5"/><linearGradient id="linear-gradient-18" x1="1603.25" y1="318.08" x2="1661.25" y2="397.08" gradientTransform="matrix(1,0,0,1,0,0)" xlink:href="#linear-gradient-11"/><linearGradient id="linear-gradient-19" x1="-687.51" y1="363.22" x2="-813.61" y2="468.02" xlink:href="#linear-gradient-11"/><linearGradient id="linear-gradient-20" x1="-723.89" y1="-277.12" x2="-741.89" y2="-182.12" gradientTransform="translate(803.2 369.06) rotate(-179.45) scale(1.02 -1.15)" xlink:href="#linear-gradient-11"/><linearGradient id="linear-gradient-21" x1="-773.36" y1="-142.88" x2="-757.76" y2="-53.91" gradientTransform="translate(803.2 369.06) rotate(-179.45) scale(1.02 -1.15)" xlink:href="#linear-gradient-2"/><linearGradient id="linear-gradient-22" x1="-743.92" y1="-280.91" x2="-761.92" y2="-185.91" gradientTransform="translate(803.2 369.06) rotate(-179.45) scale(1.02 -1.15)" xlink:href="#linear-gradient-11"/><linearGradient id="linear-gradient-23" x1="1702.36" y1="284.54" x2="1658.36" y2="377.54" xlink:href="#linear-gradient-5"/><linearGradient id="linear-gradient-24" x1="-2204.65" y1="942.17" x2="-2007.65" y2="852.17" gradientTransform="translate(800.7 51.07) rotate(-179.46) scale(1 -1)" gradientUnits="userSpaceOnUse"><stop offset="0" stop-color="#e1473d"/><stop offset="1" stop-color="#e9605a"/></linearGradient><linearGradient id="linear-gradient-25" x1="-2194.24" y1="964.96" x2="-1997.24" y2="874.96" xlink:href="#linear-gradient-24"/><linearGradient id="linear-gradient-26" x1="-714.49" y1="330.75" x2="-840.59" y2="435.54" xlink:href="#linear-gradient-11"/><linearGradient id="linear-gradient-27" x1="1536.77" y1="347.3" x2="1504.77" y2="430.3" xlink:href="#linear-gradient-2"/><linearGradient id="linear-gradient-28" x1="-6333.89" y1="165.26" x2="-6356.23" y2="198.89" gradientTransform="translate(7856.58 453.36) rotate(2.13)" xlink:href="#linear-gradient-3"/><linearGradient id="linear-gradient-29" x1="-692.33" y1="349.59" x2="-672.89" y2="349.59" xlink:href="#linear-gradient-11"/><linearGradient id="linear-gradient-30" x1="604.57" y1="1337.54" x2="672.57" y2="1213.54" gradientTransform="matrix(1,0,0,1,0,0)" xlink:href="#linear-gradient-11"/><linearGradient id="linear-gradient-31" x1="-525.38" y1="1451.2" x2="-537.86" y2="1642.57" gradientTransform="translate(37.83) rotate(-180) scale(1 -1)" xlink:href="#linear-gradient-3"/><linearGradient id="linear-gradient-32" x1="614.29" y1="1486.64" x2="636.29" y2="1363.64" gradientTransform="matrix(1,0,0,1,0,0)" xlink:href="#linear-gradient-11"/><linearGradient id="linear-gradient-33" x1="-504.1" y1="1453.89" x2="-471.93" y2="1335.27" gradientTransform="translate(37.83) rotate(-180) scale(1 -1)" xlink:href="#linear-gradient-5"/><linearGradient id="linear-gradient-34" x1="-645.82" y1="1443.34" x2="-658.3" y2="1634.72" gradientTransform="translate(37.83) rotate(-180) scale(1 -1)" xlink:href="#linear-gradient-3"/><linearGradient id="linear-gradient-35" x1="-478.1" y1="1142.19" x2="-382.96" y2="1349.27" gradientTransform="translate(37.83) rotate(-180) scale(1 -1)" xlink:href="#linear-gradient-5"/><linearGradient id="linear-gradient-36" x1="-475.81" y1="1155.94" x2="-484.77" y2="1098.47" gradientTransform="translate(37.83) rotate(-180) scale(1 -1)" xlink:href="#linear-gradient-11"/><linearGradient id="linear-gradient-37" x1="-2201.63" y1="-1669.25" x2="-2194.63" y2="-1581.25" gradientTransform="translate(-981.29 -308.04) rotate(-143.2) scale(1 -1)" xlink:href="#linear-gradient-11"/><linearGradient id="linear-gradient-38" x1="-3842.17" y1="1698.73" x2="-3936.16" y2="1777.73" gradientTransform="translate(-981.29 -308.04) rotate(-143.2) scale(1 -1)" xlink:href="#linear-gradient-2"/><linearGradient id="linear-gradient-39" x1="-2176.41" y1="-1671.25" x2="-2169.41" y2="-1583.25" gradientTransform="translate(-981.29 -308.04) rotate(-143.2) scale(1 -1)" xlink:href="#linear-gradient-11"/><linearGradient id="linear-gradient-40" x1="512.14" y1="1167.63" x2="473.14" y2="1290.63" gradientTransform="matrix(1,0,0,1,0,0)" xlink:href="#linear-gradient-11"/><linearGradient id="linear-gradient-41" x1="-3553.06" y1="2055.78" x2="-3647.06" y2="2134.78" gradientTransform="translate(-779.04 -175.88) rotate(-151.17) scale(1 -1)" xlink:href="#linear-gradient-2"/><linearGradient id="linear-gradient-42" x1="-494.78" y1="1302.04" x2="-600.67" y2="1331.07" gradientTransform="translate(29.16 -86.8) rotate(-177.17) scale(1 -1)" xlink:href="#linear-gradient-2"/><linearGradient id="linear-gradient-43" x1="-564.51" y1="1169.72" x2="-639.65" y2="1249.13" gradientTransform="translate(37.83) rotate(-180) scale(1 -1)" xlink:href="#linear-gradient-2"/><linearGradient id="linear-gradient-44" x1="-609.93" y1="1189.49" x2="-644.02" y2="1240.83" gradientTransform="translate(37.83) rotate(-180) scale(1 -1)" xlink:href="#linear-gradient-3"/><linearGradient id="linear-gradient-45" x1="297.54" y1="1284.24" x2="857.63" y2="1284.24" xlink:href="#linear-gradient"/><linearGradient id="linear-gradient-46" x1="-112.28" y1="1202.77" x2="-253.07" y2="1426.59" gradientTransform="translate(1813.41) rotate(-180) scale(1 -1)" xlink:href="#linear-gradient-2"/><linearGradient id="linear-gradient-47" x1="1746.01" y1="1367.5" x2="1825.02" y2="1367.5" xlink:href="#linear-gradient-5"/><linearGradient id="linear-gradient-48" x1="1677.45" y1="1508.29" x2="1749.75" y2="1508.29" xlink:href="#linear-gradient-5"/><linearGradient id="linear-gradient-49" x1="1739.88" y1="1382.17" x2="1825.02" y2="1382.17" gradientTransform="matrix(1,0,0,1,0,0)" xlink:href="#linear-gradient-11"/><linearGradient id="linear-gradient-50" x1="1666.59" y1="1523.9" x2="1731.96" y2="1523.9" gradientTransform="matrix(1,0,0,1,0,0)" xlink:href="#linear-gradient-11"/><linearGradient id="linear-gradient-51" x1="1854.02" y1="1237.62" x2="1989.56" y2="1237.62" gradientTransform="matrix(1,0,0,1,0,0)" xlink:href="#linear-gradient-11"/><linearGradient id="linear-gradient-52" x1="-217.81" y1="1227.99" x2="-110.81" y2="1603.4" gradientTransform="translate(1813.41) rotate(-180) scale(1 -1)" xlink:href="#linear-gradient-5"/><linearGradient id="linear-gradient-53" x1="-230.68" y1="1154.07" x2="-222.93" y2="1084.33" gradientTransform="translate(1813.41) rotate(-180) scale(1 -1)" xlink:href="#linear-gradient-11"/><linearGradient id="linear-gradient-54" x1="2024.8" y1="995.24" x2="2002.8" y2="1103.24" gradientTransform="matrix(1,0,0,1,0,0)" xlink:href="#linear-gradient-24"/><linearGradient id="linear-gradient-55" x1="2084.18" y1="1007.33" x2="2062.18" y2="1115.33" gradientTransform="matrix(1,0,0,1,0,0)" xlink:href="#linear-gradient-24"/><linearGradient id="linear-gradient-56" x1="2135.74" y1="1017.84" x2="2113.74" y2="1125.84" gradientTransform="matrix(1,0,0,1,0,0)" xlink:href="#linear-gradient-24"/><linearGradient id="linear-gradient-57" x1="1834.88" y1="1202.26" x2="1892.78" y2="1202.26" xlink:href="#linear-gradient-2"/><linearGradient id="linear-gradient-58" x1="1970.85" y1="1336.38" x2="1962.35" y2="1259.95" gradientTransform="matrix(1,0,0,1,0,0)" xlink:href="#linear-gradient-11"/><linearGradient id="linear-gradient-59" x1="2045.62" y1="1057.41" x2="1984.62" y2="1096.41" gradientTransform="matrix(1,0,0,1,0,0)" xlink:href="#linear-gradient-11"/><linearGradient id="linear-gradient-60" x1="1940.5" y1="1130.3" x2="2071.88" y2="1022.1" gradientTransform="matrix(1,0,0,1,0,0)" xlink:href="#linear-gradient-24"/><linearGradient id="linear-gradient-61" x1="2025.73" y1="1114.74" x2="2044.71" y2="1056.62" gradientTransform="matrix(1,0,0,1,0,0)" xlink:href="#linear-gradient-11"/><linearGradient id="linear-gradient-62" x1="1601.16" y1="460.55" x2="1557.35" y2="566.45" gradientTransform="translate(-46.67 443.23) rotate(9.25)" xlink:href="#linear-gradient-2"/><linearGradient id="linear-gradient-63" x1="1429.6" y1="1256.16" x2="1448.14" y2="1816.86" xlink:href="#linear-gradient-5"/><linearGradient id="linear-gradient-64" x1="1322.34" y1="1308.43" x2="1445.14" y2="1605.09" gradientUnits="userSpaceOnUse"><stop offset="0" stop-color="#a22b25"/><stop offset="1" stop-color="#c0423c"/></linearGradient><linearGradient id="linear-gradient-65" x1="-6943.12" y1="1307.79" x2="-6820.31" y2="1604.45" gradientTransform="translate(-5403.07) rotate(-180) scale(1 -1)" xlink:href="#linear-gradient-64"/><linearGradient id="linear-gradient-66" x1="1431.42" y1="1346.97" x2="1425.05" y2="1604.74" xlink:href="#linear-gradient-2"/><linearGradient id="linear-gradient-67" x1="1429.92" y1="1378.95" x2="1436.93" y2="1218.38" xlink:href="#linear-gradient-3"/><linearGradient id="linear-gradient-68" x1="1514.85" y1="1469.1" x2="1581.96" y2="1469.1" gradientTransform="translate(1.59 21.57) rotate(.44)" xlink:href="#linear-gradient-3"/><linearGradient id="linear-gradient-69" x1="1549.43" y1="1381.34" x2="1478.59" y2="1573.21" xlink:href="#linear-gradient-64"/><linearGradient id="linear-gradient-70" x1="-7442.56" y1="1416.85" x2="-7375.42" y2="1416.85" gradientTransform="translate(-6070.47 -63.41) rotate(-178.85) scale(1 -1)" xlink:href="#linear-gradient-3"/><linearGradient id="linear-gradient-71" x1="1407.5" y1="1323.51" x2="1336.62" y2="1515.49" xlink:href="#linear-gradient-64"/><linearGradient id="linear-gradient-72" x1="1469.07" y1="1435.24" x2="1545.07" y2="1250.57" xlink:href="#linear-gradient-3"/><linearGradient id="linear-gradient-73" x1="1424.44" y1="1360.46" x2="1392.44" y2="1481.13" xlink:href="#linear-gradient-3"/><linearGradient id="linear-gradient-74" x1="1430.14" y1="1332.93" x2="1428.51" y2="1190.75" gradientUnits="userSpaceOnUse"><stop offset="0" stop-color="#c4421b"/><stop offset="1" stop-color="#5c0e16"/></linearGradient><linearGradient id="linear-gradient-75" x1="1583.28" y1="563.51" x2="1588.37" y2="439.8" gradientTransform="translate(-46.67 443.23) rotate(9.25)" xlink:href="#linear-gradient-64"/><linearGradient id="linear-gradient-76" x1="1598.47" y1="459.37" x2="1555.05" y2="564.34" gradientTransform="translate(-46.67 443.23) rotate(9.25)" xlink:href="#linear-gradient-2"/><linearGradient id="linear-gradient-77" x1="1436.67" y1="1144.9" x2="1444.65" y2="951.03" gradientTransform="translate(-.56 79.26) rotate(1.75)" xlink:href="#linear-gradient-64"/><linearGradient id="linear-gradient-78" x1="843.4" y1="483.5" x2="737.4" y2="645.5" gradientTransform="matrix(1,0,0,1,0,0)" xlink:href="#linear-gradient-11"/><linearGradient id="linear-gradient-79" x1="-4194.08" y1="-3449.54" x2="-4206.41" y2="-3260.44" gradientTransform="translate(-4376.85 1782.81) rotate(-153.82) scale(1 -1)" xlink:href="#linear-gradient-2"/><linearGradient id="linear-gradient-80" x1="718.41" y1="355.18" x2="794.41" y2="573.18" gradientTransform="matrix(1,0,0,1,0,0)" xlink:href="#linear-gradient-11"/><linearGradient id="linear-gradient-81" x1="-3018.02" y1="-4894.07" x2="-3030.35" y2="-4704.98" gradientTransform="translate(-4505.43 2595.02) rotate(-142.14) scale(1 -1)" xlink:href="#linear-gradient-2"/><linearGradient id="linear-gradient-82" x1="592.89" y1="443.77" x2="802.76" y2="443.77" xlink:href="#linear-gradient-3"/><linearGradient id="linear-gradient-83" x1="599.76" y1="245.96" x2="724.07" y2="245.96" xlink:href="#linear-gradient-2"/><linearGradient id="linear-gradient-84" x1="12791.39" y1="270.82" x2="12412.67" y2="636.13" gradientTransform="translate(-12045.1)" xlink:href="#linear-gradient-5"/><linearGradient id="linear-gradient-85" x1="516.41" y1="461.27" x2="668.41" y2="393.28" gradientTransform="matrix(1,0,0,1,0,0)" xlink:href="#linear-gradient-11"/><linearGradient id="linear-gradient-86" x1="723.63" y1="208.52" x2="687.64" y2="304.51" gradientTransform="matrix(1,0,0,1,0,0)" xlink:href="#linear-gradient-11"/><linearGradient id="linear-gradient-87" x1="-8163.58" y1="-3984.2" x2="-8141.08" y2="-3885.2" gradientTransform="translate(-4713.86 -5306.42) rotate(-123.08) scale(1 -1)" xlink:href="#linear-gradient-11"/><linearGradient id="linear-gradient-88" x1="699.63" y1="201.49" x2="772.02" y2="201.49" xlink:href="#linear-gradient-2"/><linearGradient id="linear-gradient-89" x1="-8143.8" y1="-3988.69" x2="-8121.3" y2="-3889.7" gradientTransform="translate(-4713.86 -5306.42) rotate(-123.08) scale(1 -1)" xlink:href="#linear-gradient-11"/><linearGradient id="linear-gradient-90" x1="-5565.85" y1="203.32" x2="-5649.56" y2="226.26" gradientTransform="translate(-4893.31 -86.8) rotate(-177.17) scale(1 -1)" xlink:href="#linear-gradient-2"/><linearGradient id="linear-gradient-91" x1="5793.37" y1="377.75" x2="6546.34" y2="314.4" gradientTransform="translate(6666.47) rotate(-180) scale(1 -1)" xlink:href="#linear-gradient-2"/><linearGradient id="linear-gradient-92" x1="-5689.67" y1="352.78" x2="-5716.63" y2="393.36" gradientTransform="translate(-4884.64) rotate(-180) scale(1 -1)" xlink:href="#linear-gradient-3"/><linearGradient id="linear-gradient-93" x1="1015.7" y1="1285.97" x2="1056.74" y2="1285.97" xlink:href="#linear-gradient-5"/><linearGradient id="linear-gradient-94" x1="1064.78" y1="1397.55" x2="1132.57" y2="1397.55" gradientTransform="matrix(1,0,0,1,0,0)" xlink:href="#linear-gradient-24"/><linearGradient id="linear-gradient-95" x1="1108.55" y1="1282.74" x2="1191.04" y2="1005.26" gradientTransform="matrix(1,0,0,1,0,0)" xlink:href="#linear-gradient-24"/><linearGradient id="linear-gradient-96" x1="1119.34" y1="1285.95" x2="1201.83" y2="1008.46" gradientTransform="matrix(1,0,0,1,0,0)" xlink:href="#linear-gradient-24"/><linearGradient id="linear-gradient-97" x1="1082.21" y1="1176.91" x2="856.32" y2="1545.64" xlink:href="#linear-gradient-5"/><linearGradient id="linear-gradient-98" x1="950.49" y1="1178.24" x2="947.49" y2="1246.24" gradientTransform="matrix(1,0,0,1,0,0)" xlink:href="#linear-gradient-24"/><linearGradient id="linear-gradient-99" x1="951.52" y1="1178.29" x2="948.52" y2="1246.29" gradientTransform="matrix(1,0,0,1,0,0)" xlink:href="#linear-gradient-24"/><linearGradient id="linear-gradient-100" x1="2625.2" y1="1743.06" x2="2691.52" y2="1743.06" gradientTransform="translate(-1781.98 151.69) rotate(-25.51)" xlink:href="#linear-gradient"/></defs><g id="Background"><rect class="cls-30" width="2475" height="1650"/></g><g id="Illustration"><path class="cls-101" d="M2215.31,874.59c-35.68-36.95-77.86-72.99-88.87-123.17-19.04-86.82,62.37-160.85,89.02-245.64,18.43-58.63,8.92-125.39-25.14-176.55-34.06-51.16-91.98-85.68-153.19-91.29-105.31-9.66-208.36,61.3-312.1,40.75-83.06-16.45-148.7-89.04-233.01-96.82-99.22-9.15-181.54,72.75-276.28,103.59-113.33,36.88-236.19-1.66-347.61-43.96-111.42-42.3-228.64-89.49-346.09-69.25-130.73,22.54-240.34,136.45-257.82,267.95-17.33,130.32,128,234.94,4.29,391.42-38.66,48.9-64.37,116.99-47.28,176.93,16.61,58.25,87.27,95.09,87.78,155.65.41,47.81-44.68,85.86-48.31,133.53-3.12,40.92,26.31,78.76,62.48,98.15,36.17,19.39,78.13,24.14,118.94,28.53,0,0,400.31,27.27,606.63,23.15,325.36-6.5,650.72-13,976.08-19.5,33.44-.67,67.69-1.49,98.85-13.65,31.16-12.16,59.1-38.19,63.85-71.29,8.08-56.34-50.82-105.24-45.37-161.9,6.95-72.35,108.83-100.26,128.21-170.31,13.7-49.5-19.38-99.37-55.06-136.32Z"/><path class="cls-100" d="M160.69,820.71c2.09,85.15,30.01,577.99,397.01,581.08,0,0,47.05-338.91-388.71-588.73-3.81-2.19-8.44,2.09-8.3,7.65Z"/><path class="cls-28" d="M204.58,881.57c8.06,24.02,17.06,47.79,26.45,71.36,9.41,23.57,19.33,46.94,29.78,70.06,10.45,23.13,21.41,46.01,32.91,68.62,11.54,22.59,23.72,44.84,36.48,66.75,12.71,21.94,26.39,43.29,40.66,64.2,14.22,20.96,29.64,41.07,45.89,60.43l6.15,7.21c2.05,2.4,4.07,4.83,6.26,7.12l12.86,13.9c8.92,8.92,17.75,17.95,27.3,26.17,18.85,16.7,39.07,31.86,60.94,44.16l.04.02c1.86,1.05,2.52,3.41,1.48,5.27-1.05,1.86-3.41,2.52-5.27,1.48h-.02c-22.38-12.82-42.9-28.46-61.94-45.57-9.65-8.44-18.54-17.65-27.51-26.76l-12.92-14.17c-2.19-2.33-4.21-4.8-6.27-7.24l-6.17-7.33c-16.27-19.68-31.66-40.07-45.82-61.26-14.21-21.16-27.81-42.73-40.42-64.86-12.66-22.1-24.72-44.53-36.13-67.28-11.37-22.77-22.2-45.81-32.5-69.07-10.3-23.26-20.08-46.75-29.34-70.45-9.24-23.71-18.07-47.55-26-71.77-.28-.86.19-1.79,1.05-2.07.86-.28,1.78.18,2.06,1.04v.03Z"/><path class="cls-100" d="M169.28,1309.83c38.42-13.78,193.96-51.8,280.54,194.37,0,0-228.16-88.69-284.79-182.6-2.63-4.37-.55-10.04,4.25-11.77Z"/><path class="cls-86" d="M585.46,1267.03s-389.19-239.22-303.47-884.84c1.43-10.76,14.82-14.91,22.09-6.84,67.68,75.08,298,370.06,281.38,891.68Z"/><path class="cls-28" d="M346.7,523.7c17.23,54.53,34.45,109.07,51.4,163.69,8.48,27.31,16.91,54.63,25.11,82.03l12.31,41.09,12.06,41.16,23.87,82.4,11.78,41.25,11.49,41.33c15.26,55.12,30.19,110.34,43.76,165.92.19.77-.29,1.55-1.06,1.74-.76.18-1.52-.27-1.73-1.02l-11.53-41.29-11.75-41.23c-7.91-27.47-15.69-54.97-23.76-82.39l-24.05-82.31-24.26-82.25-12.21-41.1-12.08-41.14c-8.16-27.4-16.07-54.87-24.08-82.31-15.99-54.9-31.91-109.82-48.21-164.62-.24-.82.22-1.68,1.04-1.92.81-.24,1.66.21,1.91,1.01Z"/><path class="cls-86" d="M1738.56,1235.61c54.5-142.4,288.74-751.94,384.72-962.28,10.06-22.04,41.68-21.01,50.33,1.62,62.7,163.99,186.49,655.86-417.81,975.87-10.02,5.3-21.29-4.62-17.23-15.21Z"/><path class="cls-28" d="M1760.21,1237.52c-1.01,0-2.01-.39-2.77-1.17-1.49-1.53-1.46-3.98.07-5.47,82.82-80.73,154.64-178.33,213.48-290.09,47.1-89.46,86.02-188.14,115.7-293.3,50.55-179.15,56.75-316.78,56.8-318.15.09-2.14,1.9-3.81,4.03-3.71,2.14.09,3.8,1.89,3.71,4.03-.06,1.38-6.27,139.75-57.03,319.73-29.81,105.71-68.94,204.93-116.3,294.9-59.22,112.52-131.55,210.81-214.98,292.14-.75.73-1.73,1.1-2.7,1.1Z"/><path class="cls-100" d="M1941.69,1278.16c-9,3.46-18.6-3.39-18.39-13.02,1.19-53.17,18.14-203.2,163.17-315.77,122.47-95.07,179.85-158.25,203.9-188.74,5.09-6.45,15.45-2.65,15.18,5.56-2.91,90.56-37.91,386.56-363.87,511.98Z"/><path class="cls-28" d="M1934.08,1268.59c-.58,0-1.17-.13-1.73-.41-1.91-.96-2.69-3.28-1.73-5.19,1.05-2.11,107.12-212.41,271.45-352.3,1.63-1.38,4.07-1.19,5.46.44,1.39,1.63,1.19,4.07-.44,5.46-163.1,138.84-268.5,347.77-269.54,349.86-.68,1.36-2.05,2.14-3.47,2.14Z"/><path class="cls-14" d="M1980.17,1404.39c0,15.49-12.68,28.16-28.19,28.16H427.79c-15.5,0-28.19-12.67-28.19-28.16l-12.68-875.91c0-15.49,18.25-45.72,51.69-43.45l1489.61-38.54c19.45-.5,38.26,6.98,52.03,20.71,13.77,13.73,21.31,32.5,20.85,51.93l-20.93,885.26Z"/><path class="cls-50" d="M1952.34,1377.38c0,14.67-12,26.67-26.67,26.67H464.54c-14.67,0-26.67-12-26.67-26.67l-11.97-795.16c1.41-47.85,43.36-65.05,68.79-64.03l1427.66-38.3c13.67-.37,26.88,4.9,36.56,14.55s15,22.87,14.66,36.53l-21.23,846.42Z"/><path class="cls-86" d="M453.67,997.64c-1.06,0-1.92-.85-1.93-1.91l-.95-64.49c-.02-1.07.84-1.95,1.91-1.96,1,.03,1.95.84,1.96,1.91l.95,64.49c.02,1.07-.84,1.95-1.91,1.96h-.03Z"/><path class="cls-86" d="M451.35,839.62c-1.06,0-1.92-.85-1.93-1.91l-3.63-246.98c.07-16.43,5.13-29.55,15.04-39.04,18.03-17.28,46.26-16.41,47.46-16.36l455.93-12.23c1.07-.06,1.96.81,1.99,1.88.03,1.07-.81,1.96-1.88,1.99l-456.04,12.23c-1.27-.04-27.92-.86-44.77,15.29-9.12,8.74-13.77,20.92-13.84,36.23l3.63,246.95c.02,1.07-.84,1.95-1.91,1.96h-.03Z"/><g class="cls-98"><path class="cls-85" d="M502.25,1333.27c1.53-65.72.96-647.7-2.81-697.96-3.77-50.26,74.51-59.69,194.69-65.35,120.18-5.66,1134.22-28.05,1160.33-30.17,58.69-4.76,70.84,82.96,64.96,273.4-4.41,143.07-11.72,378.76-15.09,487.14-1,32.27-27.38,57.88-59.67,57.97-244.02.67-1179.27,3.35-1241.53,5.21-71.65,2.13-101.5-4.17-100.89-30.23Z"/></g><rect class="cls-40" x="306.85" y="1428.3" width="1796.97" height="76.96" rx="7.51" ry="7.51"/><circle class="cls-86" cx="1216.89" cy="947.38" r="330.1"/><path class="cls-52" d="M1191.58,1057.91c-3.21,1.22-6.69,1.1-9.83-.34l-227.11-104.03,16.13,132.36c2.26,18.52,13.7,33.77,29.17,38.8,141.55,46.06,274.05,56.38,389.65.01,10.54-5.14,18.66-15.34,22.42-27.91l41.3-138.1-261.72,99.22Z"/><path class="cls-83" d="M864.07,854.61l357.53-147.44c3.13-1.29,6.54-1.3,9.67-.02l353.59,144.21c13.15,5.36,12.94,27.11-.31,32.13l-392.97,148.97c-3.21,1.22-6.69,1.1-9.83-.34l-318.15-145.74c-12.54-5.74-12.23-26.53.47-31.77Z"/><path class="cls-77" d="M1567.28,968.79s-77.61,107.74-5.08,176.56c2.61,2.48,6.49,1.69,8.16-1.71l27.54-55.95c20.45-41.54-30.62-118.9-30.62-118.9Z"/><polygon class="cls-65" points="1566.98 986.11 1559.17 986.11 1559.17 913.67 1573.94 908.65 1566.98 986.11"/><path class="cls-78" d="M1895.2,280.63c-.02-.63-.03-1.2-.04-1.7-.03-1.4.55-2.74,1.6-3.67,6.17-5.44,29.27-24.07,61.72-29.63,1.75-.3,3.26.5,4.09,1.76-2.7.3-6.33.96-11.22,2.19-16.05,4.05-39.43,15.02-56.16,31.05Z"/><path class="cls-21" d="M1951.36,249.59c4.89-1.23,8.51-1.89,11.22-2.19.84,1.26,1.01,2.98.06,4.49-.53.85-1.19,1.77-1.99,2.76-5.13,6.3-46.5,47.94-46.5,47.94,0,0-13.02,1.46-16.97-.88-1.28-.76-1.79-14.27-1.97-21.08,16.72-16.02,40.11-26.99,56.16-31.05Z"/><path class="cls-80" d="M1896.34,324.31l.24-25.04c.02-2.12,1.38-4.01,3.41-4.64,3.12-.97,7.9-1.86,12.23-.19,2.54.98,4.23,3.41,4.42,6.13l1.64,23.4-21.94.33Z"/><path class="cls-22" d="M1995.84,303.09c.31-.98.9-1.8,1.64-2.41,5.24,1.09,16.16,4.09,38.51,12.22,25.91,9.43,33.44,17.51,35.59,21.82-11.17,3.15-36.53,7.9-72.77.46l-7.14-3.43s.67-17.49,4.18-28.65Z"/><path class="cls-3" d="M2035.99,312.89c-22.35-8.13-33.26-11.13-38.51-12.22,1.16-.95,2.73-1.38,4.3-1.04,12.88,2.81,51.8,12.36,72.03,29.08,2.02,1.67,1.39,4.92-1.12,5.67-.35.11-.73.21-1.11.32-2.15-4.31-9.68-12.39-35.59-21.82Z"/><path class="cls-70" d="M1978.09,346.73l15.45-18.16c1.5-1.77,3.93-2.45,6.13-1.7,2.44.83,5.67,2.51,8.78,5.96,1.45,1.61,1.72,3.97.71,5.89l-11.32,21.43-19.75-13.42Z"/><path class="cls-2" d="M1921.71,315.83s-18.61-3.76-28.99-.28c0,0-14.42,81.7-12.32,108.03l40.2,8.57s2.02-92.19,1.11-116.33Z"/><path class="cls-99" d="M1755.03,457.63s131.65,8.65,185.15,5.47c5.24-.31,9.91-3.37,12.31-8.04,11.68-22.83,46.7-91.34,49.77-97.88,0,0-13.85-11.79-24.14-13.5,0,0-49.3,53.81-51.61,81.48,0,0-112.67-33.57-123.83-33.37-11.16.2-45.53,15.14-45.53,15.14l-2.13,50.69Z"/><path class="cls-75" d="M1537.09,444.52c1.85-15.48,30.41-30.26,30.41-30.26l9.12-19.49c6.34-21.63,19.56-40.6,37.67-54.03l12.61-9.35c12.39-9.19,32.03-5.79,44.49,3.3,27.67,20.18,68.71,53.96,82.73,65.58,3.01,2.5,7.17,3.09,10.76,1.54l2.37-1.02c2.24-.96,4.68.86,4.38,3.28l-6.52,54.76-95.71-2.02c-11.48-.11-44.71-1.61-49.91-11.85l-8.64-21.81c-20.91,17.44-47.63,29.31-61.92,32.7-6.59,1.56-12.69-4.23-11.84-11.34Z"/><path class="cls-106" d="M1605.68,301.78l29.15,28.86c1.94,1.92,2.1,5.04.32,7.11-9.18,10.73-17.02,16.32-23.5,16.69-2.75.16-5.34-1.32-6.79-3.66l-15.41-24.81,16.22-24.2Z"/><polygon class="cls-81" points="1544.95 442.07 1519.73 431.97 1490.08 455.1 1542.77 455.8 1544.95 442.07"/><path class="cls-73" d="M1555.18,294.2s3.78,32.54,14.73,42.64c10.95,10.1,32.54,2.78,40.04-21.65l-14.08-42.03-40.69,21.04Z"/><path class="cls-88" d="M1597.24,300.28c-.84.3-1.72-.32-1.84-1.31-.37-3-1.31-8.95-3.28-13.01,0,0,1.09-4.25-9.55,2.09-10.65,6.34-26.64,15.65-35.95,9.93-9.08-5.58-18.06-33.31,6.02-27.96.92.2,1.77-.61,1.71-1.67-.25-4.55.25-15,9.64-18.26,8.79-3.06,13.55,1.46,15.5,4.18.57.8,1.65.79,2.22-.02,2.66-3.85,9.87-12.03,20.32-6.7,8.6,4.39,9.89,10.42,9.71,14.17-.06,1.21,1.03,2.05,2.01,1.55,2.66-1.35,6.93-2.03,10.95,3.79,5.56,8.04-2.56,14.89-5,16.68-.4.29-.65.78-.66,1.32-.06,4.15-.81,22.27-8.94,32.41-.7.88-1.99.61-2.38-.49l-6.03-16.72c-.28-.78-1.04-1.18-1.75-.93l-2.69.95Z"/><path class="cls-55" d="M1597.08,303.66s3.94-17.35,9.63-11.65c5.68,5.7-1.67,18.06-8.26,20.36l-1.36-8.71Z"/><path class="cls-102" d="M1639.33,367.11s-.8-34.97,13.57-35.53c17.84-.7,46.38,12.49,28.83,63.56-9.7,28.21-24.1,49.08-63.19,57.6-1.76-14.36-8.17-24.42-12.92-30.1,16-11.04,29.62-28.36,33.71-55.53Z"/><path class="cls-56" d="M1607.4,422.76c.28,0,.56-.08.81-.25,18.42-12.72,28.75-30.26,32.5-55.2.01-.08.02-.16.02-.24-.21-9.34,1.57-33.68,12.22-34.1,5.15-.2,10.54.82,15.18,2.88.71.31,1.53,0,1.84-.71.31-.71,0-1.53-.71-1.85-5.02-2.23-10.85-3.33-16.42-3.12-15.26.6-14.96,34.14-14.91,36.84-3.65,24.06-13.6,40.97-31.31,53.2-.64.44-.79,1.31-.36,1.94.27.39.7.6,1.14.6Z"/><path class="cls-19" d="M1630.97,450.74c.15,0,.31-.02.46-.07,32.46-10.86,43.99-32.89,51.62-55.08,1.73-5.03,3.07-9.87,3.99-14.4.15-.76-.33-1.49-1.09-1.65-.76-.15-1.49.34-1.65,1.09-.9,4.41-2.21,9.14-3.9,14.05-7.39,21.51-18.55,42.87-49.86,53.34-.73.25-1.13,1.04-.88,1.77.19.58.73.95,1.31.95Z"/><path class="cls-36" d="M1537.65,455.56l.19-13.56s37.99,1.2,67.77-19.36c4.75,5.68,11.16,15.74,12.92,30.1-19.78,4.31-45.87,5.47-80.88,2.81Z"/><path class="cls-24" d="M1467.23,357.42l71.66,2.67c5.29.2,9.98,3.43,12.06,8.29l23.01,53.89c3.49,8.18-2.72,17.21-11.6,16.88l-69.95-2.6c-3.41-.13-6.39-2.32-7.52-5.54l-23.27-65.96c-1.34-3.81,1.58-7.78,5.61-7.63Z"/><path class="cls-4" d="M1516.37,395.32c1.37,4.88.05,9.53-2.95,10.37-3,.85-6.55-2.43-7.93-7.31-1.37-4.88-.05-9.53,2.95-10.37,3-.84,6.55,2.43,7.93,7.31Z"/><path class="cls-72" d="M1470.3,403.55s8.21-10.59,15.04-10.95c6.83-.36,4.98,14.37-.24,25.29-5.23,10.93-12.34-3.65-14.8-14.34Z"/><rect class="cls-86" x="478.93" y="1376.08" width="11.93" height="129.06"/><path class="cls-86" d="M432.63,1507.63h104.53v-4.45c0-1.84-1.49-3.32-3.32-3.32h-97.88c-1.84,0-3.32,1.49-3.32,3.32v4.45Z"/><rect class="cls-86" x="417.12" y="1347.16" width="131.42" height="37.27" rx="12.83" ry="12.83"/><path class="cls-42" d="M573,1290.02s17.73,2.75,37.67,16.08c3.14,2.1,4.86,5.75,4.39,9.5-2.39,18.91-12.2,80.12-44.57,139.91-1.71,3.15-2.2,6.82-1.44,10.33l5.62,26.17,10.43,9.78h-26.86l-17.89-48.4,7.65-2.42c5.93-1.88,10-7.33,10.11-13.55l.9-51.92c-.77-23.13,14.18-39.09,14.18-39.09l-42.9-2.09,42.72-54.29Z"/><path class="cls-103" d="M595.58,1506.5c2.45,3.2-26.33,7.43-40.87.42,0,0-20.15-35.07-20.15-53.12,0,0,1.6-3.68,13.43-2.85,0,0,6.77,41.52,13.91,46.17,7.15,4.65,19.99.47,19.99.47,0,0,10.08,4.18,13.69,8.9Z"/><path class="cls-95" d="M535.7,1347.16c.23-.39,46.19-5.53,46.19-5.53,0,0-1.5,13.97,3.2,33.21,4.7,19.24,72.18,102.58,72.18,102.58l-7.08,22.43c21.88,7.62,43.4,8.84,64.57,3.88l-43.85-26.31s-41.04-139.85-66.18-164.8l-46.07-15.94-22.97,50.47Z"/><path class="cls-61" d="M432.63,1265.78s-26.48,39.39-28.65,57.35c-2.17,17.97,7.25,25.27,35.04,26.47,27.78,1.2,101.96,1.18,101.96,1.18l63.31-54.1s-46.13-16.46-58.13-21.12c-11.99-4.65-113.52-9.79-113.52-9.79Z"/><path class="cls-51" d="M652.87,1492.3s-7.62,7.38-2.47,15.59c0,0,60.34,10.7,76.73,5.84,0,0-3.4-7.76-21.85-16.6l1.36,1.04c1.72,1.32.71,4.08-1.46,3.95-12.16-.69-37.32-2.92-52.31-9.83Z"/><path class="cls-41" d="M504.24,1260.57s30.84-29.36,46.02-48.81c8.2-10.51,10.78-24.35,6.99-37.14-6.93-23.35-19.25-47.53-20.37-51.29-1.72-5.77-36.3-5.53-36.3-5.53,0,0-68.04,44.16-94.77,118.96l30.02,9.35s17.76-29.8,35.32-48.75c0,0-30.37,40.12-31.44,56.55l64.54,6.67Z"/><path class="cls-87" d="M541.06,1091.09c-.36,1.2-9.39,31.12-10.09,31.74-.71.62-19.79,1.65-28.77-4.49l15.24-31.9,23.63,4.66Z"/><path class="cls-26" d="M564.45,1049.3s8.92,15.27,3.69,40.75c-5.23,25.49-18.37,29.23-27.58,24.2-9.21-5.03-21.52-14.52-25.57-36.54-4.05-22.02,37.39-47.63,49.46-28.41Z"/><path class="cls-53" d="M531.36,1074.27s10.79-34.94,35.49-16.98l2.75,8.33s20.41-8.58,11.15-26.89c-9.26-18.32-36.1-28.25-57.21-13.1-21.11,15.15-27.02,30.7-23.7,48,3.32,17.29,15.67,9.74,15.67,9.74,0,0,.96-13.12,6.83-16.15,5.86-3.02,6.91,6.7,6.91,6.7l2.12.35Z"/><path class="cls-31" d="M526.32,1075.29s5.65-17.93-5.22-17.24c-10.87.69-4.42,17.16-1.52,23.1l6.74-5.86Z"/><path class="cls-23" d="M567.06,1262.75l-22.66-21.84-31.34,13.24s-31.2,4.83-49.05,0l-17.86-4.83-40.35-12.56-6.34,17.91c-1.61,4.55,0,9.6,3.94,12.39,3.49,2.48,7.58,5.21,10.19,6.35,5.31,2.32,130.99-1.61,130.99-1.61l22.47-9.05Z"/><path class="cls-97" d="M523.04,1031.67c5.37-1.62,6.41-8.79,1.96-12.22-14.34-11.08-39.62-21.75-68.14,6.3-32.13,31.59-49.9,46.44-59.29,45.6-6.16-.55-10.27,6.16-6.55,11.1,2.75,3.65,7.67,7.12,16.06,9.59,64.79,19.1,84.43-50.87,115.95-60.37Z"/><path class="cls-8" d="M481.33,1273.05c.1,0,.2,0,.3,0l131.42-.14c3.25,0,5.88-2.64,5.88-5.89,0-3.25-2.65-5.93-5.89-5.88l-131.42.14c-3.25,0-5.88,2.64-5.88,5.89,0,3.15,2.48,5.72,5.59,5.87Z"/><path class="cls-18" d="M731.2,1153.72h-109.45c-8.07,0-15.42,4.66-18.87,11.96l-50.6,107.29h136.02c5.2,0,9.88-3.18,11.79-8.02l39.24-99.28c2.27-5.74-1.96-11.95-8.13-11.95Z"/><path class="cls-47" d="M654.09,1208.73c-2.37,7.37-.62,14.53,3.91,15.98,4.53,1.46,10.13-3.33,12.5-10.7,2.37-7.37.62-14.53-3.91-15.98-4.53-1.46-10.13,3.33-12.5,10.7Z"/><path class="cls-86" d="M820.65,1531.97c.63,0,1.28-.13,1.9-.4,2.44-1.07,3.57-3.97,2.52-6.47l-100.94-240.08c-1.05-2.5-3.88-3.65-6.32-2.58-2.44,1.07-3.57,3.97-2.52,6.47l100.94,240.08c.78,1.86,2.56,2.98,4.42,2.98Z"/><path class="cls-86" d="M706.94,1531.97c1.86,0,3.64-1.12,4.42-2.98l100.94-240.08c1.05-2.5-.08-5.39-2.52-6.47-2.44-1.07-5.27.08-6.32,2.58l-100.94,240.08c-1.05,2.5.08,5.39,2.52,6.47.62.27,1.27.4,1.9.4Z"/><path class="cls-86" d="M423.17,1531.97c.63,0,1.28-.13,1.9-.4,2.44-1.07,3.57-3.97,2.52-6.47l-100.94-240.08c-1.05-2.5-3.88-3.65-6.32-2.58-2.44,1.07-3.57,3.97-2.52,6.47l100.94,240.08c.78,1.86,2.56,2.98,4.42,2.98Z"/><path class="cls-86" d="M309.46,1531.97c1.87,0,3.64-1.12,4.42-2.98l100.94-240.08c1.05-2.5-.08-5.39-2.52-6.47-2.44-1.07-5.27.08-6.32,2.58l-100.94,240.08c-1.05,2.5.08,5.39,2.52,6.47.62.27,1.27.4,1.9.4Z"/><path class="cls-89" d="M297.64,1277.85c-.31-1.49.11-3.03,1.14-4.2,1.03-1.17,2.56-1.85,4.18-1.85h548.43c2.13,0,4.11,1.02,5.26,2.7,1.15,1.68,1.3,3.79.41,5.61l-5.94,12.06c-1.36,2.76-4.31,4.53-7.55,4.53H306.73c-3.02,0-5.61-2.01-6.19-4.78l-2.9-14.06Z"/><path class="cls-9" d="M2193.82,1113.56s53.15,29.44,57.55,79.28c4.4,49.83.37,256.67-106.22,307.58-106.58,50.91-247.67,39.18-301.67,33.61-54-5.57-83.95-42.27-90.63-67.54-6.69-25.27-17.49-119.4,39.32-149.77,56.81-30.36,116.48-76.88,176.1-122.18,59.62-45.3,161.8-119.24,225.55-80.98Z"/><path class="cls-35" d="M1808.92,1333.9s14.35.76,16.1,30.27c0,0-33.27,29.82-78.2,36.92-3.37.53,4.72-23.03,5.93-26.22,5.79-15.19,24.01-24.97,56.16-40.97Z"/><path class="cls-86" d="M1970.48,1299.19h-14.4c-9.97,0-19.5-4.02-26.43-11.18-23.85-24.61-83.45-82.53-130.56-98.49-7.66-2.6-16.03,1.09-19.47,8.42-9.83,20.98-23.63,69.82,9.04,143.73,3.62,8.19,13.89,11.67,21.34,6.7,2.12-1.41,3.65-3.28,4.59-5.6l-3.59-86.39s79.26,69.32,93.03,82.7c13.78,13.38,83.8,5.22,66.45-39.87Z"/><path class="cls-94" d="M1677.81,1514.64c12.69-11.12,32.9-23.59,62.08-27.17l9.87,6.04s-6.29,9.28-17.79,19.09c-10.57,6.14-26.88,14.45-40.41,16.25-13.15,1.75-15.09-6.19-13.75-14.21Z"/><path class="cls-49" d="M1752.76,1374.87c7.82,2.53,11.25,13.6,31.08,6.28,19.19-7.08,33.45-16.22,40.79-21.49.16,1.43.3,2.92.4,4.51,0,0-35.07,33.36-80.01,40.46-3.37.53-6.05-2.83-4.83-6.03,2.18-5.73,6.12-14.41,12.57-23.73Z"/><path class="cls-76" d="M1668.25,1524.14c2.5-2.84,5.69-6.11,9.56-9.49-1.34,8.01.6,15.96,13.75,14.21,13.53-1.8,29.84-10.11,40.41-16.25-13.24,11.29-33.39,23.28-58.82,22.58-5.65-.16-8.63-6.8-4.89-11.04Z"/><path class="cls-64" d="M1959.53,1206.48s-23.28,67.06-68.66,16.02l-4.32-1.92h0l-32.53-22.23,3.62,12.87c2,7.12,7.17,12.92,14.01,15.74l4.28,1.76c8.15,16.95,25.63,42.63,52.53,47.5,40.38,7.31,61.09-47.25,61.09-47.25l-30.03-22.49Z"/><path class="cls-86" d="M1969.37,1321.1l-141.77,1.53s-80.96,66.98-95.64,169.12c0,0-2.44,7.51,12.2,8.8,0,0,48.95-31.97,80.86-88.49,39.13-69.3,116.66-38.11,116.66-38.11,25.47-18.37,61.47-22.11,88.59-28.22l-60.9-24.63Z"/><path class="cls-33" d="M1957.85,1319.85s17.35-47.18,21.08-93.01c0,0-12.7-10.91-20.63-15.62-2.57-1.52-3.54-4.75-2.24-7.44,5.83-12.09,41.12-59.55,43.76-60.2,14.37-3.59,73.28-31.6,114.78,25.16,17.81,24.36-3.53,99.34-84.33,177l-16.67,3.19-55.76-29.07Z"/><path class="cls-7" d="M2037.97,1079.34l25.43,59.37c.48,1.61-.11,3.36-1.5,4.31-5.08,3.48-18.35,10.4-36.57,3.67-2.08-.77-3.51-2.71-3.69-4.93l-4.42-41.89,20.75-20.54Z"/><path class="cls-58" d="M1978.93,1227.8c-.53,0-.97-.43-.97-.96-.07-21.29,8.12-49.46,8.2-49.74.15-.51.69-.81,1.2-.66.51.15.81.69.66,1.2-.08.28-8.19,28.18-8.12,49.19,0,.53-.43.97-.96.97h0Z"/><path class="cls-29" d="M2032.72,1245.12c-.13,0-.26-.03-.39-.08-.49-.22-.71-.79-.49-1.28.14-.33,14.42-32.67,16.97-52.87.07-.53.53-.91,1.08-.84.53.07.91.55.84,1.08-2.58,20.49-16.97,53.09-17.12,53.42-.16.36-.51.58-.89.58Z"/><path class="cls-17" d="M2073.56,1278.92l-5.42-4.61c-.41-.35-.46-.96-.11-1.36.34-.41.95-.46,1.36-.11l4.23,3.59c26.51-20.88,35.84-61.36,35.93-61.77.12-.52.64-.85,1.16-.73.52.12.85.63.73,1.16-.09.42-9.73,42.21-37.26,63.36l-.62.48Z"/><path class="cls-67" d="M1837.8,1181.23l-2.28,3.13c-1.11,1.52-.74,3.65.81,4.71l51.24,35c1.36.93,3.19.72,4.31-.47h0c1.34-1.43,1.16-3.7-.39-4.9l-48.96-38.13c-1.48-1.15-3.63-.85-4.73.66Z"/><path class="cls-30" d="M1875.17,1285c-2.53.2-4.5,2.7-4.48,5.73.06,9.98,1.81,30.71,15.03,34.72,16.51,5.01,35.26-2.95,30.83-36.98-.49-3.78-3.27-6.53-6.46-6.27l-34.92,2.8Z"/><path class="cls-34" d="M1908.62,1313.96s85.77,0,129.35-67.69l25.6,23.4s-51.23,87.78-147.69,54.88c0,0-22.27,4.6-34.83,1.12-7.05-1.96-10.87-8.26-12.88-13.41-1.15-2.96,1.74-5.89,4.74-4.86,8.89,3.06,24.66,7.71,35.71,6.56Z"/><path class="cls-30" d="M1913.08,1292.96s5.2-14.04,14.12-3.86c8.92,10.18-5.58,17.98-14.12,19.1v-3.7s9.98-4.48,8.71-10.42c-1.27-5.95-8.71,1.49-8.71,1.49v-2.6Z"/><path class="cls-30" d="M1881.09,1223.68c3.26,1.12,6.39,2.79,8.94,5.19,2.56,2.37,4.44,5.6,4.98,9.08.28,1.74.25,3.54-.18,5.26-.42,1.73-1.28,3.34-2.37,4.69-2.2,2.73-5.11,4.57-7.73,6.58-2.62,1.96-5,4.4-6.14,7.44-.55,1.51-.68,3.16-.21,4.7.46,1.53,1.48,2.86,2.75,3.89,2.55,2.11,5.8,3.12,8.75,4.76,1.46.84,2.85,1.82,3.97,3.1,1.14,1.25,1.88,2.89,1.9,4.58,0,.03-.02.05-.05.05-.03,0-.05-.02-.05-.05-.06-1.67-.82-3.24-1.96-4.44-1.12-1.22-2.52-2.16-3.97-2.95-2.92-1.54-6.23-2.48-8.94-4.61-1.35-1.03-2.5-2.44-3.04-4.12-.56-1.67-.44-3.51.11-5.16,1.15-3.3,3.61-5.9,6.26-7.98,2.62-2.09,5.41-3.98,7.37-6.54,2.01-2.51,2.7-5.81,2.09-8.93-.57-3.13-2.3-5.97-4.68-8.08-2.38-2.14-5.32-3.63-8.4-4.61-.51-.16-.79-.7-.63-1.21.16-.51.7-.79,1.21-.63,0,0,.02,0,.02,0Z"/><path class="cls-30" d="M1899.9,1250.67c-1.64,3.4-4.82,4.99-6.34,7.55-.8,1.25-1.2,2.68-.79,3.99.38,1.32,1.47,2.45,2.71,3.34,2.43,1.79,6.04,2.73,7.96,5.91,1.82,3.22.36,7.59-2.93,9.09-.24.11-.52,0-.63-.24-.11-.24,0-.52.23-.63,2.71-1.27,3.84-5.14,2.29-7.61-.76-1.27-2.05-2.18-3.42-2.94-1.37-.78-2.91-1.42-4.33-2.39-1.39-.95-2.79-2.23-3.38-4.06-.63-1.84-.07-3.85.84-5.33,1.84-3.07,4.92-4.79,6.02-7.46.2-.49.77-.73,1.26-.53.49.2.73.77.53,1.26,0,.02-.02.04-.02.05Z"/><path class="cls-79" d="M1971.72,1064.12c-.04.97,19.34,62.45,19.34,62.45l34.87-11.81-9.71-61s-43.86-5.95-44.5,10.36Z"/><path class="cls-11" d="M2006.73,1065.03c1.49.68,2.59,2,2.97,3.59l7.52,31.25c.11.47.17.95.14,1.44-.12,2.69-1.19,11.21-9.99,9.68-7.5-1.3-14.41-2.4-19.22-.92-2.81.86-4.34,3.88-3.44,6.67,1.84,5.76,5.79,17.31,10.74,27.08,1.24,2.45,4.17,3.51,6.71,2.46,6.7-2.76,19.61-8.55,29.15-15.64,1.57-1.16,2.36-3.09,2.08-5.02-1.25-8.5-4.65-32.34-4.58-39.22.07-6.39,7.22-11.03,10.67-12.9,1.31-.71,2.25-1.92,2.63-3.36,1.11-4.32,1.85-13.08-9.29-15.72-2.77-.66-4.47-3.49-3.87-6.28,1.08-4.99.69-11.99-8.43-14.98-9.23-3.03-15.46,2-18.87,6.28-1.51,1.89-4.13,2.7-6.36,1.75-.99-.42-2.16-.46-3.45.38-2.43,1.58-5.59,1.03-7.19-1.39-2.74-4.16-7.7-8.18-16.27-5.77-15.72,4.41-15.68,22.33-10.37,32.29,5.31,9.95,22.07,4.2,30.15-1.94,5.93-4.51,14.47-1.59,18.59.27Z"/><path class="cls-1" d="M2031.47,1097.98s-8.5-17.74-2.22-22.95c6.29-5.22,16.54-3.92,15.73,9.66-1.01,16.89-13.52,13.3-13.52,13.3Z"/><path class="cls-71" d="M1407.62,1171.63c-.31.59-9.79,7.27-9.79,7.27,0,0-6.59,36.26,5.49,54.12,12.08,17.86,53.23-13.94,53.23-13.94,0,0,23.15-3.62,34.78-49.14,2.67-10.44-14.02-2.51-32.6-.58-23.97,2.48-51.11,2.27-51.11,2.27Z"/><path class="cls-104" d="M1368.62,1274.35c7.33-5.04,15.43-8.83,24.01-11.17,3.23-.88,20.64,4.18,31.41,3.94,14.78-.34,29.82-7.07,42-4.03,12.1,3.02,22,6.95,27.72,11.02,17.12,12.17,27.17,34.87,33.29,57.36-11.6,11.9-26.19,17.19-26.19,17.19l-2.7,109.29-64.63,33.07-73.76-37.03,2.64-106.8s-23.42-10.91-25.14-14.88c-1.72-3.97,10.68-43.74,31.34-57.95Z"/><path class="cls-16" d="M1338.37,1331.83s-31.39,87.02,40.19,122.79c14.86-1.97,9.15-26.66,9.15-26.66,0,0-31.1-6.88-21.76-79.48-8.6-7.08-27.57-16.66-27.57-16.66Z"/><path class="cls-5" d="M1525.55,1331.83s21.6,90.84-40.19,122.79c-14.86-1.97-9.15-26.66-9.15-26.66,0,0,25.07-12.34,21.76-79.48,8.6-7.08,27.57-16.66,27.57-16.66Z"/><rect class="cls-66" x="1358.93" y="1365.02" width="141.72" height="95.71" rx="10.14" ry="10.14"/><path class="cls-74" d="M1438.15,1390.94c.75,5.08-1.97,9.69-7.05,10.44-5.08.75-9.8-2.76-10.55-7.83-.75-5.08,1.57-10.12,6.65-10.87,5.08-.75,10.2,3.19,10.95,8.27Z"/><path class="cls-25" d="M1562.81,1489.1c-16.22-3.72-53.7-1.72-53.7-1.72l-1.52,4.13-2.53,20.52s35.7,6.43,53.29,6.42c1.8,0,3.44-.27,4.94-.74.54-.48,1.06-.98,1.56-1.52,7.47-8.15,5.31-20.13-2.04-27.09Z"/><path class="cls-6" d="M1498.33,1486.23l6.35.27c3.41.15,6.62,1.81,8.92,4.61,2.29,2.8,3.47,6.51,3.27,10.29-.16,3.01-1.4,5.83-3.43,7.83-2.04,2-4.71,3.01-7.43,2.82l-9.71-.69,2.04-25.13Z"/><path class="cls-10" d="M1284.9,1487.13c16.31-3.22,53.73-.07,53.73-.07l1.42,4.17,2.01,20.59s-35.84,5.34-53.43,4.78c-1.79-.06-3.43-.38-4.92-.89-.52-.5-1.04-1.01-1.52-1.57-7.26-8.38-4.8-20.29,2.71-27.02Z"/><path class="cls-46" d="M1349.42,1486.23l-6.35.08c-3.41.04-6.67,1.6-9.03,4.33-2.36,2.73-3.63,6.4-3.53,10.19.08,3.02,1.25,5.87,3.24,7.93,1.99,2.06,4.63,3.16,7.35,3.05l9.73-.39-1.41-25.18Z"/><path class="cls-39" d="M1567.34,1424.77c-7.35-16.93-25.34-19.68-40.66-11.76-.27.35-97.23,50.05-182.75,71.83,2.45,7.85,3.71,16.2,3.98,24.41.05,1.83.02,3.63-.09,5.41,65.58-3.37,136.75-25.24,197.9-44.46,18.96-6.12,29.76-26.67,21.61-45.43Z"/><path class="cls-44" d="M1498.8,1510.53c-.26-9.46,1.58-18.27,5.52-26.42.11-.37.25-.73.37-1.1-4.88-1.51-11.19-3.56-19.48-6.37-60.72-20.78-107.05-41.76-151.26-65.92-17.18-9.38-36.7-3.09-42.2,17.23-4.91,18.14,6.23,32.65,22.23,39.07,55,22.09,135.78,42.27,184.93,45.57-.04-.69-.08-1.37-.1-2.06Z"/><path class="cls-37" d="M1392.64,1263.18s6.53,28.3,38.24,27.71c32.29-.59,35.17-27.81,35.17-27.81l-21.1-4.51-1.76-23.51-31.73,2.35-.59,22.33-18.23,3.43Z"/><path class="cls-27" d="M1415.91,1168.47s-36.36,70.44,6.77,87.53c30.43,12.05,49.5-46.78,43.81-62.71-8.8-24.64-14.59-21.71-14.59-21.71l-35.99-3.1Z"/><path class="cls-30" d="M1466.5,1193.29c-.1-.29-.19-.54-.27-.78.14,1.3.21,2.65.23,4.05.06-.99.1-1.99.14-2.98-.03-.09-.06-.19-.09-.29Z"/><path class="cls-30" d="M1466.22,1192.51c-.05-.48-.11-.96-.18-1.43,1.87,3.12-1.73-4.15.18,1.43Z"/><path class="cls-43" d="M1483.33,1149.56c19.48-4.43,5.96,55.84-23.05,45.96-29.01-9.88-42.52-15.95-47.04-7.98-4.52,7.97-12.05,40.55-14.56,23.65-2.34-15.79-4.6-44.73,10.64-51.04,8.65-3.59,16.26,4.19,22.23,2.24,9.19-3,18.03-3.1,23.49.05,10.32,5.95,15.91-10.06,28.29-12.88Z"/><path class="cls-68" d="M1410,1199.25s-6.29-9.5-9.16.22-1.05,23.15,4.72,16.91c5.77-6.24,4.44-17.13,4.44-17.13Z"/><path class="cls-63" d="M905.43,595.42c-.19-.07-102.09-178.52-115.86-195.32-2.32-2.82-5.9-4.26-9.53-3.83l-28.44,3.39-33.41,72.29,55.67-32.42c-5.51,38.09,66,94.71,90.53,115.37,2.49,2.1,2.69,5.85.45,8.2l-9.79,10.25c16.07,16.29,34.62,26.76,55.56,31.6l-5.16-9.52Z"/><path class="cls-62" d="M860.7,567.82s-6.25,2.02-8.36,7.58c-1.01,2.66.08,5.68,2.39,7.34,10.29,7.37,44.23,31.17,59.89,35.83,1.28.38,2.51-.78,2.22-2.09-.8-3.64-3.4-10.9-11.78-21.54l.75,1.52c.95,1.92-1.14,3.93-3.01,2.87-10.48-5.91-31.81-18.86-42.1-31.52Z"/><path class="cls-82" d="M865.74,639.22c-.17-.11-15.46-36.94-15.63-37.05-14.02-85.35-48.22-158.44-58.3-177.67-1.7-3.23-4.92-5.37-8.56-5.68l-28.54-2.44-47.35,64.03,61.07-20.48c-13.1,36.19,45.47,106.11,65.31,131.3,2.01,2.56,1.45,6.28-1.22,8.12l-11.66,8.06c12.44,19.21,28.49,33.21,48.01,42.18l-3.13-10.37Z"/><path class="cls-92" d="M827.52,603.13s-6.53.71-9.73,5.73c-1.53,2.4-1.07,5.58.86,7.67,8.58,9.3,37.01,39.48,51.4,47.21,1.18.63,2.61-.26,2.59-1.6-.05-3.73-1.13-11.37-7.18-23.48l.43,1.64c.54,2.08-1.91,3.61-3.53,2.2-9.06-7.91-27.34-24.91-34.85-39.39Z"/><path class="cls-20" d="M621.12,402.89s-25.82,38.4-27.94,55.92c-2.12,17.52,7.14,23.57,34.16,25.81,80.41,6.65,120.06-17.45,120.06-17.45,5.5-35.07,9.41-44,55.36-63.07,0,0-58.11,4.61-69.8.08-11.7-4.54-111.83-1.28-111.83-1.28Z"/><path class="cls-84" d="M724.07,187.75s-17.98-21.28-37.1,4.83c-3.46,4.73-16.76.83-21.64,10.72-2.52,5.11-7.95,8.01-13.56,6.98-13.95-2.57-36.75-2.79-48.01,19.07-8.59,16.69-1.96,26.45,6.63,32.02,6.31,4.09,8.56,12.39,4.75,18.87-3.66,6.21-4.35,14.63,5.1,24.76,21.17,22.69,63.09-14.4,63.09-14.4l33.28-78.64,7.45-24.2Z"/><path class="cls-93" d="M690.94,397.81s30.06-28.63,44.86-47.59c8-10.25,10.51-23.74,6.81-36.21-6.76-22.76-18.76-46.34-19.86-50.01-1.68-5.62-35.39-5.39-35.39-5.39,0,0-66.34,43.05-92.4,115.98l29.27,9.11s17.32-29.06,34.43-47.53c0,0-29.61,39.12-30.65,55.13l62.92,6.5Z"/><path class="cls-90" d="M748.22,409.11l-22.59-24.58-26.09,7.03s-30.42,4.71-47.83,0l-17.41-4.71-39.34-12.25-6.18,17.46c-1.57,4.43,0,9.36,3.84,12.08,3.4,2.42,7.39,5.08,9.94,6.19,5.18,2.27,119.34.72,119.34.72l26.31-1.93Z"/><path class="cls-96" d="M710.54,218.08l-22.66,42.13c1.5,9.2,24.66,9.46,28.24,3.96.36-.56.57-1.21.71-1.86l13.55-28.15c.58-2.75-6.94-11.99-9.42-13.31l-9.01-4.79c-3.47-1.85,11-1.99-1.42,2.02Z"/><path class="cls-15" d="M756.39,208.19s2.56,14.23-8.63,32.33c-11.19,18.1-22.33,17.28-27.99,10.83-5.66-6.45-12.44-17.2-9.35-35.25,3.08-18.05,42.11-26.06,45.97-7.9Z"/><path class="cls-69" d="M723.96,218.06s18.12-23.8,32.02-3.05l-.23,7.17s18.09-.85,16.12-17.52c-1.96-16.67-16.73-28.06-37.2-22.36-20.47,5.7-32.43,12.18-34.74,26.39-2.31,14.21,9.29,11.89,9.29,11.89,0,0,4.43-9.81,9.79-10.48,5.35-.67,3.42,7.09,3.42,7.09l1.53.87Z"/><path class="cls-32" d="M719.8,217.42s9.38-12.18.84-14.7c-8.54-2.53-8.22,11.93-7.67,17.31l6.82-2.61Z"/><path class="cls-60" d="M673.45,418.83c.08,0,.16,0,.24,0l103.91-.11c2.57,0,4.65-2.09,4.65-4.66,0-2.57-2.09-4.69-4.66-4.65l-103.91.11c-2.57,0-4.65,2.09-4.65,4.66,0,2.49,1.96,4.52,4.42,4.64Z"/><path class="cls-54" d="M871,324.49h-86.54c-6.38,0-12.19,3.68-14.92,9.46l-40,84.83h107.54c4.11,0,7.81-2.51,9.32-6.34l31.02-78.5c1.79-4.54-1.55-9.45-6.43-9.45Z"/><path class="cls-59" d="M810.04,367.99c-1.88,5.83-.49,11.48,3.09,12.64,3.58,1.15,8.01-2.63,9.88-8.46,1.88-5.83.49-11.48-3.09-12.64-3.58-1.15-8.01,2.63-9.88,8.46Z"/><path class="cls-12" d="M1016.67,1307.58s-6.18-38.44,12.69-50.87c.84-.55,1.96.08,1.96,1.08v7.31c0,1.75,2.08,2.65,3.35,1.45,4.06-3.83,11.33-9.64,19.04-10.85,2.06-.32,3.66,1.73,2.78,3.61-4.73,10.11-17.11,38.43-16.63,56.98l-23.19-8.71Z"/><path class="cls-86" d="M996.63,1307.57l-12.63,201.93h75.69v-196.29c0-5.65-3.6-10.65-8.94-12.47-10.02-3.42-27.04-7.7-43.77-4.73-5.7,1.01-9.98,5.78-10.34,11.56Z"/><path class="cls-85" d="M996.84,1434.74l-2.56,56.31c-.21,4.67,3.51,8.57,8.19,8.57h38.24c4.52,0,8.19-3.67,8.19-8.19v-56.31c0-4.52-3.67-8.19-8.19-8.19h-35.67c-4.38,0-7.99,3.45-8.18,7.82Z"/><path class="cls-57" d="M1132.57,1509.5v-208.74c0-5.21-3.38-9.85-8.36-11.37-22.28-6.81-41.67-3-51.84.17-4.51,1.4-7.59,5.56-7.59,10.28v209.66h67.79Z"/><path class="cls-13" d="M1071.49,1304.25l1.64,30.81c.21,3.84,3.38,6.85,7.22,6.85h36.3c3.9,0,7.1-3.1,7.23-7l.99-30.41c.11-3.49-2.27-6.57-5.68-7.3-8.82-1.9-26.17-4.52-42.22-.37-3.36.87-5.67,3.95-5.49,7.41Z"/><path class="cls-48" d="M1074.31,1355.2h0c.26,3.79,3.42,6.73,7.22,6.73h34.75c4.05,0,7.31-3.33,7.23-7.38h0c-.08-3.94-3.29-7.09-7.23-7.09h-34.75c-4.19,0-7.51,3.55-7.22,7.73Z"/><path class="cls-38" d="M901.85,1306.59l8.4,202.71h71.7l5.43-204.97c.15-5.63-3.45-10.73-8.85-12.35-23.31-7-46.47-7.69-69.35,2.77-4.62,2.11-7.54,6.78-7.33,11.85Z"/><path class="cls-91" d="M908.38,1314.2l.85,11.02c.26,3.34,3.14,5.86,6.49,5.66l58.58-3.41c3.08-.18,5.54-2.61,5.77-5.68l.57-7.61c.27-3.57-2.55-6.61-6.13-6.61h-60c-3.58,0-6.41,3.05-6.13,6.62Z"/><path class="cls-105" d="M910.8,1340.54v4.02c0,3.11,2.59,5.59,5.69,5.46l56.11-2.34c2.93-.12,5.23-2.53,5.23-5.46v-4.27c0-3.12-2.6-5.6-5.71-5.46l-56.11,2.58c-2.92.13-5.21,2.54-5.21,5.46Z"/><path class="cls-86" d="M1317.33,575.59c80.77-1.19,480.33-8.19,562.34-9.62,8.09-.14,14.73,6.38,14.73,14.47v37.41c0,7.99-6.48,14.47-14.47,14.47h-562.37c-7.99,0-14.47-6.48-14.47-14.47v-27.78c0-7.91,6.34-14.36,14.25-14.47Z"/><path class="cls-100" d="M1419.17,604.4h0c0,8.14,6.68,14.71,14.82,14.56l325.85-5.65c9.34-.16,16.12-8.96,13.89-18.03l-1.48-6.05c-1.64-6.71-7.77-11.34-14.67-11.09l-324.36,11.7c-7.84.28-14.04,6.72-14.04,14.56Z"/><path class="cls-30" d="M1346.4,606.42l-50.1,51c-2.1,2.14-1.93,5.61.36,7.54l.38.32c2.03,1.71,5.06,1.43,6.76-.61l45.87-55.33-3.27-2.92Z"/><path class="cls-45" d="M1397.86,565.57c7.75,16.23.63,35.78-15.9,43.67-16.53,7.89-36.21,1.13-43.95-15.11-7.75-16.23-.63-35.78,15.9-43.67,16.53-7.89,36.21-1.13,43.95,15.11Z"/><path class="cls-30" d="M1352.32,547.15c-18.39,8.78-26.31,30.53-17.7,48.59,8.62,18.06,30.52,25.59,48.91,16.81,18.39-8.78,26.32-30.53,17.7-48.59-8.62-18.06-30.52-25.59-48.91-16.81ZM1381.24,607.75c-15.69,7.49-34.37,1.07-41.72-14.34-7.35-15.41-.59-33.97,15.1-41.46,15.69-7.49,34.37-1.07,41.72,14.34,7.35,15.41.59,33.97-15.1,41.46Z"/><path class="cls-30" d="M1334.85,590.08c-.42,0-.81-.28-.93-.71-.64-2.33-1.03-4.74-1.16-7.16-.03-.53.38-.99.91-1.02.53-.07.99.38,1.02.91.12,2.28.49,4.55,1.1,6.75.14.51-.16,1.05-.68,1.19-.09.02-.17.03-.26.03Z"/><path class="cls-30" d="M1305.33,651.29c-.24,0-.48-.09-.66-.26-.39-.37-.41-.98-.04-1.37l.77-.82c.37-.39.98-.41,1.37-.04.39.37.41.98.04,1.37l-.77.82c-.19.2-.45.31-.71.31Z"/><path class="cls-30" d="M1929.21,1166.5c-.88,0-1.68-.6-1.88-1.5-.43-1.87-.89-3.73-1.37-5.59-.27-1.03.36-2.09,1.39-2.36,1.03-.27,2.09.36,2.36,1.39.49,1.89.95,3.78,1.39,5.68.24,1.04-.41,2.08-1.45,2.32-.15.03-.29.05-.44.05ZM1924.06,1147.85c-.82,0-1.58-.53-1.84-1.35-.58-1.83-1.19-3.65-1.82-5.46-.35-1.01.18-2.11,1.19-2.46,1.01-.35,2.11.18,2.46,1.19.64,1.84,1.26,3.69,1.85,5.55.32,1.02-.24,2.11-1.25,2.43-.2.06-.39.09-.59.09ZM1917.44,1129.68c-.76,0-1.48-.45-1.79-1.2-.73-1.78-1.48-3.54-2.25-5.3-.43-.98.02-2.12,1-2.55.98-.43,2.12.02,2.55,1,.78,1.79,1.54,3.58,2.28,5.39.41.99-.07,2.12-1.06,2.52-.24.1-.49.15-.73.15ZM1909.4,1112.08c-.71,0-1.39-.39-1.73-1.06-.87-1.71-1.75-3.42-2.66-5.11-.5-.94-.15-2.12.8-2.62.94-.5,2.12-.15,2.62.8.92,1.72,1.82,3.45,2.7,5.19.48.95.1,2.12-.86,2.6-.28.14-.58.21-.87.21ZM1900.03,1095.16c-.65,0-1.29-.33-1.66-.93-.99-1.64-2.01-3.27-3.04-4.89-.57-.9-.31-2.1.59-2.67.9-.57,2.1-.31,2.67.59,1.05,1.64,2.08,3.3,3.09,4.97.55.91.26,2.1-.65,2.66-.31.19-.66.28-1,.28ZM1889.38,1079.01c-.6,0-1.2-.28-1.57-.81-1.12-1.56-2.25-3.11-3.41-4.65-.64-.85-.47-2.07.38-2.71.85-.64,2.07-.47,2.71.38,1.17,1.56,2.32,3.13,3.46,4.72.62.87.42,2.08-.45,2.7-.34.24-.73.36-1.13.36ZM1877.52,1063.72c-.55,0-1.1-.24-1.48-.69-1.23-1.47-2.49-2.93-3.75-4.37-.71-.8-.63-2.02.18-2.73.8-.7,2.03-.63,2.73.18,1.29,1.46,2.56,2.94,3.81,4.44.69.82.58,2.04-.24,2.73-.36.3-.8.45-1.24.45ZM1864.53,1049.39c-.5,0-1-.19-1.38-.58-1.34-1.37-2.7-2.73-4.08-4.07-.77-.75-.78-1.97-.04-2.74s1.97-.78,2.74-.04c1.4,1.36,2.78,2.74,4.14,4.13.75.76.74,1.99-.03,2.74-.38.37-.87.55-1.35.55ZM1850.46,1036.11c-.45,0-.91-.16-1.27-.48-1.45-1.26-2.91-2.51-4.38-3.73-.82-.68-.93-1.9-.25-2.72.68-.82,1.9-.93,2.72-.25,1.5,1.25,2.98,2.51,4.45,3.79.8.7.89,1.93.19,2.73-.38.44-.92.66-1.46.66ZM1835.39,1023.98c-.4,0-.8-.12-1.15-.38-1.54-1.14-3.1-2.27-4.67-3.37-.87-.62-1.08-1.82-.47-2.7.61-.87,1.82-1.08,2.7-.47,1.59,1.12,3.18,2.27,4.74,3.43.86.64,1.04,1.85.4,2.71-.38.51-.96.78-1.56.78ZM1819.39,1013.11c-.35,0-.7-.09-1.02-.29l-1.26-.78c-1.21-.74-2.44-1.48-3.66-2.2-.92-.54-1.23-1.73-.69-2.65.54-.92,1.73-1.23,2.65-.69,1.25.73,2.49,1.48,3.72,2.24l1.28.79c.91.56,1.19,1.76.62,2.67-.37.59-1,.91-1.65.91ZM1802.56,1003.58c-.3,0-.6-.07-.88-.21-1.71-.88-3.42-1.73-5.15-2.57-.96-.46-1.37-1.62-.9-2.58.46-.96,1.62-1.37,2.58-.9,1.76.85,3.5,1.72,5.24,2.61.95.49,1.32,1.66.84,2.61-.34.67-1.02,1.05-1.72,1.05ZM1785.01,995.44c-.25,0-.5-.05-.74-.15-1.77-.74-3.55-1.45-5.34-2.15-1-.39-1.49-1.51-1.1-2.5.39-.99,1.51-1.49,2.5-1.1,1.82.71,3.63,1.44,5.43,2.18.99.41,1.45,1.54,1.04,2.53-.31.74-1.03,1.19-1.79,1.19ZM1766.87,988.71c-.2,0-.4-.03-.6-.1-1.82-.6-3.66-1.17-5.5-1.73-1.02-.31-1.6-1.39-1.29-2.41.31-1.02,1.39-1.6,2.41-1.29,1.87.56,3.73,1.15,5.58,1.75,1.02.33,1.57,1.42,1.24,2.44-.27.82-1.03,1.34-1.84,1.34ZM1627.59,984.01c-.86,0-1.64-.58-1.87-1.45-.27-1.03.35-2.09,1.39-2.36,1.89-.49,3.78-.96,5.68-1.41,1.04-.24,2.08.4,2.33,1.44.24,1.04-.4,2.08-1.44,2.33-1.87.44-3.73.9-5.59,1.38-.16.04-.33.06-.49.06ZM1748.27,983.41c-.15,0-.31-.02-.46-.05-1.86-.45-3.74-.89-5.61-1.3-1.04-.23-1.7-1.26-1.48-2.3.23-1.04,1.25-1.7,2.3-1.48,1.91.42,3.81.86,5.7,1.32,1.04.25,1.68,1.3,1.42,2.34-.22.88-1.01,1.48-1.88,1.48ZM1646.49,979.91c-.92,0-1.74-.66-1.9-1.6-.18-1.05.52-2.05,1.57-2.24,1.92-.34,3.85-.65,5.77-.94,1.04-.16,2.04.57,2.2,1.63.16,1.06-.57,2.04-1.63,2.2-1.9.29-3.79.59-5.68.92-.11.02-.22.03-.34.03ZM1729.31,979.56c-.1,0-.21,0-.31-.03-1.9-.31-3.79-.6-5.7-.86-1.06-.15-1.8-1.13-1.65-2.18.15-1.06,1.13-1.8,2.18-1.65,1.93.27,3.86.56,5.78.88,1.05.17,1.77,1.17,1.6,2.22-.15.95-.98,1.62-1.91,1.62ZM1665.66,977.34c-.99,0-1.83-.75-1.92-1.75-.1-1.06.68-2.01,1.75-2.11,1.94-.18,3.89-.34,5.83-.48,1.08-.07,1.99.73,2.07,1.8.07,1.07-.73,1.99-1.8,2.07-1.92.13-3.83.29-5.74.47-.06,0-.12,0-.18,0ZM1710.11,977.18c-.05,0-.11,0-.17,0-1.91-.16-3.83-.31-5.74-.42-1.07-.07-1.88-.98-1.81-2.05s1-1.87,2.05-1.81c1.95.12,3.89.26,5.83.43,1.06.09,1.85,1.03,1.76,2.09-.09,1.01-.93,1.77-1.93,1.77ZM1684.98,976.29c-1.05,0-1.92-.85-1.93-1.91-.02-1.07.84-1.95,1.91-1.96,1.26-.02,2.52-.03,3.78-.03h2.07c1.07.02,1.93.89,1.92,1.96,0,1.06-.87,1.92-1.93,1.92h-2.06c-1.24,0-2.48,0-3.72.02h-.03Z"/><path class="cls-30" d="M648.58,1120.61c-.27,0-.54-.06-.8-.17-.97-.44-1.4-1.59-.96-2.56.81-1.78,1.63-3.55,2.48-5.3.47-.96,1.62-1.36,2.59-.9.96.47,1.36,1.62.9,2.58-.84,1.73-1.65,3.47-2.44,5.21-.32.71-1.03,1.14-1.76,1.14ZM657.29,1103.33c-.32,0-.64-.08-.94-.24-.93-.52-1.27-1.7-.75-2.63.95-1.7,1.92-3.4,2.91-5.08.54-.92,1.73-1.23,2.65-.68.92.54,1.23,1.73.68,2.65-.97,1.65-1.93,3.32-2.86,5-.35.63-1.01.99-1.69.99ZM667.39,1086.83c-.37,0-.74-.11-1.07-.33-.89-.59-1.13-1.8-.53-2.68,1.08-1.62,2.19-3.23,3.31-4.83.62-.87,1.82-1.08,2.7-.47.87.61,1.08,1.82.47,2.7-1.11,1.57-2.19,3.15-3.26,4.75-.37.56-.99.86-1.61.86ZM678.78,1071.19c-.42,0-.84-.14-1.2-.42-.84-.66-.98-1.88-.32-2.72,1.21-1.53,2.44-3.05,3.69-4.55.68-.82,1.9-.93,2.72-.25.82.68.93,1.9.25,2.72-1.23,1.48-2.44,2.97-3.63,4.47-.38.48-.95.73-1.52.73ZM691.38,1056.51c-.47,0-.94-.17-1.32-.52-.78-.73-.83-1.95-.1-2.73,1.33-1.43,2.67-2.84,4.04-4.24.75-.76,1.97-.78,2.74-.03.77.75.78,1.97.03,2.74-1.34,1.37-2.66,2.76-3.97,4.17-.38.41-.9.62-1.42.62ZM705.1,1042.88c-.52,0-1.05-.21-1.43-.63-.72-.79-.67-2.01.12-2.73,1.44-1.32,2.89-2.62,4.36-3.9.81-.7,2.03-.62,2.73.18.7.81.62,2.03-.18,2.73-1.45,1.26-2.88,2.54-4.29,3.84-.37.34-.84.51-1.31.51ZM719.87,1030.38c-.58,0-1.15-.26-1.53-.75-.66-.84-.51-2.06.34-2.72,1.54-1.2,3.09-2.38,4.66-3.54.86-.64,2.07-.46,2.71.4.64.86.46,2.07-.4,2.71-1.54,1.14-3.07,2.31-4.58,3.49-.35.28-.77.41-1.19.41ZM735.59,1019.11c-.63,0-1.25-.31-1.62-.87-.59-.89-.34-2.09.56-2.68,1.63-1.07,3.27-2.12,4.93-3.15.91-.56,2.1-.29,2.67.62.56.91.29,2.1-.62,2.67-1.63,1.01-3.25,2.05-4.85,3.1-.33.21-.7.32-1.06.32ZM752.18,1009.17c-.68,0-1.35-.36-1.7-1.01-.51-.94-.17-2.11.77-2.63l1.07-.58c1.36-.73,2.73-1.45,4.1-2.15.95-.49,2.12-.11,2.6.84.49.95.11,2.12-.84,2.6-1.35.69-2.7,1.4-4.04,2.12l-1.05.57c-.29.16-.61.24-.93.24ZM769.54,1000.63c-.74,0-1.45-.43-1.77-1.15-.43-.98,0-2.12.99-2.55,1.78-.79,3.58-1.56,5.38-2.3.99-.41,2.12.06,2.53,1.05.41.99-.06,2.12-1.05,2.53-1.77.73-3.54,1.49-5.29,2.26-.25.11-.52.17-.78.17ZM787.54,993.54c-.8,0-1.55-.5-1.83-1.3-.35-1.01.18-2.11,1.19-2.46,1.84-.64,3.69-1.26,5.55-1.86,1.02-.33,2.11.23,2.43,1.25.33,1.02-.23,2.11-1.25,2.43-1.83.59-3.65,1.2-5.46,1.83-.21.07-.43.11-.64.11ZM806.05,987.92c-.86,0-1.64-.58-1.87-1.45-.27-1.03.35-2.09,1.39-2.36,1.89-.49,3.78-.96,5.68-1.41,1.04-.24,2.08.4,2.33,1.44.24,1.04-.4,2.08-1.44,2.33-1.87.44-3.73.9-5.59,1.38-.16.04-.33.06-.49.06ZM824.94,983.79c-.92,0-1.74-.66-1.9-1.6-.19-1.05.52-2.06,1.57-2.24,1.92-.34,3.85-.66,5.77-.95,1.06-.16,2.04.56,2.21,1.62.16,1.06-.56,2.04-1.62,2.21-1.9.29-3.79.6-5.68.94-.11.02-.23.03-.34.03ZM904.39,983c-.1,0-.2,0-.31-.02-.79-.13-1.58-.25-2.37-.36-1.06-.16-1.79-1.14-1.63-2.2.16-1.06,1.15-1.78,2.2-1.63.81.12,1.61.24,2.41.37,1.06.17,1.77,1.16,1.6,2.22-.15.95-.97,1.63-1.91,1.63ZM844.11,981.18c-.99,0-1.83-.75-1.92-1.75-.1-1.06.68-2.01,1.74-2.11,1.94-.19,3.89-.35,5.83-.49,1.07-.06,1.99.73,2.07,1.79.08,1.07-.73,1.99-1.79,2.07-1.91.14-3.83.3-5.74.48-.06,0-.13,0-.19,0ZM888.56,981.03c-.06,0-.12,0-.17,0-1.91-.17-3.82-.32-5.74-.44-1.07-.07-1.87-.99-1.81-2.06.07-1.07,1-1.87,2.06-1.81,1.95.13,3.89.28,5.83.45,1.06.1,1.85,1.04,1.75,2.1-.09,1.01-.93,1.76-1.93,1.76ZM863.43,980.1c-1.05,0-1.92-.85-1.93-1.9-.02-1.07.84-1.95,1.9-1.97,1.27-.02,2.51-.03,3.82-.03h2.04c1.07.02,1.93.89,1.92,1.96,0,1.06-.87,1.92-1.93,1.92h-2.02c-1.24-.01-2.5,0-3.75.02h-.03Z"/><path class="cls-30" d="M900.09,813.49c-.07,0-.14,0-.21-.01l-1.53-.16c-1.06-.12-1.83-1.07-1.71-2.14.12-1.06,1.08-1.83,2.14-1.71l1.51.16c1.06.11,1.83,1.07,1.72,2.13-.1.99-.94,1.73-1.92,1.73ZM885.17,811.41c-.11,0-.22,0-.34-.03-1.92-.34-3.84-.7-5.75-1.09-1.05-.21-1.72-1.23-1.51-2.28.21-1.05,1.24-1.73,2.28-1.51,1.88.38,3.76.74,5.65,1.07,1.05.19,1.76,1.19,1.57,2.24-.16.94-.98,1.6-1.9,1.6ZM866.28,807.23c-.17,0-.33-.02-.5-.07-1.88-.5-3.76-1.03-5.63-1.59-1.03-.3-1.61-1.38-1.31-2.4.3-1.03,1.38-1.61,2.4-1.31,1.84.54,3.69,1.06,5.54,1.56,1.03.28,1.64,1.34,1.37,2.37-.23.86-1.01,1.44-1.87,1.44ZM847.83,801.44c-.22,0-.44-.04-.66-.12-1.83-.66-3.66-1.35-5.48-2.06-1-.39-1.49-1.51-1.1-2.51.39-.99,1.51-1.49,2.51-1.1,1.79.7,3.58,1.37,5.39,2.03,1.01.36,1.52,1.47,1.16,2.48-.28.79-1.03,1.28-1.82,1.28ZM829.93,794.1c-.27,0-.55-.06-.81-.18-1.77-.81-3.54-1.65-5.29-2.51-.96-.47-1.36-1.63-.89-2.59.47-.96,1.63-1.35,2.59-.89,1.72.84,3.46,1.67,5.2,2.47.97.45,1.4,1.59.95,2.57-.33.71-1.03,1.13-1.76,1.13ZM812.69,785.32c-.32,0-.65-.08-.95-.25-1.7-.96-3.39-1.93-5.07-2.93-.92-.55-1.22-1.73-.68-2.65.54-.92,1.73-1.22,2.65-.68,1.65.98,3.31,1.94,4.99,2.88.93.52,1.26,1.7.74,2.64-.36.63-1.01.99-1.69.99ZM796.21,775.18c-.37,0-.75-.11-1.08-.33-1.62-1.09-3.22-2.2-4.81-3.32-.87-.62-1.08-1.83-.46-2.7.62-.87,1.82-1.08,2.7-.46,1.57,1.11,3.15,2.2,4.74,3.27.89.6,1.12,1.8.52,2.69-.37.55-.99.85-1.61.85ZM780.61,763.74c-.42,0-.85-.14-1.21-.42-1.52-1.22-3.04-2.45-4.53-3.7-.82-.68-.93-1.9-.24-2.72.69-.82,1.9-.93,2.72-.24,1.47,1.23,2.96,2.44,4.46,3.64.84.67.97,1.88.31,2.72-.38.48-.94.73-1.51.73ZM765.97,751.1c-.47,0-.95-.17-1.32-.52-1.42-1.33-2.83-2.68-4.22-4.05-.76-.75-.77-1.97-.02-2.74.75-.76,1.97-.77,2.74-.02,1.37,1.34,2.76,2.67,4.16,3.99.78.73.82,1.95.09,2.74-.38.41-.9.61-1.41.61ZM752.39,737.32c-.53,0-1.05-.21-1.43-.63-1.31-1.44-2.61-2.9-3.88-4.38-.7-.81-.61-2.03.2-2.73.81-.7,2.03-.61,2.73.2,1.25,1.45,2.53,2.89,3.82,4.31.72.79.66,2.02-.13,2.73-.37.34-.84.5-1.3.5ZM739.98,722.49c-.58,0-1.15-.26-1.54-.76-1.19-1.55-2.36-3.11-3.51-4.68-.63-.86-.44-2.07.42-2.7.86-.63,2.07-.44,2.7.42,1.13,1.55,2.28,3.09,3.45,4.61.65.85.49,2.06-.36,2.71-.35.27-.77.4-1.18.4ZM728.85,706.67c-.64,0-1.26-.31-1.63-.89-1.05-1.64-2.09-3.3-3.1-4.97-.55-.91-.26-2.1.65-2.66.91-.55,2.11-.26,2.66.65.99,1.64,2.01,3.27,3.05,4.88.58.9.32,2.1-.58,2.67-.32.21-.69.31-1.04.31ZM719.11,689.96c-.7,0-1.37-.38-1.71-1.03-.91-1.73-1.79-3.47-2.66-5.22-.47-.96-.08-2.12.88-2.59.96-.48,2.12-.08,2.59.88.85,1.72,1.72,3.43,2.61,5.13.5.95.13,2.12-.81,2.61-.29.15-.59.22-.9.22ZM710.88,672.45c-.76,0-1.48-.45-1.79-1.19-.65-1.57-1.29-3.14-1.9-4.73l-.28-.72c-.38-1,.12-2.12,1.11-2.5.99-.38,2.12.11,2.5,1.11l.27.7c.6,1.55,1.23,3.1,1.87,4.64.41.99-.05,2.12-1.04,2.53-.24.1-.5.15-.74.15ZM704.25,654.28c-.82,0-1.59-.53-1.85-1.36-.58-1.86-1.15-3.73-1.68-5.61-.29-1.03.3-2.1,1.33-2.39,1.03-.29,2.1.3,2.39,1.33.53,1.84,1.07,3.68,1.65,5.51.32,1.02-.25,2.11-1.27,2.43-.19.06-.39.09-.58.09ZM699.28,635.58c-.89,0-1.69-.62-1.89-1.52-.42-1.91-.81-3.82-1.18-5.74-.2-1.05.48-2.06,1.53-2.27,1.06-.2,2.07.49,2.27,1.53.36,1.88.75,3.76,1.16,5.63.23,1.04-.43,2.08-1.47,2.31-.14.03-.28.05-.42.05ZM695.94,616.53c-.96,0-1.79-.71-1.92-1.68-.25-1.93-.48-3.87-.69-5.81-.11-1.06.66-2.02,1.72-2.13,1.06-.09,2.02.66,2.13,1.72.2,1.91.43,3.81.68,5.71.14,1.06-.61,2.03-1.67,2.17-.09.01-.17.02-.26.02ZM694.23,597.26c-1.03,0-1.88-.81-1.93-1.84-.09-1.95-.16-3.9-.2-5.85-.02-1.07.82-1.95,1.89-1.98.02,0,.03,0,.04,0,1.05,0,1.91.84,1.93,1.89.04,1.92.11,3.84.2,5.75.05,1.07-.77,1.97-1.84,2.02-.03,0-.06,0-.09,0ZM694.11,577.92s-.05,0-.07,0c-1.07-.04-1.9-.93-1.87-2,.07-1.95.16-3.9.27-5.85.06-1.07.97-1.91,2.04-1.82,1.07.06,1.88.98,1.82,2.04-.11,1.92-.2,3.83-.27,5.75-.04,1.05-.9,1.87-1.93,1.87ZM695.55,558.62c-.07,0-.15,0-.22-.01-1.06-.12-1.82-1.08-1.7-2.14.22-1.94.47-3.87.74-5.8.15-1.06,1.13-1.81,2.18-1.65,1.06.15,1.8,1.13,1.65,2.18-.26,1.9-.51,3.81-.73,5.71-.11.99-.95,1.71-1.92,1.71ZM698.54,539.51c-.12,0-.25-.01-.38-.04-1.05-.21-1.73-1.23-1.52-2.27.38-1.91.78-3.82,1.2-5.72.23-1.04,1.26-1.7,2.31-1.47,1.04.23,1.7,1.27,1.47,2.31-.42,1.87-.81,3.75-1.18,5.64-.18.92-.99,1.56-1.9,1.56ZM703.04,520.7c-.17,0-.35-.02-.53-.07-1.03-.29-1.63-1.36-1.34-2.39.53-1.88,1.08-3.75,1.66-5.61.31-1.02,1.4-1.6,2.42-1.28,1.02.31,1.59,1.4,1.28,2.42-.57,1.83-1.11,3.68-1.63,5.52-.24.85-1.02,1.41-1.86,1.41ZM709.03,502.31c-.22,0-.45-.04-.67-.12-1-.37-1.51-1.49-1.14-2.49.68-1.83,1.38-3.65,2.1-5.46.4-.99,1.52-1.47,2.52-1.08.99.4,1.48,1.52,1.08,2.52-.71,1.78-1.4,3.57-2.07,5.37-.29.78-1.03,1.26-1.81,1.26ZM716.51,484.46c-.27,0-.55-.06-.82-.18-.97-.45-1.39-1.61-.93-2.57.83-1.77,1.68-3.52,2.55-5.27.48-.96,1.64-1.35,2.6-.87.96.48,1.34,1.64.87,2.6-.86,1.72-1.69,3.44-2.51,5.18-.33.7-1.03,1.11-1.75,1.11ZM725.44,467.31c-.33,0-.66-.08-.96-.26-.93-.53-1.24-1.72-.71-2.64.97-1.69,1.97-3.37,2.99-5.03.56-.91,1.75-1.2,2.66-.64.91.56,1.2,1.75.64,2.66-1,1.64-1.98,3.29-2.93,4.95-.36.62-1.01.97-1.68.97ZM735.8,450.98c-.38,0-.77-.11-1.11-.35-.88-.61-1.09-1.82-.48-2.69,1.12-1.6,2.25-3.19,3.41-4.76.63-.86,1.84-1.04,2.7-.41.86.63,1.04,1.85.41,2.71-1.14,1.54-2.26,3.1-3.35,4.68-.38.54-.98.83-1.59.83ZM747.56,435.62c-.44,0-.88-.15-1.24-.45-.82-.69-.93-1.91-.24-2.73,1.26-1.5,2.53-2.97,3.83-4.44.71-.8,1.93-.87,2.73-.16.8.71.87,1.93.16,2.73-1.27,1.44-2.53,2.89-3.76,4.36-.38.46-.93.69-1.48.69Z"/><path class="cls-30" d="M1215.85,642.27c-1.02,0-1.88-.8-1.93-1.83l-.05-.98c-.05-1.07.77-1.97,1.84-2.02,1.06-.02,1.97.77,2.02,1.84l.05.96c.06,1.07-.76,1.98-1.83,2.03-.03,0-.07,0-.1,0ZM1215.6,627.76h-.03c-1.07-.02-1.92-.9-1.9-1.97.03-1.95.09-3.9.18-5.85.05-1.07.99-1.88,2.02-1.85,1.07.05,1.9.95,1.85,2.02-.08,1.92-.14,3.83-.18,5.75-.02,1.06-.88,1.9-1.93,1.9ZM1216.8,608.46c-.07,0-.14,0-.21-.01-1.06-.11-1.83-1.07-1.72-2.13.21-1.94.44-3.88.7-5.81.14-1.06,1.13-1.8,2.18-1.66,1.06.14,1.8,1.12,1.66,2.17-.26,1.9-.48,3.81-.69,5.71-.11.99-.95,1.73-1.92,1.73ZM1219.7,589.33c-.12,0-.25-.01-.38-.04-1.05-.21-1.73-1.22-1.52-2.27.38-1.91.78-3.82,1.21-5.73.23-1.04,1.27-1.69,2.31-1.46,1.04.23,1.7,1.27,1.46,2.31-.42,1.87-.81,3.75-1.19,5.63-.18.92-.99,1.56-1.9,1.56ZM1224.26,570.54c-.18,0-.36-.03-.54-.08-1.03-.3-1.62-1.37-1.32-2.4.54-1.88,1.11-3.74,1.7-5.6.32-1.02,1.41-1.59,2.43-1.26,1.02.32,1.58,1.41,1.26,2.43-.58,1.83-1.14,3.66-1.67,5.51-.24.85-1.02,1.4-1.86,1.4ZM1230.42,552.2c-.23,0-.47-.04-.69-.13-1-.38-1.49-1.5-1.11-2.5.7-1.82,1.42-3.63,2.17-5.44.41-.99,1.54-1.45,2.53-1.05.99.41,1.46,1.54,1.05,2.53-.73,1.77-1.45,3.55-2.13,5.34-.3.77-1.03,1.24-1.81,1.24ZM1238.13,534.46c-.28,0-.57-.06-.85-.19-.96-.47-1.36-1.63-.89-2.59.85-1.76,1.73-3.5,2.63-5.23.49-.95,1.66-1.32,2.61-.83.95.49,1.32,1.66.83,2.61-.88,1.7-1.74,3.42-2.58,5.14-.34.69-1.02,1.09-1.74,1.09ZM1247.33,517.44c-.34,0-.68-.09-.99-.27-.92-.55-1.22-1.74-.67-2.65,1-1.68,2.03-3.34,3.07-4.98.57-.9,1.77-1.17,2.67-.6.9.57,1.17,1.77.6,2.67-1.03,1.62-2.03,3.25-3.02,4.9-.36.61-1,.94-1.66.94ZM1257.97,501.29c-.39,0-.79-.12-1.13-.37-.86-.63-1.06-1.84-.43-2.7,1.15-1.58,2.31-3.15,3.5-4.69.65-.85,1.87-1.01,2.71-.36.85.65,1.01,1.86.36,2.71-1.17,1.52-2.31,3.06-3.44,4.62-.38.52-.97.8-1.57.8ZM1270.01,486.15c-.45,0-.9-.16-1.27-.48-.81-.7-.89-1.92-.19-2.73,1.28-1.47,2.59-2.93,3.91-4.36.72-.79,1.95-.84,2.73-.11.79.72.84,1.95.11,2.73-1.3,1.41-2.58,2.84-3.84,4.29-.38.44-.92.66-1.46.66ZM1283.38,472.16c-.51,0-1.02-.2-1.4-.6-.74-.77-.71-2,.06-2.74,1.41-1.35,2.84-2.68,4.29-3.99.79-.72,2.02-.65,2.73.14.72.79.65,2.02-.14,2.73-1.42,1.28-2.83,2.59-4.21,3.91-.37.36-.86.54-1.34.54ZM1297.96,459.46c-.57,0-1.13-.25-1.52-.73-.66-.84-.52-2.05.31-2.72,1.53-1.21,3.07-2.41,4.64-3.58.86-.64,2.07-.47,2.71.39.64.86.47,2.07-.39,2.71-1.53,1.15-3.05,2.32-4.55,3.52-.36.28-.78.42-1.2.42ZM1313.64,448.13c-.63,0-1.25-.31-1.62-.87-.59-.89-.34-2.09.55-2.68,1.63-1.07,3.27-2.12,4.93-3.16.91-.57,2.1-.29,2.67.62.56.91.29,2.1-.62,2.67-1.63,1.01-3.25,2.04-4.85,3.1-.33.22-.7.32-1.06.32ZM1330.25,438.21c-.69,0-1.35-.37-1.7-1.02-.51-.94-.16-2.11.78-2.62,1.72-.93,3.45-1.83,5.19-2.71.96-.48,2.12-.1,2.6.85.48.95.1,2.12-.85,2.6-1.71.87-3.41,1.76-5.1,2.67-.29.16-.61.23-.92.23ZM1347.65,429.76c-.75,0-1.46-.44-1.78-1.17-.43-.98.03-2.12,1.01-2.54,1.79-.78,3.59-1.53,5.4-2.26.99-.4,2.12.08,2.52,1.07.4.99-.08,2.12-1.07,2.52-1.78.72-3.55,1.46-5.31,2.22-.25.11-.51.16-.77.16ZM1365.71,422.84c-.81,0-1.56-.51-1.83-1.32-.34-1.01.21-2.11,1.22-2.45,1.85-.62,3.71-1.22,5.58-1.79,1.02-.31,2.1.26,2.42,1.28.31,1.02-.26,2.1-1.28,2.42-1.83.56-3.66,1.15-5.48,1.76-.2.07-.41.1-.61.1ZM1384.3,417.49c-.87,0-1.66-.59-1.88-1.48-.25-1.04.39-2.08,1.43-2.34,1.9-.46,3.8-.89,5.71-1.3,1.04-.22,2.07.44,2.3,1.49.22,1.05-.44,2.07-1.49,2.3-1.88.4-3.75.83-5.61,1.28-.15.04-.31.05-.46.05ZM1403.28,413.76c-.94,0-1.76-.69-1.91-1.64-.16-1.06.57-2.04,1.62-2.2,1.93-.29,3.86-.56,5.8-.8,1.06-.14,2.03.62,2.16,1.68.13,1.06-.62,2.03-1.68,2.16-1.9.24-3.8.5-5.7.79-.1.02-.2.02-.29.02ZM1422.51,411.71c-1.01,0-1.87-.79-1.93-1.82-.07-1.07.75-1.99,1.81-2.05,1.95-.12,3.9-.21,5.85-.28,1.06-.05,1.96.8,2,1.87.04,1.07-.8,1.96-1.87,2-1.92.07-3.83.16-5.75.28-.04,0-.08,0-.12,0ZM1447.66,411.65s-.07,0-.11,0c-1.91-.11-3.83-.19-5.75-.25-1.07-.03-1.91-.92-1.88-1.99.03-1.07.93-1.93,1.99-1.88,1.95.06,3.9.14,5.85.25,1.07.06,1.88.98,1.82,2.04-.06,1.03-.91,1.82-1.93,1.82Z"/><path class="cls-30" d="M1289.54,1389.23c-.06,0-.11,0-.17,0-1.94-.17-3.95-.47-5.97-.9-1.05-.22-1.71-1.25-1.49-2.29.22-1.05,1.25-1.72,2.29-1.49,1.86.39,3.72.67,5.5.83,1.06.09,1.85,1.03,1.76,2.1-.09,1.01-.93,1.77-1.93,1.77ZM1302.96,1388.09c-.85,0-1.62-.56-1.86-1.41-.29-1.03.31-2.1,1.34-2.39,1.75-.49,3.47-1.15,5.1-1.94.96-.47,2.12-.07,2.59.89.47.96.07,2.12-.89,2.59-1.84.89-3.77,1.63-5.74,2.18-.18.05-.35.07-.53.07ZM1270.98,1384.09c-.27,0-.54-.06-.8-.17-1.77-.8-3.56-1.69-5.33-2.65-.94-.51-1.29-1.68-.78-2.62.51-.94,1.68-1.28,2.62-.78,1.68.91,3.39,1.76,5.07,2.52.97.44,1.41,1.59.97,2.56-.32.72-1.03,1.14-1.76,1.14ZM1254.41,1374.16c-.4,0-.8-.12-1.15-.38-1.56-1.15-3.12-2.37-4.66-3.61-.83-.67-.96-1.89-.28-2.72.68-.83,1.89-.95,2.72-.28,1.49,1.21,3.01,2.39,4.52,3.5.86.64,1.04,1.85.4,2.71-.38.51-.96.78-1.56.78ZM1239.78,1361.53c-.5,0-.99-.19-1.37-.57-1.38-1.38-2.75-2.82-4.07-4.26-.72-.79-.67-2.01.12-2.73.79-.72,2.01-.66,2.73.12,1.29,1.41,2.6,2.79,3.95,4.14.75.76.75,1.98,0,2.74-.38.38-.87.57-1.37.57ZM1227.16,1346.89c-.59,0-1.17-.27-1.55-.78-1.17-1.57-2.31-3.17-3.41-4.8-.6-.88-.37-2.09.51-2.69.88-.6,2.09-.37,2.69.51,1.07,1.58,2.18,3.13,3.31,4.66.64.86.46,2.07-.4,2.71-.35.26-.75.38-1.15.38ZM1216.77,1330.59c-.69,0-1.35-.37-1.7-1.01-.93-1.73-1.83-3.48-2.69-5.24-.47-.96-.07-2.12.9-2.59.96-.47,2.12-.07,2.59.9.83,1.71,1.7,3.41,2.61,5.09.51.94.16,2.11-.78,2.62-.29.16-.61.23-.92.23ZM1208.83,1312.96c-.79,0-1.53-.49-1.82-1.27-.67-1.83-1.3-3.71-1.89-5.58-.32-1.02.25-2.11,1.27-2.43,1.02-.32,2.11.25,2.43,1.27.57,1.81,1.19,3.64,1.84,5.42.37,1-.15,2.11-1.16,2.48-.22.08-.44.12-.66.12ZM1203.6,1294.35c-.9,0-1.71-.63-1.9-1.55-.38-1.91-.73-3.86-1.03-5.8-.16-1.06.56-2.04,1.62-2.21,1.05-.16,2.04.56,2.21,1.62.29,1.88.63,3.78,1,5.63.21,1.05-.47,2.07-1.52,2.28-.13.03-.26.04-.38.04ZM1201.23,1275.16c-1.03,0-1.88-.81-1.93-1.84-.09-1.95-.15-3.93-.15-5.89,0-1.07.86-1.94,1.93-1.94,1.01-.03,1.94.86,1.94,1.93,0,1.91.06,3.81.15,5.72.05,1.07-.77,1.97-1.84,2.03-.03,0-.06,0-.1,0ZM1201.7,1255.83c-.06,0-.13,0-.19,0-1.06-.1-1.84-1.05-1.74-2.11.19-1.95.42-3.9.7-5.85.15-1.06,1.14-1.79,2.19-1.64,1.06.15,1.79,1.13,1.64,2.19-.27,1.89-.49,3.78-.68,5.68-.1,1-.94,1.75-1.92,1.75ZM1204.95,1236.77c-.15,0-.31-.02-.46-.06-1.04-.26-1.67-1.3-1.42-2.34.47-1.91.98-3.8,1.53-5.69.3-1.03,1.37-1.62,2.4-1.32,1.03.3,1.61,1.37,1.32,2.4-.53,1.83-1.03,3.67-1.49,5.53-.22.88-1.01,1.47-1.88,1.47ZM1210.91,1218.39c-.24,0-.49-.05-.73-.14-.99-.4-1.47-1.53-1.06-2.52.74-1.83,1.53-3.65,2.34-5.41.45-.97,1.6-1.39,2.57-.95.97.45,1.39,1.6.95,2.57-.79,1.71-1.55,3.47-2.27,5.24-.31.75-1.03,1.21-1.79,1.21Z"/></g></svg>