<?xml version="1.0" encoding="UTF-8"?>
<svg id="Livello_1" data-name="Livello 1" xmlns="http://www.w3.org/2000/svg" viewBox="0 0 201.46 344.62">
  <defs>
    <style>
      .cls-1 {
        fill: #fff;
      }

      .cls-2 {
        stroke-width: 1.03px;
      }

      .cls-2, .cls-3, .cls-4, .cls-5 {
        fill: #012638;
      }

      .cls-2, .cls-4, .cls-5 {
        stroke: #fff;
      }

      .cls-2, .cls-4, .cls-5, .cls-6 {
        stroke-miterlimit: 10;
      }

      .cls-4 {
        stroke-width: 1px;
      }

      .cls-5 {
        stroke-width: 1.46px;
      }

      .cls-7, .cls-6 {
        fill: #ae8f49;
      }

      .cls-6 {
        stroke: #ae8f49;
        stroke-width: 12px;
      }

      .cls-8 {
        fill: #c89b40;
      }
    </style>
  </defs>
  <g>
    <g>
      <g>
        <g>
          <path class="cls-3" d="M100.73,243.81l-3.79-2.05c-44.05-23.86-70.34-64.8-70.34-109.51v-50.64h148.25v50.64c0,44.72-26.3,85.66-70.34,109.51l-3.79,2.05ZM42.5,97.5v34.74c0,37.51,21.68,72.15,58.23,93.41,36.55-21.27,58.23-55.9,58.23-93.41v-34.74H42.5Z"/>
          <path class="cls-7" d="M100.73,238.64l-1.62-.88c-42.56-23.05-67.96-62.5-67.96-105.52v-46.1h139.17v46.1c0,43.02-25.41,82.47-67.96,105.52l-1.62.88ZM37.96,92.96v39.28c0,39.93,23.43,76.68,62.77,98.64,39.34-21.95,62.77-58.7,62.77-98.64v-39.28H37.96Z"/>
          <path class="cls-3" d="M34.55,89.55v42.69c0,41.53,24.96,80.2,66.18,102.53h0c41.22-22.33,66.18-60.99,66.18-102.53v-42.69H34.55Z"/>
        </g>
        <g>
          <line class="cls-6" x1="64.9" y1="210.98" x2="102.2" y2="173.68"/>
          <line class="cls-6" x1="136.56" y1="210.99" x2="99.26" y2="173.69"/>
        </g>
      </g>
      <g>
        <path class="cls-8" d="M53.94,74.08c.05.81,1.48,2.5,1.48,3.13v2.51h90.78v-2.73c0-.56,1.38-2.1,1.43-2.91H53.94Z"/>
        <path class="cls-8" d="M147.15,20.77l-18.82,17.9,11.66,10.78c-12.08.98-19.26-12.66-10.54-21.37L100.89,0l-28.56,28.8.04-.79c8.79,8.87,1.26,22.64-10.91,21.45l11.59-11.16-18.42-18-18.74,18.37c9.33,9.4,15.37,21.47,17.38,33.49h94.97c2.04-11.95,7.7-24.53,17.33-33.28l-18.42-18.1ZM54.64,45.41l-6.81-6.81,6.81-6.81,6.81,6.81-6.81,6.81ZM101.02,39.03l-10.52-10.52,10.52-10.52,10.52,10.52-10.52,10.52ZM147.02,45.41l-6.81-6.81,6.81-6.81,6.81,6.81-6.81,6.81Z"/>
      </g>
    </g>
    <g>
      <path class="cls-1" d="M94.49,134.31c7.04,1.27,12,4.63,12,10.99,0,4.16-2.61,8.04-6.44,10.19-3.42,1.88-7.78,2.82-12.74,2.82h-18.77v-2.48c5.16-.54,5.7-.87,5.7-6.5v-25.54c0-5.63-.87-6.23-5.63-6.57v-2.48h20.38c5.09,0,8.31.67,10.99,2.35,2.48,1.61,4.09,4.16,4.09,7.44,0,5.56-5.23,8.92-9.59,9.79ZM85.98,133.44c6.37,0,8.71-2.75,8.71-7.71,0-5.83-3.82-8.04-7.51-8.04-1.61,0-2.61.2-3.15.54-.74.47-.67,1.07-.67,2.48v12.74h2.61ZM83.36,149.2c0,4.83,2.21,6.3,5.83,6.23,3.69-.07,7.31-3.28,7.31-9.52s-3.28-9.59-10.79-9.59h-2.35v12.87Z"/>
      <path class="cls-1" d="M111.52,158.31v-2.48c5.09-.47,5.7-.87,5.7-6.5v-25.54c0-5.63-.67-6.17-5.7-6.57v-2.48h20.71v2.48c-5.03.47-5.7.94-5.7,6.57v25.54c0,5.56.6,5.97,5.7,6.5v2.48h-20.71Z"/>
    </g>
  </g>
  <g>
    <g>
      <path class="cls-5" d="M19.19,271.19c5.83.92,10.31,3.78,10.31,9.01,0,3.94-2,6.64-4.8,8.26s-6.75,2.27-10.85,2.27H.73v-.86c3.83-.7,4.32-1.13,4.32-5.78v-22.02c0-4.7-.54-4.8-4.32-5.56v-.86h15.11c4.48,0,6.8.65,8.74,1.94,1.89,1.29,2.97,3.24,2.97,5.72,0,4.91-4.53,7.07-8.37,7.88ZM14.01,270.97c4.86,0,6.64-2.05,6.64-6.53,0-5.61-2.86-7.5-5.99-7.5-.92,0-1.94.11-2.37.49-.49.38-.54,1.19-.54,2.64v10.9h2.27ZM11.74,284.41c0,3.72,1.46,4.97,4.48,4.97,3.35,0,5.83-2.97,5.83-8.74,0-5.4-2.1-8.37-8.15-8.37h-2.16v12.14Z"/>
      <path class="cls-5" d="M66.19,291.1h-2.43c-6.48-.27-8.2-1.51-10.04-4.37-1.89-2.91-3.56-5.94-5.29-9.28-1.19-2.27-2-2.91-3.83-2.91h-.81v9.5c0,4.53.32,4.97,4.32,5.83v.86h-15.22v-.86c3.99-.86,4.32-1.19,4.32-5.83v-21.75c0-4.53-.32-5.13-4.32-5.78v-.86h14.52c4.43,0,7.12.49,9.34,2.05,2.05,1.4,3.24,3.62,3.24,6.37,0,5.45-4.16,7.88-6.85,9.01.81,1.46,3.67,6.42,5.18,8.85,2.05,3.29,2.75,4.37,3.94,5.77,1.24,1.46,2,1.94,4.1,2.64l-.16.76ZM44.87,273.29c2.59,0,4.48-.22,5.77-1.46,1.51-1.4,2.16-3.29,2.16-6.42,0-6.26-3.13-8.53-6.21-8.53-1.13,0-1.89.11-2.21.38-.38.27-.59.65-.59,1.73v14.3h1.08Z"/>
      <path class="cls-5" d="M67.16,290.72v-.86c4.05-.7,4.32-1.08,4.32-6.1v-21.21c0-5.02-.38-5.45-4.32-6.04v-.86h15.38v.86c-3.94.7-4.37.97-4.37,6.04v21.16c0,5.18.32,5.45,4.37,6.15v.86h-15.38Z"/>
      <path class="cls-5" d="M115.62,263.63c-.65-2.1-1.03-3.62-2.37-5.13-.92-1.03-1.56-1.29-4.32-1.29h-4.42v26.88c0,4.64.54,5.07,4.75,5.78v.86h-15.98v-.86c3.94-.86,4.53-1.03,4.53-5.78v-26.88h-4.91c-2.32,0-2.97.59-3.72,1.4-.92,1.03-1.78,3.02-2.43,5.13h-.92c.27-2.91.54-6.53.65-9.28h.76c.92,1.19,1.78,1.19,3.29,1.19h21.64c1.4,0,2.21-.16,3.29-1.19h.7c0,2.43.05,6.31.32,9.07l-.86.11Z"/>
      <path class="cls-5" d="M119.35,290.72v-.86c4.05-.7,4.32-1.08,4.32-6.1v-21.21c0-5.02-.38-5.45-4.32-6.04v-.86h15.38v.86c-3.94.7-4.37.97-4.37,6.04v21.16c0,5.18.32,5.45,4.37,6.15v.86h-15.38Z"/>
      <path class="cls-5" d="M158.04,263.31c-1.13-4.48-3.72-7.18-7.88-7.18-3.24,0-5.07,2.21-5.07,5.67s1.89,5.02,6.53,7.77c4.64,2.75,8.8,5.67,8.8,11.33,0,6.21-5.23,10.63-12.41,10.63-2.64,0-5.18-.54-8.15-1.3-.32-1.03-1.13-7.39-1.19-8.26l.86-.16c1.19,4.7,4.37,8.47,9.34,8.47,3.72,0,5.34-2.54,5.34-6.15,0-3.4-2-5.83-5.83-8.15-4.86-2.97-8.8-5.72-8.8-11.23s4.37-9.88,11.55-9.88c3.29,0,5.72.65,6.85.7.22,2,.54,4.97.92,7.56l-.86.16Z"/>
      <path class="cls-5" d="M200.73,256.51c-3.99.59-4.37.97-4.37,5.72v21.91c0,4.64.38,5.02,4.37,5.72v.86h-15.38v-.86c4.05-.59,4.32-1.03,4.32-5.72v-11.5h-14.9v11.5c0,4.75.43,5.07,4.37,5.72v.86h-15.38v-.86c3.94-.54,4.32-.92,4.32-5.72v-21.91c0-4.75-.49-5.07-4.32-5.72v-.86h15.38v.86c-3.89.65-4.37.97-4.37,5.72v8.69h14.9v-8.69c0-4.7-.54-5.07-4.32-5.72v-.86h15.38v.86Z"/>
    </g>
    <g>
      <path class="cls-4" d="M.73,322.58v-.59c2.78-.48,2.97-.74,2.97-4.19v-14.57c0-3.45-.26-3.75-2.97-4.15v-.59h10.57v.59c-2.71.48-3,.67-3,4.15v14.54c0,3.56.22,3.75,3,4.23v.59H.73Z"/>
      <path class="cls-4" d="M38.66,299.07c-2.45.52-3,.93-3.08,3.45-.04,1.15-.11,2.08-.11,5.93v14.65h-.93l-16.65-20.02v9.49c0,3.45.04,4.52.11,5.75.15,2.52.37,3.19,3.82,3.67v.59h-8.57v-.59c2.78-.41,3.08-.96,3.23-3.56.07-1.33.19-2.78.19-5.86v-9.72c0-.78-.22-1.48-.59-1.97-.96-1.3-1.63-1.56-3.26-1.82v-.59h7.08l14.39,16.8v-6.82c0-3.86-.11-4.82-.15-5.86-.11-2.6-.96-3.11-4.19-3.52v-.59h8.71v.59Z"/>
      <path class="cls-4" d="M53.6,303.75c-.78-3.08-2.56-4.93-5.41-4.93-2.22,0-3.49,1.52-3.49,3.89s1.3,3.45,4.49,5.34c3.19,1.89,6.04,3.89,6.04,7.79,0,4.26-3.6,7.3-8.53,7.3-1.82,0-3.56-.37-5.6-.89-.22-.7-.78-5.08-.82-5.67l.59-.11c.82,3.23,3,5.82,6.41,5.82,2.56,0,3.67-1.74,3.67-4.23,0-2.34-1.37-4-4-5.6-3.34-2.04-6.04-3.93-6.04-7.71s3-6.79,7.94-6.79c2.26,0,3.93.45,4.71.48.15,1.37.37,3.41.63,5.19l-.59.11Z"/>
      <path class="cls-4" d="M77.22,303.97c-.45-1.45-.7-2.48-1.63-3.52-.63-.7-1.08-.89-2.97-.89h-3.04v18.47c0,3.19.37,3.49,3.26,3.97v.59h-10.98v-.59c2.71-.59,3.11-.7,3.11-3.97v-18.47h-3.37c-1.59,0-2.04.41-2.56.96-.63.7-1.22,2.08-1.67,3.52h-.63c.19-2,.37-4.49.44-6.38h.52c.63.82,1.22.82,2.26.82h14.87c.96,0,1.52-.11,2.26-.82h.48c0,1.67.04,4.34.22,6.23l-.59.07Z"/>
      <path class="cls-4" d="M79.78,322.58v-.59c2.78-.48,2.97-.74,2.97-4.19v-14.57c0-3.45-.26-3.75-2.97-4.15v-.59h10.57v.59c-2.71.48-3,.67-3,4.15v14.54c0,3.56.22,3.75,3,4.23v.59h-10.57Z"/>
      <path class="cls-4" d="M113.08,303.97c-.45-1.45-.7-2.48-1.63-3.52-.63-.7-1.08-.89-2.97-.89h-3.04v18.47c0,3.19.37,3.49,3.26,3.97v.59h-10.98v-.59c2.71-.59,3.11-.7,3.11-3.97v-18.47h-3.37c-1.59,0-2.04.41-2.56.96-.63.7-1.22,2.08-1.67,3.52h-.63c.19-2,.37-4.49.44-6.38h.52c.63.82,1.22.82,2.26.82h14.87c.96,0,1.52-.11,2.26-.82h.48c0,1.67.04,4.34.22,6.23l-.59.07Z"/>
      <path class="cls-4" d="M139.7,299.07c-2.93.33-2.93,1.37-3.04,2.89-.07,1.11-.15,2.48-.15,5.23v4.38c0,3.89-.33,6.82-2.37,9.05-1.59,1.71-3.82,2.52-6.79,2.52-2.41,0-4.75-.52-6.53-2-1.97-1.63-2.71-3.93-2.71-7.75v-9.64c0-3.82-.22-4.23-3-4.67v-.59h10.57v.59c-2.86.52-2.97.85-2.97,4.67v10.09c0,4.86,2.34,7.23,6.41,7.23,4.45,0,6.16-2.34,6.16-9.38v-4.49c0-2.74-.07-4.23-.19-5.38-.15-1.82-.59-2.48-3.86-2.74v-.59h8.45v.59Z"/>
      <path class="cls-4" d="M161.87,303.97c-.45-1.45-.7-2.48-1.63-3.52-.63-.7-1.08-.89-2.97-.89h-3.04v18.47c0,3.19.37,3.49,3.26,3.97v.59h-10.98v-.59c2.71-.59,3.11-.7,3.11-3.97v-18.47h-3.37c-1.59,0-2.04.41-2.56.96-.63.7-1.22,2.08-1.67,3.52h-.63c.19-2,.37-4.49.45-6.38h.52c.63.82,1.22.82,2.26.82h14.87c.96,0,1.52-.11,2.26-.82h.48c0,1.67.04,4.34.22,6.23l-.59.07Z"/>
      <path class="cls-4" d="M183.12,316.76c-.19,1.3-.85,4.93-1.08,5.82h-18.1v-.59c3.19-.45,3.45-.63,3.45-3.93v-15.05c0-3.34-.19-3.63-2.82-3.93v-.59h11.24c3.63,0,5.08-.04,5.38-.07.04,1.41.19,3.78.37,5.38l-.59.11c-.3-.93-.78-2.3-1.59-3.26-.67-.82-1.48-1.04-3.67-1.04h-2.78c-.78,0-.93.15-.93.89v8.86h3.6c2.93,0,3.04-.82,3.56-3.11h.59v7.34h-.59c-.52-2.19-.63-3.11-3.56-3.11h-3.6v7.9c0,2.6.56,3.08,2.86,3.11h2.19c2.19,0,2.71-.3,3.63-1.3.67-.74,1.26-2,1.89-3.52l.56.11Z"/>
      <path class="cls-4" d="M199.1,303.75c-.78-3.08-2.56-4.93-5.41-4.93-2.23,0-3.49,1.52-3.49,3.89s1.3,3.45,4.49,5.34c3.19,1.89,6.04,3.89,6.04,7.79,0,4.26-3.6,7.3-8.53,7.3-1.82,0-3.56-.37-5.6-.89-.22-.7-.78-5.08-.82-5.67l.59-.11c.82,3.23,3,5.82,6.41,5.82,2.56,0,3.67-1.74,3.67-4.23,0-2.34-1.37-4-4-5.6-3.34-2.04-6.04-3.93-6.04-7.71s3-6.79,7.94-6.79c2.26,0,3.93.45,4.71.48.15,1.37.37,3.41.63,5.19l-.59.11Z"/>
    </g>
    <g>
      <path class="cls-2" d="M2.4,331.02v12.87H.73v-12.87h1.67Z"/>
      <path class="cls-2" d="M5.29,343.89v-12.87h1.83l4.12,6.5c.94,1.51,1.69,2.86,2.3,4.19l.04-.02c-.15-1.72-.18-3.29-.18-5.28v-5.39h1.57v12.87h-1.69l-4.09-6.52c-.89-1.44-1.75-2.91-2.39-4.31l-.06.02c.1,1.63.12,3.18.12,5.31v5.5h-1.57Z"/>
      <path class="cls-2" d="M20.31,332.42h-3.92v-1.4h9.53v1.4h-3.94v11.47h-1.67v-11.47Z"/>
      <path class="cls-2" d="M34.01,337.86h-4.99v4.65h5.58v1.38h-7.25v-12.87h6.96v1.38h-5.29v4.08h4.99v1.38Z"/>
      <path class="cls-2" d="M36.74,331.2c.84-.17,2.05-.28,3.2-.28,1.76,0,2.93.34,3.73,1.06.64.56,1.01,1.44,1.01,2.45,0,1.69-1.08,2.81-2.43,3.28v.05c.98.34,1.57,1.27,1.89,2.61.42,1.8.73,3.03.99,3.53h-1.72c-.2-.37-.49-1.47-.85-3.08-.38-1.76-1.08-2.45-2.58-2.5h-1.57v5.58h-1.66v-12.69ZM38.4,337.05h1.7c1.78,0,2.91-.97,2.91-2.44,0-1.67-1.21-2.4-2.96-2.4-.81,0-1.36.07-1.65.15v4.7Z"/>
      <path class="cls-2" d="M47.01,343.89v-12.87h1.83l4.12,6.5c.94,1.51,1.69,2.86,2.3,4.19l.04-.02c-.15-1.72-.18-3.29-.18-5.28v-5.39h1.57v12.87h-1.69l-4.09-6.52c-.89-1.44-1.75-2.91-2.39-4.31l-.06.02c.1,1.63.12,3.18.12,5.31v5.5h-1.57Z"/>
      <path class="cls-2" d="M61.66,339.84l-1.33,4.05h-1.72l4.38-12.87h2l4.4,12.87h-1.78l-1.38-4.05h-4.56ZM65.89,338.55l-1.27-3.7c-.28-.84-.47-1.61-.66-2.35h-.04c-.18.75-.39,1.54-.64,2.33l-1.27,3.73h3.89Z"/>
      <path class="cls-2" d="M72.25,332.42h-3.92v-1.4h9.53v1.4h-3.94v11.47h-1.67v-11.47Z"/>
      <path class="cls-2" d="M80.95,331.02v12.87h-1.67v-12.87h1.67Z"/>
      <path class="cls-2" d="M94.85,337.33c0,4.42-2.69,6.77-5.97,6.77s-5.78-2.64-5.78-6.53,2.52-6.76,5.96-6.76,5.8,2.69,5.8,6.52ZM84.85,337.53c0,2.75,1.5,5.22,4.12,5.22s4.12-2.42,4.12-5.35c0-2.56-1.34-5.24-4.1-5.24s-4.14,2.55-4.14,5.37Z"/>
      <path class="cls-2" d="M97,343.89v-12.87h1.83l4.12,6.5c.94,1.51,1.69,2.86,2.3,4.19l.04-.02c-.15-1.72-.18-3.29-.18-5.28v-5.39h1.57v12.87h-1.69l-4.09-6.52c-.89-1.44-1.75-2.91-2.39-4.31l-.06.02c.1,1.63.12,3.18.12,5.31v5.5h-1.57Z"/>
      <path class="cls-2" d="M111.65,339.84l-1.33,4.05h-1.72l4.38-12.87h2l4.4,12.87h-1.78l-1.38-4.05h-4.56ZM115.88,338.55l-1.27-3.7c-.28-.84-.47-1.61-.66-2.35h-.05c-.18.75-.39,1.54-.64,2.33l-1.27,3.73h3.89Z"/>
      <path class="cls-2" d="M121.25,331.02h1.67v11.47h5.5v1.4h-7.17v-12.87Z"/>
      <path class="cls-2" d="M134.09,341.86c.74.47,1.83.83,2.97.83,1.7,0,2.7-.89,2.7-2.19,0-1.19-.7-1.9-2.43-2.55-2.1-.75-3.4-1.85-3.4-3.65,0-2,1.67-3.49,4.17-3.49,1.31,0,2.28.3,2.84.62l-.46,1.36c-.41-.24-1.27-.61-2.43-.61-1.77,0-2.44,1.05-2.44,1.92,0,1.19.78,1.78,2.56,2.47,2.18.86,3.28,1.9,3.28,3.79s-1.45,3.71-4.5,3.71c-1.24,0-2.6-.38-3.29-.84l.44-1.39Z"/>
      <path class="cls-2" d="M152.72,343.48c-.6.3-1.83.61-3.4.61-3.63,0-6.34-2.29-6.34-6.52s2.72-6.75,6.72-6.75c1.59,0,2.62.34,3.05.57l-.41,1.35c-.63-.3-1.52-.53-2.59-.53-3.02,0-5.02,1.93-5.02,5.31,0,3.15,1.81,5.16,4.93,5.16,1.02,0,2.05-.21,2.73-.53l.33,1.33Z"/>
      <path class="cls-2" d="M156.47,331.02v5.39h6.22v-5.39h1.67v12.87h-1.67v-6.04h-6.22v6.04h-1.67v-12.87h1.67Z"/>
      <path class="cls-2" d="M178.25,337.33c0,4.42-2.69,6.77-5.97,6.77s-5.78-2.64-5.78-6.53,2.52-6.76,5.96-6.76,5.8,2.69,5.8,6.52ZM168.25,337.53c0,2.75,1.5,5.22,4.12,5.22s4.12-2.42,4.12-5.35c0-2.56-1.34-5.24-4.1-5.24s-4.14,2.55-4.14,5.37Z"/>
      <path class="cls-2" d="M191.41,337.33c0,4.42-2.69,6.77-5.97,6.77s-5.78-2.64-5.78-6.53,2.52-6.76,5.96-6.76,5.8,2.69,5.8,6.52ZM181.41,337.53c0,2.75,1.5,5.22,4.12,5.22s4.12-2.42,4.12-5.35c0-2.56-1.34-5.24-4.1-5.24s-4.14,2.55-4.14,5.37Z"/>
      <path class="cls-2" d="M193.56,331.02h1.67v11.47h5.5v1.4h-7.17v-12.87Z"/>
    </g>
  </g>
</svg>