<?xml version="1.0" encoding="UTF-8"?><svg id="Illustration" xmlns="http://www.w3.org/2000/svg" xmlns:xlink="http://www.w3.org/1999/xlink" viewBox="0 0 400 266.67"><defs><style>.cls-1{fill:url(#linear-gradient-61);}.cls-2{fill:url(#linear-gradient-15);}.cls-3{fill:url(#linear-gradient-13);}.cls-4{fill:url(#linear-gradient-28);}.cls-5{fill:url(#linear-gradient-65);}.cls-6{fill:url(#linear-gradient-69);}.cls-7{fill:url(#linear-gradient-53);}.cls-8{fill:url(#linear-gradient-42);}.cls-9{fill:url(#linear-gradient-46);}.cls-10{fill:url(#linear-gradient-70);}.cls-11{fill:url(#linear-gradient-60);}.cls-12{fill:url(#linear-gradient-93);}.cls-13{fill:url(#linear-gradient-95);}.cls-14{fill:url(#linear-gradient-2);}.cls-15{fill:url(#linear-gradient-87);}.cls-16{fill:url(#linear-gradient-64);}.cls-17{fill:url(#linear-gradient-56);}.cls-18{fill:url(#linear-gradient-43);}.cls-19{fill:url(#linear-gradient-25);}.cls-20{fill:url(#linear-gradient-82);}.cls-21{fill:#ae2326;}.cls-22{fill:url(#linear-gradient-10);}.cls-23{fill:url(#linear-gradient-12);}.cls-24{fill:url(#linear-gradient-40);}.cls-25{fill:url(#linear-gradient-27);}.cls-26{fill:url(#linear-gradient-68);}.cls-27{fill:url(#linear-gradient-37);}.cls-28{fill:url(#linear-gradient-75);}.cls-29{fill:#dce5fe;}.cls-30{fill:url(#linear-gradient-55);}.cls-31{fill:#fff;}.cls-32{fill:url(#linear-gradient-39);}.cls-33{fill:url(#linear-gradient-89);}.cls-34{fill:url(#linear-gradient-52);}.cls-35{fill:url(#linear-gradient-58);}.cls-36{fill:#000e40;}.cls-37{fill:url(#linear-gradient-47);}.cls-38{fill:url(#linear-gradient-26);}.cls-39{fill:url(#linear-gradient-74);}.cls-40{fill:url(#linear-gradient-72);}.cls-41{fill:url(#linear-gradient-4);}.cls-42{fill:url(#linear-gradient-35);}.cls-43{fill:url(#linear-gradient-30);}.cls-44{fill:url(#linear-gradient-76);}.cls-45{fill:url(#linear-gradient-73);}.cls-46{fill:url(#linear-gradient-71);}.cls-47{fill:url(#linear-gradient-44);}.cls-48{fill:url(#linear-gradient-49);}.cls-49{fill:url(#linear-gradient-3);}.cls-50{fill:url(#linear-gradient-34);}.cls-51{fill:url(#linear-gradient-5);}.cls-52{fill:url(#linear-gradient-38);}.cls-53{fill:url(#linear-gradient-91);}.cls-54{fill:url(#linear-gradient-22);}.cls-55{fill:url(#linear-gradient-24);}.cls-56{fill:url(#linear-gradient-94);}.cls-57{fill:url(#linear-gradient-54);}.cls-58{fill:url(#linear-gradient-92);}.cls-59{fill:url(#linear-gradient-90);}.cls-60{fill:url(#linear-gradient-33);}.cls-61{fill:url(#linear-gradient-79);}.cls-62{fill:url(#linear-gradient-78);}.cls-63{fill:url(#linear-gradient-51);}.cls-64{fill:url(#linear-gradient-8);}.cls-65{fill:url(#linear-gradient-66);}.cls-66{fill:url(#linear-gradient-57);}.cls-67{fill:url(#linear-gradient-77);}.cls-68{fill:url(#linear-gradient-96);opacity:.34;}.cls-69{fill:url(#linear-gradient-88);}.cls-70{fill:url(#linear-gradient-14);}.cls-71{fill:url(#linear-gradient-62);}.cls-72{fill:url(#linear-gradient-29);}.cls-73{fill:url(#linear-gradient-20);}.cls-74{fill:url(#linear-gradient-67);}.cls-75{fill:url(#linear-gradient-17);}.cls-76{fill:url(#linear-gradient-50);}.cls-77{fill:url(#linear-gradient-7);}.cls-78{fill:url(#linear-gradient-9);}.cls-79{fill:url(#linear-gradient-59);}.cls-80{fill:url(#linear-gradient-11);}.cls-81{fill:url(#linear-gradient-19);}.cls-82{fill:url(#linear-gradient-80);}.cls-83{fill:url(#linear-gradient-6);}.cls-84{fill:url(#linear-gradient-83);}.cls-85{fill:#7d97f4;}.cls-86{fill:#91b3fa;}.cls-87{fill:url(#linear-gradient-36);}.cls-88{fill:url(#linear-gradient-21);}.cls-89{fill:url(#linear-gradient-45);}.cls-90{fill:url(#linear-gradient-85);}.cls-91{fill:url(#linear-gradient-81);}.cls-92{fill:url(#linear-gradient-84);}.cls-93{fill:url(#linear-gradient-48);}.cls-94{fill:url(#linear-gradient-32);}.cls-95{fill:url(#linear-gradient-86);}.cls-96{fill:url(#linear-gradient-41);}.cls-97{opacity:.32;}.cls-98{fill:url(#linear-gradient-16);}.cls-99{fill:#bdd0fb;}.cls-100{fill:url(#linear-gradient);}.cls-101{fill:url(#linear-gradient-23);}.cls-102{fill:url(#linear-gradient-31);}.cls-103{fill:url(#linear-gradient-63);}.cls-104{fill:url(#linear-gradient-18);}</style><linearGradient id="linear-gradient" x1="34.88" y1="130.54" x2="367.44" y2="130.54" gradientUnits="userSpaceOnUse"><stop offset="0" stop-color="#dae3fe"/><stop offset="1" stop-color="#e9effd"/></linearGradient><linearGradient id="linear-gradient-2" x1="194.41" y1="27.13" x2="189.56" y2="226.85" gradientUnits="userSpaceOnUse"><stop offset="0" stop-color="#09005d"/><stop offset="1" stop-color="#1a0f91"/></linearGradient><linearGradient id="linear-gradient-3" x1="193.74" y1="96.85" x2="189.87" y2="271.36" gradientUnits="userSpaceOnUse"><stop offset="0" stop-color="#4042e2"/><stop offset="1" stop-color="#4f52ff"/></linearGradient><linearGradient id="linear-gradient-4" x1="191.45" y1="124.26" x2="194.36" y2="222.19" xlink:href="#linear-gradient-2"/><linearGradient id="linear-gradient-5" x1="-1597.9" y1="-13.82" x2="-1587.06" y2="-13.82" gradientTransform="translate(-1280.88 41.22) rotate(-179.46) scale(1 -1)" xlink:href="#linear-gradient-3"/><linearGradient id="linear-gradient-6" x1="-1598.02" y1="-11.87" x2="-1587.07" y2="-11.87" gradientTransform="translate(-1280.88 41.22) rotate(-179.46) scale(1 -1)" xlink:href="#linear-gradient-2"/><linearGradient id="linear-gradient-7" x1="-1589.92" y1="-11.65" x2="-1587.06" y2="7.92" gradientTransform="translate(-1280.88 41.22) rotate(-179.46) scale(1 -1)" gradientUnits="userSpaceOnUse"><stop offset="0" stop-color="#ff928e"/><stop offset="1" stop-color="#feb3b1"/></linearGradient><linearGradient id="linear-gradient-8" x1="-1615.65" y1="-4.78" x2="-1602.73" y2="-4.78" gradientTransform="translate(-1280.88 41.22) rotate(-179.46) scale(1 -1)" xlink:href="#linear-gradient-2"/><linearGradient id="linear-gradient-9" x1="-1616.2" y1="-5.26" x2="-1603.63" y2="-5.26" gradientTransform="translate(-1280.88 41.22) rotate(-179.46) scale(1 -1)" xlink:href="#linear-gradient-3"/><linearGradient id="linear-gradient-10" x1="-1604.33" y1="-9.54" x2="-1601.47" y2="10.03" xlink:href="#linear-gradient-7"/><linearGradient id="linear-gradient-11" x1="307.05" y1="65.3" x2="314" y2="34.43" xlink:href="#linear-gradient-3"/><linearGradient id="linear-gradient-12" x1="-1592.04" y1="-8.59" x2="-1575.78" y2="23.18" gradientTransform="translate(-1280.88 41.22) rotate(-179.46) scale(1 -1)" xlink:href="#linear-gradient-3"/><linearGradient id="linear-gradient-13" x1="-1540.85" y1="-16.36" x2="-1567.3" y2="86.28" gradientTransform="translate(-1280.88 41.22) rotate(-179.46) scale(1 -1)" gradientUnits="userSpaceOnUse"><stop offset="0" stop-color="#fe7062"/><stop offset="1" stop-color="#ff928e"/></linearGradient><linearGradient id="linear-gradient-14" x1="259.11" y1="51.41" x2="268.49" y2="64.17" gradientTransform="matrix(1,0,0,1,0,0)" xlink:href="#linear-gradient-7"/><linearGradient id="linear-gradient-15" x1="-1520.95" y1="12.35" x2="-1541.33" y2="29.28" xlink:href="#linear-gradient-7"/><linearGradient id="linear-gradient-16" x1="-1515.54" y1="-407.39" x2="-1518.45" y2="-392.04" gradientTransform="translate(-1298.43 463.44) rotate(-179.45) scale(1.02 -1.15)" xlink:href="#linear-gradient-7"/><linearGradient id="linear-gradient-17" x1="-1523.54" y1="-385.7" x2="-1521.02" y2="-371.32" gradientTransform="translate(-1298.43 463.44) rotate(-179.45) scale(1.02 -1.15)" xlink:href="#linear-gradient-2"/><linearGradient id="linear-gradient-18" x1="-1518.78" y1="-408.01" x2="-1521.69" y2="-392.65" gradientTransform="translate(-1298.43 463.44) rotate(-179.45) scale(1.02 -1.15)" xlink:href="#linear-gradient-7"/><linearGradient id="linear-gradient-19" x1="275.13" y1="45.99" x2="268.02" y2="61.02" gradientTransform="matrix(1,0,0,1,0,0)" xlink:href="#linear-gradient-13"/><linearGradient id="linear-gradient-20" x1="-1766.15" y1="105.91" x2="-1734.31" y2="91.37" gradientTransform="translate(-1280.88 41.22) rotate(-179.46) scale(1 -1)" gradientUnits="userSpaceOnUse"><stop offset="0" stop-color="#e1473d"/><stop offset="1" stop-color="#e9605a"/></linearGradient><linearGradient id="linear-gradient-21" x1="-1764.46" y1="109.6" x2="-1732.63" y2="95.05" xlink:href="#linear-gradient-20"/><linearGradient id="linear-gradient-22" x1="-1525.31" y1="7.1" x2="-1545.69" y2="24.03" xlink:href="#linear-gradient-7"/><linearGradient id="linear-gradient-23" x1="248.37" y1="56.13" x2="243.19" y2="69.54" xlink:href="#linear-gradient-2"/><linearGradient id="linear-gradient-24" x1="-7595.1" y1="-147.16" x2="-7598.71" y2="-141.72" gradientTransform="translate(7830.13 491.47) rotate(2.13)" xlink:href="#linear-gradient-3"/><linearGradient id="linear-gradient-25" x1="-1521.73" y1="10.14" x2="-1518.59" y2="10.14" xlink:href="#linear-gradient-7"/><linearGradient id="linear-gradient-26" x1="97.71" y1="216.17" x2="108.7" y2="196.13" gradientTransform="matrix(1,0,0,1,0,0)" xlink:href="#linear-gradient-7"/><linearGradient id="linear-gradient-27" x1="-2128.19" y1="234.54" x2="-2130.21" y2="265.47" gradientTransform="translate(-2037.17) rotate(-180) scale(1 -1)" xlink:href="#linear-gradient-3"/><linearGradient id="linear-gradient-28" x1="99.28" y1="240.26" x2="102.84" y2="220.39" gradientTransform="matrix(1,0,0,1,0,0)" xlink:href="#linear-gradient-7"/><linearGradient id="linear-gradient-29" x1="-2124.75" y1="234.97" x2="-2119.55" y2="215.8" gradientTransform="translate(-2037.17) rotate(-180) scale(1 -1)" xlink:href="#linear-gradient-13"/><linearGradient id="linear-gradient-30" x1="-2147.66" y1="233.27" x2="-2149.68" y2="264.2" gradientTransform="translate(-2037.17) rotate(-180) scale(1 -1)" xlink:href="#linear-gradient-3"/><linearGradient id="linear-gradient-31" x1="-2120.55" y1="184.6" x2="-2105.18" y2="218.06" gradientTransform="translate(-2037.17) rotate(-180) scale(1 -1)" xlink:href="#linear-gradient-13"/><linearGradient id="linear-gradient-32" x1="-2120.18" y1="186.82" x2="-2121.63" y2="177.53" gradientTransform="translate(-2037.17) rotate(-180) scale(1 -1)" xlink:href="#linear-gradient-7"/><linearGradient id="linear-gradient-33" x1="-3451.94" y1="-1315.12" x2="-3450.81" y2="-1300.9" gradientTransform="translate(-3263.82 -1067.36) rotate(-143.2) scale(1 -1)" xlink:href="#linear-gradient-7"/><linearGradient id="linear-gradient-34" x1="-3717.08" y1="-770.8" x2="-3732.27" y2="-758.04" gradientTransform="translate(-3263.82 -1067.36) rotate(-143.2) scale(1 -1)" xlink:href="#linear-gradient-2"/><linearGradient id="linear-gradient-35" x1="-3447.87" y1="-1315.45" x2="-3446.74" y2="-1301.22" gradientTransform="translate(-3263.82 -1067.36) rotate(-143.2) scale(1 -1)" xlink:href="#linear-gradient-7"/><linearGradient id="linear-gradient-36" x1="82.77" y1="188.71" x2="76.47" y2="208.59" gradientTransform="matrix(1,0,0,1,0,0)" xlink:href="#linear-gradient-7"/><linearGradient id="linear-gradient-37" x1="-3497.55" y1="-439.58" x2="-3512.74" y2="-426.81" gradientTransform="translate(-3058.91 -761.93) rotate(-151.17) scale(1 -1)" xlink:href="#linear-gradient-2"/><linearGradient id="linear-gradient-38" x1="-2167.02" y1="232.21" x2="-2184.14" y2="236.9" gradientTransform="translate(-2078.76 -138.88) rotate(-177.17) scale(1 -1)" xlink:href="#linear-gradient-2"/><linearGradient id="linear-gradient-39" x1="-2134.52" y1="189.05" x2="-2146.66" y2="201.88" gradientTransform="translate(-2037.17) rotate(-180) scale(1 -1)" xlink:href="#linear-gradient-2"/><linearGradient id="linear-gradient-40" x1="-2141.86" y1="192.24" x2="-2147.37" y2="200.54" gradientTransform="translate(-2037.17) rotate(-180) scale(1 -1)" xlink:href="#linear-gradient-3"/><linearGradient id="linear-gradient-41" x1="48.09" y1="207.55" x2="138.61" y2="207.55" xlink:href="#linear-gradient"/><linearGradient id="linear-gradient-42" x1="-572.81" y1="194.39" x2="-595.57" y2="230.56" gradientTransform="translate(-261.59) rotate(-180) scale(1 -1)" xlink:href="#linear-gradient-2"/><linearGradient id="linear-gradient-43" x1="282.18" y1="221.01" x2="294.95" y2="221.01" gradientTransform="matrix(1,0,0,1,0,0)" xlink:href="#linear-gradient-13"/><linearGradient id="linear-gradient-44" x1="271.1" y1="243.76" x2="282.79" y2="243.76" gradientTransform="matrix(1,0,0,1,0,0)" xlink:href="#linear-gradient-13"/><linearGradient id="linear-gradient-45" x1="281.19" y1="223.38" x2="294.95" y2="223.38" gradientTransform="matrix(1,0,0,1,0,0)" xlink:href="#linear-gradient-7"/><linearGradient id="linear-gradient-46" x1="269.35" y1="246.29" x2="279.91" y2="246.29" gradientTransform="matrix(1,0,0,1,0,0)" xlink:href="#linear-gradient-7"/><linearGradient id="linear-gradient-47" x1="299.64" y1="200.02" x2="321.55" y2="200.02" gradientTransform="matrix(1,0,0,1,0,0)" xlink:href="#linear-gradient-7"/><linearGradient id="linear-gradient-48" x1="-589.87" y1="198.46" x2="-572.58" y2="259.13" gradientTransform="translate(-261.59) rotate(-180) scale(1 -1)" xlink:href="#linear-gradient-13"/><linearGradient id="linear-gradient-49" x1="-591.95" y1="186.52" x2="-590.7" y2="175.25" gradientTransform="translate(-261.59) rotate(-180) scale(1 -1)" xlink:href="#linear-gradient-7"/><linearGradient id="linear-gradient-50" x1="327.24" y1="160.85" x2="323.69" y2="178.3" gradientTransform="matrix(1,0,0,1,0,0)" xlink:href="#linear-gradient-20"/><linearGradient id="linear-gradient-51" x1="336.84" y1="162.8" x2="333.28" y2="180.26" gradientTransform="matrix(1,0,0,1,0,0)" xlink:href="#linear-gradient-20"/><linearGradient id="linear-gradient-52" x1="345.17" y1="164.5" x2="341.61" y2="181.95" gradientTransform="matrix(1,0,0,1,0,0)" xlink:href="#linear-gradient-20"/><linearGradient id="linear-gradient-53" x1="296.55" y1="194.3" x2="305.9" y2="194.3" xlink:href="#linear-gradient-2"/><linearGradient id="linear-gradient-54" x1="318.52" y1="215.98" x2="317.15" y2="203.63" gradientTransform="matrix(1,0,0,1,0,0)" xlink:href="#linear-gradient-7"/><linearGradient id="linear-gradient-55" x1="330.61" y1="170.89" x2="320.75" y2="177.2" gradientTransform="matrix(1,0,0,1,0,0)" xlink:href="#linear-gradient-7"/><linearGradient id="linear-gradient-56" x1="313.62" y1="182.67" x2="334.85" y2="165.19" gradientTransform="matrix(1,0,0,1,0,0)" xlink:href="#linear-gradient-20"/><linearGradient id="linear-gradient-57" x1="327.39" y1="180.16" x2="330.46" y2="170.77" gradientTransform="matrix(1,0,0,1,0,0)" xlink:href="#linear-gradient-7"/><linearGradient id="linear-gradient-58" x1="335.35" y1="-474.45" x2="328.27" y2="-457.34" gradientTransform="translate(-171.38 601.07) rotate(9.25)" xlink:href="#linear-gradient-2"/><linearGradient id="linear-gradient-59" x1="231.05" y1="203.02" x2="234.04" y2="293.63" gradientTransform="matrix(1,0,0,1,0,0)" xlink:href="#linear-gradient-13"/><linearGradient id="linear-gradient-60" x1="213.71" y1="211.46" x2="233.56" y2="259.41" gradientUnits="userSpaceOnUse"><stop offset="0" stop-color="#a22b25"/><stop offset="1" stop-color="#c0423c"/></linearGradient><linearGradient id="linear-gradient-61" x1="-7726.97" y1="211.36" x2="-7707.12" y2="259.3" gradientTransform="translate(-7478.07) rotate(-180) scale(1 -1)" xlink:href="#linear-gradient-60"/><linearGradient id="linear-gradient-62" x1="231.34" y1="217.69" x2="230.31" y2="259.35" xlink:href="#linear-gradient-2"/><linearGradient id="linear-gradient-63" x1="231.1" y1="222.86" x2="232.23" y2="196.91" xlink:href="#linear-gradient-3"/><linearGradient id="linear-gradient-64" x1="248.61" y1="211.33" x2="259.46" y2="211.33" gradientTransform="translate(-3.73 29.56) rotate(.44)" xlink:href="#linear-gradient-3"/><linearGradient id="linear-gradient-65" x1="250.41" y1="223.25" x2="238.96" y2="254.26" xlink:href="#linear-gradient-60"/><linearGradient id="linear-gradient-66" x1="-8380.89" y1="159.46" x2="-8370.04" y2="159.46" gradientTransform="translate(-8159.1 -84.29) rotate(-178.85) scale(1 -1)" xlink:href="#linear-gradient-3"/><linearGradient id="linear-gradient-67" x1="227.47" y1="213.9" x2="216.02" y2="244.93" xlink:href="#linear-gradient-60"/><linearGradient id="linear-gradient-68" x1="237.42" y1="231.96" x2="249.71" y2="202.11" xlink:href="#linear-gradient-3"/><linearGradient id="linear-gradient-69" x1="230.21" y1="219.87" x2="225.04" y2="239.37" xlink:href="#linear-gradient-3"/><linearGradient id="linear-gradient-70" x1="231.13" y1="215.42" x2="230.87" y2="192.44" gradientUnits="userSpaceOnUse"><stop offset="0" stop-color="#c4421b"/><stop offset="1" stop-color="#5c0e16"/></linearGradient><linearGradient id="linear-gradient-71" x1="332.46" y1="-457.81" x2="333.28" y2="-477.8" gradientTransform="translate(-171.38 601.07) rotate(9.25)" xlink:href="#linear-gradient-60"/><linearGradient id="linear-gradient-72" x1="334.91" y1="-474.64" x2="327.9" y2="-457.68" gradientTransform="translate(-171.38 601.07) rotate(9.25)" xlink:href="#linear-gradient-2"/><linearGradient id="linear-gradient-73" x1="251.34" y1="86.54" x2="252.63" y2="55.21" gradientTransform="translate(-22.25 110.66) rotate(1.75)" xlink:href="#linear-gradient-60"/><linearGradient id="linear-gradient-74" x1="136.31" y1="78.14" x2="119.18" y2="104.32" gradientTransform="matrix(1,0,0,1,0,0)" xlink:href="#linear-gradient-7"/><linearGradient id="linear-gradient-75" x1="-5585.15" y1="-4046.55" x2="-5587.14" y2="-4015.99" gradientTransform="translate(-6650.56 1254.1) rotate(-153.82) scale(1 -1)" xlink:href="#linear-gradient-2"/><linearGradient id="linear-gradient-76" x1="116.11" y1="57.4" x2="128.39" y2="92.64" gradientTransform="matrix(1,0,0,1,0,0)" xlink:href="#linear-gradient-7"/><linearGradient id="linear-gradient-77" x1="-4416" y1="-5609.3" x2="-4418" y2="-5578.74" gradientTransform="translate(-6786.51 1812.71) rotate(-142.14) scale(1 -1)" xlink:href="#linear-gradient-2"/><linearGradient id="linear-gradient-78" x1="95.82" y1="71.72" x2="129.74" y2="71.72" xlink:href="#linear-gradient-3"/><linearGradient id="linear-gradient-79" x1="96.93" y1="39.75" x2="117.02" y2="39.75" xlink:href="#linear-gradient-2"/><linearGradient id="linear-gradient-80" x1="12165.71" y1="43.77" x2="12104.5" y2="102.81" gradientTransform="translate(-12045.1)" xlink:href="#linear-gradient-13"/><linearGradient id="linear-gradient-81" x1="83.46" y1="74.55" x2="108.03" y2="63.56" gradientTransform="matrix(1,0,0,1,0,0)" xlink:href="#linear-gradient-7"/><linearGradient id="linear-gradient-82" x1="116.95" y1="33.7" x2="111.13" y2="49.21" gradientTransform="matrix(1,0,0,1,0,0)" xlink:href="#linear-gradient-7"/><linearGradient id="linear-gradient-83" x1="-9387.54" y1="-2710.66" x2="-9383.9" y2="-2694.66" gradientTransform="translate(-6897.18 -6489.89) rotate(-123.08) scale(1 -1)" xlink:href="#linear-gradient-7"/><linearGradient id="linear-gradient-84" x1="113.07" y1="32.56" x2="124.77" y2="32.56" xlink:href="#linear-gradient-2"/><linearGradient id="linear-gradient-85" x1="-9384.34" y1="-2711.39" x2="-9380.71" y2="-2695.39" gradientTransform="translate(-6897.18 -6489.89) rotate(-123.08) scale(1 -1)" xlink:href="#linear-gradient-7"/><linearGradient id="linear-gradient-86" x1="-7108.38" y1="-149.22" x2="-7121.91" y2="-145.52" gradientTransform="translate(-7001.23 -138.88) rotate(-177.17) scale(1 -1)" xlink:href="#linear-gradient-2"/><linearGradient id="linear-gradient-87" x1="4450.37" y1="61.05" x2="4572.06" y2="50.81" gradientTransform="translate(4591.47) rotate(-180) scale(1 -1)" xlink:href="#linear-gradient-2"/><linearGradient id="linear-gradient-88" x1="-7089.74" y1="57.01" x2="-7094.1" y2="63.57" gradientTransform="translate(-6959.64) rotate(-180) scale(1 -1)" xlink:href="#linear-gradient-3"/><linearGradient id="linear-gradient-89" x1="164.15" y1="207.83" x2="170.79" y2="207.83" gradientTransform="matrix(1,0,0,1,0,0)" xlink:href="#linear-gradient-13"/><linearGradient id="linear-gradient-90" x1="172.09" y1="225.87" x2="183.04" y2="225.87" gradientTransform="matrix(1,0,0,1,0,0)" xlink:href="#linear-gradient-20"/><linearGradient id="linear-gradient-91" x1="179.16" y1="207.31" x2="192.49" y2="162.47" gradientTransform="matrix(1,0,0,1,0,0)" xlink:href="#linear-gradient-20"/><linearGradient id="linear-gradient-92" x1="180.9" y1="207.83" x2="194.24" y2="162.98" gradientTransform="matrix(1,0,0,1,0,0)" xlink:href="#linear-gradient-20"/><linearGradient id="linear-gradient-93" x1="174.9" y1="190.21" x2="138.4" y2="249.8" gradientTransform="matrix(1,0,0,1,0,0)" xlink:href="#linear-gradient-13"/><linearGradient id="linear-gradient-94" x1="153.61" y1="190.42" x2="153.13" y2="201.41" gradientTransform="matrix(1,0,0,1,0,0)" xlink:href="#linear-gradient-20"/><linearGradient id="linear-gradient-95" x1="153.78" y1="190.43" x2="153.3" y2="201.42" gradientTransform="matrix(1,0,0,1,0,0)" xlink:href="#linear-gradient-20"/><linearGradient id="linear-gradient-96" x1="1428.3" y1="1189.79" x2="1439.01" y2="1189.79" gradientTransform="translate(-1585.24 -362.6) rotate(-25.51)" xlink:href="#linear-gradient"/></defs><rect class="cls-31" y="0" width="400" height="266.67"/><path class="cls-100" d="M358.03,141.35c-5.77-5.97-12.58-11.8-14.36-19.91-3.08-14.03,10.08-26,14.39-39.7,2.98-9.48,1.44-20.26-4.06-28.53-5.5-8.27-14.87-13.85-24.76-14.75-17.02-1.56-33.67,9.91-50.44,6.59-13.42-2.66-24.03-14.39-37.66-15.65-16.03-1.48-29.34,11.76-44.65,16.74-18.32,5.96-38.17-.27-56.18-7.11-18.01-6.84-36.95-14.46-55.93-11.19-21.13,3.64-38.84,22.05-41.67,43.31-2.8,21.06,20.69,37.97.69,63.26-6.25,7.9-10.4,18.91-7.64,28.6,2.68,9.41,14.1,15.37,14.19,25.16.07,7.73-7.22,13.88-7.81,21.58-.5,6.61,4.25,12.73,10.1,15.86,5.85,3.13,12.63,3.9,19.22,4.61,0,0,64.7,4.41,98.04,3.74,52.58-1.05,105.17-2.1,157.75-3.15,5.4-.11,10.94-.24,15.98-2.21,5.04-1.97,9.55-6.17,10.32-11.52,1.31-9.11-8.21-17.01-7.33-26.17,1.12-11.69,17.59-16.2,20.72-27.52,2.21-8-3.13-16.06-8.9-22.03Z"/><path class="cls-99" d="M25.97,132.64c.34,13.76,4.85,93.41,64.16,93.91,0,0,7.6-54.77-62.82-95.15-.62-.35-1.36.34-1.34,1.24Z"/><path class="cls-29" d="M33.06,142.48c1.3,3.88,2.76,7.72,4.27,11.53,1.52,3.81,3.12,7.59,4.81,11.32,1.69,3.74,3.46,7.44,5.32,11.09,1.87,3.65,3.83,7.25,5.9,10.79,2.05,3.55,4.27,7,6.57,10.38,2.3,3.39,4.79,6.64,7.42,9.77l.99,1.17c.33.39.66.78,1.01,1.15l2.08,2.25c1.44,1.44,2.87,2.9,4.41,4.23,3.05,2.7,6.31,5.15,9.85,7.14h0c.3.17.41.55.24.86-.17.3-.55.41-.85.24h0c-3.62-2.07-6.93-4.6-10.01-7.37-1.56-1.36-3-2.85-4.45-4.33l-2.09-2.29c-.35-.38-.68-.78-1.01-1.17l-1-1.18c-2.63-3.18-5.12-6.48-7.41-9.9-2.3-3.42-4.49-6.91-6.53-10.48-2.05-3.57-3.99-7.2-5.84-10.87-1.84-3.68-3.59-7.4-5.25-11.16-1.67-3.76-3.25-7.56-4.74-11.39-1.49-3.83-2.92-7.68-4.2-11.6-.05-.14.03-.29.17-.33.14-.05.29.03.33.17h0Z"/><path class="cls-99" d="M27.36,211.69c6.21-2.23,31.35-8.37,45.34,31.41,0,0-36.87-14.33-46.03-29.51-.43-.71-.09-1.62.69-1.9Z"/><path class="cls-86" d="M94.62,204.77S31.72,166.11,45.57,61.77c.23-1.74,2.4-2.41,3.57-1.11,10.94,12.13,48.16,59.81,45.48,144.11Z"/><path class="cls-29" d="M56.03,84.64c2.78,8.81,5.57,17.63,8.31,26.45,1.37,4.41,2.73,8.83,4.06,13.26l1.99,6.64,1.95,6.65,3.86,13.32,1.9,6.67,1.86,6.68c2.47,8.91,4.88,17.83,7.07,26.82.03.13-.05.25-.17.28-.12.03-.25-.04-.28-.16l-1.86-6.67-1.9-6.66c-1.28-4.44-2.54-8.88-3.84-13.32l-3.89-13.3-3.92-13.29-1.97-6.64-1.95-6.65c-1.32-4.43-2.6-8.87-3.89-13.3-2.58-8.87-5.16-17.75-7.79-26.61-.04-.13.04-.27.17-.31.13-.04.27.03.31.16Z"/><path class="cls-86" d="M280.98,199.69c8.81-23.01,46.67-121.52,62.18-155.52,1.63-3.56,6.74-3.39,8.13.26,10.13,26.5,30.14,106-67.52,157.72-1.62.86-3.44-.75-2.79-2.46Z"/><path class="cls-29" d="M284.48,200c-.16,0-.33-.06-.45-.19-.24-.25-.24-.64.01-.88,13.39-13.05,24.99-28.82,34.5-46.88,7.61-14.46,13.9-30.41,18.7-47.4,8.17-28.95,9.17-51.2,9.18-51.42.01-.35.31-.62.65-.6.35.01.61.31.6.65,0,.22-1.01,22.59-9.22,51.67-4.82,17.08-11.14,33.12-18.8,47.66-9.57,18.19-21.26,34.07-34.74,47.21-.12.12-.28.18-.44.18Z"/><path class="cls-99" d="M313.81,206.57c-1.45.56-3.01-.55-2.97-2.11.19-8.59,2.93-32.84,26.37-51.03,19.79-15.36,29.07-25.58,32.95-30.5.82-1.04,2.5-.43,2.45.9-.47,14.64-6.13,62.47-58.81,82.74Z"/><path class="cls-29" d="M312.58,205.03c-.09,0-.19-.02-.28-.07-.31-.15-.43-.53-.28-.84.17-.34,17.31-34.33,43.87-56.94.26-.22.66-.19.88.07.22.26.19.66-.07.88-26.36,22.44-43.39,56.21-43.56,56.54-.11.22-.33.35-.56.35Z"/><path class="cls-14" d="M320.03,226.97c0,2.5-2.05,4.55-4.56,4.55H69.14c-2.51,0-4.56-2.05-4.56-4.55l-2.05-141.56c0-2.5,2.95-7.39,8.35-7.02l240.75-6.23c3.14-.08,6.18,1.13,8.41,3.35,2.23,2.22,3.44,5.25,3.37,8.39l-3.38,143.07Z"/><path class="cls-49" d="M315.53,222.61c0,2.37-1.94,4.31-4.31,4.31H75.08c-2.37,0-4.31-1.94-4.31-4.31l-1.93-128.51c.23-7.73,7.01-10.51,11.12-10.35l230.73-6.19c2.21-.06,4.34.79,5.91,2.35s2.42,3.7,2.37,5.9l-3.43,136.79Z"/><path class="cls-86" d="M73.32,161.24c-.17,0-.31-.14-.31-.31l-.15-10.42c0-.17.14-.31.31-.32.16,0,.31.14.32.31l.15,10.42c0,.17-.14.31-.31.32h0Z"/><path class="cls-86" d="M72.94,135.7c-.17,0-.31-.14-.31-.31l-.59-39.92c.01-2.66.83-4.78,2.43-6.31,2.91-2.79,7.48-2.65,7.67-2.64l73.69-1.98c.17-.01.32.13.32.3,0,.17-.13.32-.3.32l-73.7,1.98c-.2,0-4.51-.14-7.24,2.47-1.47,1.41-2.23,3.38-2.24,5.85l.59,39.91c0,.17-.14.31-.31.32h0Z"/><g class="cls-97"><path class="cls-85" d="M81.17,215.48c.25-10.62.16-104.68-.45-112.8-.61-8.12,12.04-9.65,31.47-10.56,19.42-.91,183.31-4.53,187.53-4.88,9.48-.77,11.45,13.41,10.5,44.19-.71,23.12-1.89,61.21-2.44,78.73-.16,5.22-4.42,9.35-9.64,9.37-39.44.11-190.59.54-200.65.84-11.58.34-16.4-.67-16.31-4.89Z"/></g><rect class="cls-41" x="49.59" y="230.84" width="290.42" height="12.44" rx="1.21" ry="1.21"/><circle class="cls-86" cx="196.67" cy="153.11" r="53.35"/><path class="cls-51" d="M306.3,45.36c0-.1,0-.19,0-.27,0-.23.09-.44.26-.59,1-.88,4.73-3.89,9.97-4.79.28-.05.53.08.66.28-.44.05-1.02.15-1.81.35-2.59.65-6.37,2.43-9.08,5.02Z"/><path class="cls-83" d="M315.37,40.34c.79-.2,1.38-.31,1.81-.35.14.2.16.48,0,.73-.09.14-.19.29-.32.45-.83,1.02-7.51,7.75-7.51,7.75,0,0-2.1.24-2.74-.14-.21-.12-.29-2.31-.32-3.41,2.7-2.59,6.48-4.36,9.08-5.02Z"/><path class="cls-77" d="M306.48,52.41l.04-4.05c0-.34.22-.65.55-.75.5-.16,1.28-.3,1.98-.03.41.16.68.55.71.99l.27,3.78-3.55.05Z"/><path class="cls-64" d="M322.56,48.98c.05-.16.14-.29.27-.39.85.18,2.61.66,6.22,1.97,4.19,1.52,5.4,2.83,5.75,3.53-1.81.51-5.9,1.28-11.76.07l-1.15-.55s.11-2.83.67-4.63Z"/><path class="cls-78" d="M329.05,50.57c-3.61-1.31-5.38-1.8-6.22-1.97.19-.15.44-.22.69-.17,2.08.45,8.37,2,11.64,4.7.33.27.23.8-.18.92-.06.02-.12.03-.18.05-.35-.7-1.57-2-5.75-3.53Z"/><path class="cls-22" d="M319.69,56.04l2.5-2.94c.24-.29.64-.4.99-.28.39.13.92.41,1.42.96.23.26.28.64.11.95l-1.83,3.46-3.19-2.17Z"/><path class="cls-80" d="M310.58,51.04s-3.01-.61-4.69-.04c0,0-2.33,13.2-1.99,17.46l6.5,1.39s.33-14.9.18-18.8Z"/><path class="cls-23" d="M283.64,73.96s21.28,1.4,29.92.88c.85-.05,1.6-.54,1.99-1.3,1.89-3.69,7.55-14.76,8.04-15.82,0,0-2.24-1.91-3.9-2.18,0,0-7.97,8.7-8.34,13.17,0,0-18.21-5.43-20.01-5.39-1.8.03-7.36,2.45-7.36,2.45l-.34,8.19Z"/><path class="cls-3" d="M248.42,71.84c.3-2.5,4.91-4.89,4.91-4.89l1.47-3.15c1.02-3.5,3.16-6.56,6.09-8.73l2.04-1.51c2-1.49,5.18-.94,7.19.53,4.47,3.26,11.11,8.72,13.37,10.6.49.4,1.16.5,1.74.25l.38-.16c.36-.16.76.14.71.53l-1.05,8.85-15.47-.33c-1.85-.02-7.23-.26-8.07-1.91l-1.4-3.52c-3.38,2.82-7.7,4.74-10.01,5.29-1.06.25-2.05-.68-1.91-1.83Z"/><path class="cls-70" d="M259.5,48.77l4.71,4.67c.31.31.34.81.05,1.15-1.48,1.73-2.75,2.64-3.8,2.7-.44.03-.86-.21-1.1-.59l-2.49-4.01,2.62-3.91Z"/><polygon class="cls-2" points="249.69 71.44 245.61 69.81 240.82 73.55 249.34 73.66 249.69 71.44"/><path class="cls-98" d="M251.34,47.55s.61,5.26,2.38,6.89c1.77,1.63,5.26.45,6.47-3.5l-2.28-6.79-6.58,3.4Z"/><path class="cls-75" d="M258.14,48.53c-.14.05-.28-.05-.3-.21-.06-.49-.21-1.45-.53-2.1,0,0,.18-.69-1.54.34-1.72,1.02-4.31,2.53-5.81,1.6-1.47-.9-2.92-5.38.97-4.52.15.03.29-.1.28-.27-.04-.73.04-2.42,1.56-2.95,1.42-.49,2.19.24,2.51.68.09.13.27.13.36,0,.43-.62,1.6-1.94,3.28-1.08,1.39.71,1.6,1.68,1.57,2.29,0,.2.17.33.32.25.43-.22,1.12-.33,1.77.61.9,1.3-.41,2.41-.81,2.7-.06.05-.11.13-.11.21-.01.67-.13,3.6-1.44,5.24-.11.14-.32.1-.39-.08l-.97-2.7c-.05-.13-.17-.19-.28-.15l-.44.15Z"/><path class="cls-104" d="M258.11,49.08s.64-2.8,1.56-1.88c.92.92-.27,2.92-1.34,3.29l-.22-1.41Z"/><path class="cls-81" d="M264.94,59.33s-.13-5.65,2.19-5.74c2.88-.11,7.5,2.02,4.66,10.27-1.57,4.56-3.9,7.93-10.21,9.31-.28-2.32-1.32-3.95-2.09-4.86,2.59-1.78,4.79-4.58,5.45-8.98Z"/><path class="cls-73" d="M259.78,68.32s.09-.01.13-.04c2.98-2.06,4.65-4.89,5.25-8.92,0-.01,0-.03,0-.04-.03-1.51.25-5.44,1.98-5.51.83-.03,1.7.13,2.45.47.11.05.25,0,.3-.11.05-.11,0-.25-.11-.3-.81-.36-1.75-.54-2.65-.5-2.47.1-2.42,5.52-2.41,5.95-.59,3.89-2.2,6.62-5.06,8.6-.1.07-.13.21-.06.31.04.06.11.1.18.1Z"/><path class="cls-88" d="M263.59,72.85s.05,0,.07-.01c5.25-1.75,7.11-5.32,8.34-8.9.28-.81.5-1.6.64-2.33.02-.12-.05-.24-.18-.27-.12-.03-.24.05-.27.18-.14.71-.36,1.48-.63,2.27-1.19,3.48-3,6.93-8.06,8.62-.12.04-.18.17-.14.29.03.09.12.15.21.15Z"/><path class="cls-54" d="M248.51,73.63l.03-2.19s6.14.19,10.95-3.13c.77.92,1.8,2.54,2.09,4.86-3.2.7-7.41.88-13.07.45Z"/><path class="cls-101" d="M237.13,57.77l11.58.43c.85.03,1.61.55,1.95,1.34l3.72,8.71c.56,1.32-.44,2.78-1.88,2.73l-11.3-.42c-.55-.02-1.03-.38-1.22-.89l-3.76-10.66c-.22-.62.25-1.26.91-1.23Z"/><path class="cls-55" d="M245.07,63.89c.22.79,0,1.54-.48,1.68-.49.14-1.06-.39-1.28-1.18-.22-.79,0-1.54.48-1.68.49-.14,1.06.39,1.28,1.18Z"/><path class="cls-19" d="M237.62,65.22s1.33-1.71,2.43-1.77c1.1-.06.81,2.32-.04,4.09-.84,1.77-1.99-.59-2.39-2.32Z"/><rect class="cls-86" x="77.4" y="222.4" width="1.93" height="20.86"/><path class="cls-86" d="M69.92,243.66h16.89v-.72c0-.3-.24-.54-.54-.54h-15.82c-.3,0-.54.24-.54.54v.72Z"/><rect class="cls-86" x="67.41" y="217.72" width="21.24" height="6.02" rx="2.07" ry="2.07"/><path class="cls-38" d="M92.61,208.49s2.87.44,6.09,2.6c.51.34.79.93.71,1.54-.39,3.06-1.97,12.95-7.2,22.61-.28.51-.36,1.1-.23,1.67l.91,4.23,1.69,1.58h-4.34l-2.89-7.82,1.24-.39c.96-.3,1.62-1.18,1.63-2.19l.15-8.39c-.12-3.74,2.29-6.32,2.29-6.32l-6.93-.34,6.9-8.77Z"/><path class="cls-25" d="M96.26,243.48c.4.52-4.26,1.2-6.61.07,0,0-3.26-5.67-3.26-8.58,0,0,.26-.59,2.17-.46,0,0,1.09,6.71,2.25,7.46,1.15.75,3.23.08,3.23.08,0,0,1.63.68,2.21,1.44Z"/><path class="cls-4" d="M86.58,217.72c.04-.06,7.46-.89,7.46-.89,0,0-.24,2.26.52,5.37.76,3.11,11.67,16.58,11.67,16.58l-1.14,3.63c3.54,1.23,7.01,1.43,10.44.63l-7.09-4.25s-6.63-22.6-10.7-26.63l-7.45-2.58-3.71,8.16Z"/><path class="cls-72" d="M69.92,204.57s-4.28,6.37-4.63,9.27c-.35,2.9,1.17,4.08,5.66,4.28,4.49.19,16.48.19,16.48.19l10.23-8.74s-7.46-2.66-9.39-3.41c-1.94-.75-18.35-1.58-18.35-1.58Z"/><path class="cls-43" d="M105.51,241.18s-1.23,1.19-.4,2.52c0,0,9.75,1.73,12.4.94,0,0-.55-1.25-3.53-2.68l.22.17c.28.21.12.66-.24.64-1.96-.11-6.03-.47-8.45-1.59Z"/><path class="cls-102" d="M81.49,203.73s4.98-4.75,7.44-7.89c1.33-1.7,1.74-3.94,1.13-6-1.12-3.77-3.11-7.68-3.29-8.29-.28-.93-5.87-.89-5.87-.89,0,0-11,7.14-15.32,19.23l4.85,1.51s2.87-4.82,5.71-7.88c0,0-4.91,6.48-5.08,9.14l10.43,1.08Z"/><path class="cls-94" d="M87.44,176.34c-.06.19-1.52,5.03-1.63,5.13-.11.1-3.2.27-4.65-.73l2.46-5.16,3.82.75Z"/><path class="cls-60" d="M91.22,169.58s1.44,2.47.6,6.59c-.85,4.12-2.97,4.72-4.46,3.91-1.49-.81-3.48-2.35-4.13-5.91-.65-3.56,6.04-7.7,7.99-4.59Z"/><path class="cls-50" d="M85.88,173.62s1.74-5.65,5.74-2.74l.44,1.35s3.3-1.39,1.8-4.35c-1.5-2.96-5.83-4.57-9.25-2.12-3.41,2.45-4.37,4.96-3.83,7.76.54,2.79,2.53,1.57,2.53,1.57,0,0,.16-2.12,1.1-2.61.95-.49,1.12,1.08,1.12,1.08l.34.06Z"/><path class="cls-42" d="M85.06,173.78s.91-2.9-.84-2.79c-1.76.11-.71,2.77-.25,3.73l1.09-.95Z"/><path class="cls-87" d="M91.65,204.08l-3.66-3.53-5.07,2.14s-5.04.78-7.93,0l-2.89-.78-6.52-2.03-1.02,2.89c-.26.73,0,1.55.64,2,.56.4,1.23.84,1.65,1.03.86.38,21.17-.26,21.17-.26l3.63-1.46Z"/><path class="cls-27" d="M84.53,166.73c.87-.26,1.04-1.42.32-1.97-2.32-1.79-6.4-3.51-11.01,1.02-5.19,5.11-8.07,7.51-9.58,7.37-1-.09-1.66,1-1.06,1.79.44.59,1.24,1.15,2.6,1.55,10.47,3.09,13.65-8.22,18.74-9.76Z"/><path class="cls-52" d="M77.79,205.74s.03,0,.05,0l21.24-.02c.53,0,.95-.43.95-.95,0-.53-.43-.96-.95-.95l-21.24.02c-.53,0-.95.43-.95.95,0,.51.4.92.9.95Z"/><path class="cls-32" d="M118.17,186.46h-17.69c-1.3,0-2.49.75-3.05,1.93l-8.18,17.34h21.98c.84,0,1.6-.51,1.91-1.3l6.34-16.05c.37-.93-.32-1.93-1.31-1.93Z"/><path class="cls-24" d="M105.71,195.35c-.38,1.19-.1,2.35.63,2.58.73.24,1.64-.54,2.02-1.73.38-1.19.1-2.35-.63-2.58-.73-.24-1.64.54-2.02,1.73Z"/><path class="cls-86" d="M132.63,247.59c.1,0,.21-.02.31-.07.39-.17.58-.64.41-1.05l-16.31-38.8c-.17-.4-.63-.59-1.02-.42-.39.17-.58.64-.41,1.05l16.31,38.8c.13.3.41.48.71.48Z"/><path class="cls-86" d="M114.25,247.59c.3,0,.59-.18.71-.48l16.31-38.8c.17-.4-.01-.87-.41-1.05-.39-.17-.85.01-1.02.42l-16.31,38.8c-.17.4.01.87.41,1.05.1.04.2.07.31.07Z"/><path class="cls-86" d="M68.39,247.59c.1,0,.21-.02.31-.07.39-.17.58-.64.41-1.05l-16.31-38.8c-.17-.4-.63-.59-1.02-.42-.39.17-.58.64-.41,1.05l16.31,38.8c.13.3.41.48.71.48Z"/><path class="cls-86" d="M50.01,247.59c.3,0,.59-.18.71-.48l16.31-38.8c.17-.4-.01-.87-.41-1.05-.39-.17-.85.01-1.02.42l-16.31,38.8c-.17.4.01.87.41,1.05.1.04.2.07.31.07Z"/><path class="cls-96" d="M48.1,206.52c-.05-.24.02-.49.18-.68.17-.19.41-.3.68-.3h88.63c.34,0,.66.16.85.44.19.27.21.61.07.91l-.96,1.95c-.22.45-.7.73-1.22.73H49.57c-.49,0-.91-.32-1-.77l-.47-2.27Z"/><path class="cls-8" d="M354.56,179.97s8.59,4.76,9.3,12.81c.71,8.05.06,41.48-17.17,49.71-17.23,8.23-40.03,6.33-48.75,5.43-8.73-.9-13.57-6.83-14.65-10.92-1.08-4.08-2.83-19.3,6.35-24.2,9.18-4.91,18.82-12.43,28.46-19.75,9.64-7.32,26.15-19.27,36.45-13.09Z"/><path class="cls-18" d="M292.35,215.58s2.32.12,2.6,4.89c0,0-5.38,4.82-12.64,5.97-.55.09.76-3.72.96-4.24.94-2.45,3.88-4.03,9.08-6.62Z"/><path class="cls-86" d="M318.46,209.97h-2.33c-1.61,0-3.15-.65-4.27-1.81-3.85-3.98-13.49-13.34-21.1-15.92-1.24-.42-2.59.18-3.15,1.36-1.59,3.39-3.82,11.28,1.46,23.23.59,1.32,2.25,1.89,3.45,1.08.34-.23.59-.53.74-.91l-.58-13.96s12.81,11.2,15.04,13.37c2.23,2.16,13.54.84,10.74-6.44Z"/><path class="cls-47" d="M271.16,244.79c2.05-1.8,5.32-3.81,10.03-4.39l1.59.98s-1.02,1.5-2.87,3.08c-1.71.99-4.34,2.34-6.53,2.63-2.13.28-2.44-1-2.22-2.3Z"/><path class="cls-89" d="M283.27,222.2c1.26.41,1.82,2.2,5.02,1.01,3.1-1.14,5.41-2.62,6.59-3.47.03.23.05.47.06.73,0,0-5.67,5.39-12.93,6.54-.55.09-.98-.46-.78-.97.35-.93.99-2.33,2.03-3.84Z"/><path class="cls-9" d="M269.62,246.33c.4-.46.92-.99,1.54-1.53-.22,1.29.1,2.58,2.22,2.3,2.19-.29,4.82-1.63,6.53-2.63-2.14,1.83-5.4,3.76-9.51,3.65-.91-.03-1.39-1.1-.79-1.78Z"/><path class="cls-37" d="M316.69,194.99s-3.76,10.84-11.1,2.59l-.7-.31h0l-5.26-3.59.59,2.08c.32,1.15,1.16,2.09,2.26,2.54l.69.28c1.32,2.74,4.14,6.89,8.49,7.68,6.53,1.18,9.87-7.64,9.87-7.64l-4.85-3.64Z"/><path class="cls-86" d="M318.28,213.51l-22.91.25s-13.08,10.83-15.46,27.33c0,0-.39,1.21,1.97,1.42,0,0,7.91-5.17,13.07-14.3,6.32-11.2,18.85-6.16,18.85-6.16,4.12-2.97,9.93-3.57,14.32-4.56l-9.84-3.98Z"/><path class="cls-93" d="M316.42,213.31s2.8-7.62,3.41-15.03c0,0-2.05-1.76-3.33-2.52-.42-.25-.57-.77-.36-1.2.94-1.95,6.65-9.62,7.07-9.73,2.32-.58,11.84-5.11,18.55,4.07,2.88,3.94-.57,16.06-13.63,28.61l-2.69.52-9.01-4.7Z"/><path class="cls-48" d="M329.37,174.44l4.11,9.6c.08.26-.02.54-.24.7-.82.56-2.97,1.68-5.91.59-.34-.12-.57-.44-.6-.8l-.71-6.77,3.35-3.32Z"/><path class="cls-76" d="M319.83,198.43c-.09,0-.16-.07-.16-.16-.01-3.44,1.31-7.99,1.33-8.04.02-.08.11-.13.19-.11.08.02.13.11.11.19-.01.05-1.32,4.55-1.31,7.95,0,.09-.07.16-.16.16h0Z"/><path class="cls-63" d="M328.52,201.23s-.04,0-.06-.01c-.08-.03-.11-.13-.08-.21.02-.05,2.33-5.28,2.74-8.55.01-.09.09-.15.17-.14.09.01.15.09.14.17-.42,3.31-2.74,8.58-2.77,8.63-.03.06-.08.09-.14.09Z"/><path class="cls-34" d="M335.12,206.69l-.88-.74c-.07-.06-.07-.15-.02-.22.06-.07.15-.07.22-.02l.68.58c4.28-3.37,5.79-9.92,5.81-9.98.02-.08.1-.14.19-.12.08.02.14.1.12.19-.02.07-1.57,6.82-6.02,10.24l-.1.08Z"/><path class="cls-7" d="M297.02,190.91l-.37.51c-.18.25-.12.59.13.76l8.28,5.66c.22.15.51.12.7-.08h0c.22-.23.19-.6-.06-.79l-7.91-6.16c-.24-.19-.59-.14-.77.11Z"/><path class="cls-31" d="M303.06,207.68c-.41.03-.73.44-.72.93,0,1.61.29,4.96,2.43,5.61,2.67.81,5.7-.48,4.98-5.98-.08-.61-.53-1.06-1.04-1.01l-5.64.45Z"/><path class="cls-57" d="M308.46,212.36s13.86,0,20.9-10.94l4.14,3.78s-8.28,14.19-23.87,8.87c0,0-3.6.74-5.63.18-1.14-.32-1.76-1.33-2.08-2.17-.19-.48.28-.95.77-.79,1.44.49,3.99,1.25,5.77,1.06Z"/><path class="cls-31" d="M309.19,208.96s.84-2.27,2.28-.62c1.44,1.64-.9,2.91-2.28,3.09v-.6s1.61-.72,1.41-1.68c-.21-.96-1.41.24-1.41.24v-.42Z"/><path class="cls-31" d="M304.01,197.77c.53.18,1.03.45,1.45.84.41.38.72.9.81,1.47.05.28.04.57-.03.85-.07.28-.21.54-.38.76-.36.44-.83.74-1.25,1.06-.42.32-.81.71-.99,1.2-.09.24-.11.51-.03.76.07.25.24.46.44.63.41.34.94.5,1.41.77.24.14.46.29.64.5.18.2.3.47.31.74,0,0,0,0,0,0,0,0,0,0,0,0,0-.27-.13-.52-.32-.72-.18-.2-.41-.35-.64-.48-.47-.25-1.01-.4-1.44-.75-.22-.17-.4-.39-.49-.67-.09-.27-.07-.57.02-.83.19-.53.58-.95,1.01-1.29.42-.34.88-.64,1.19-1.06.32-.41.44-.94.34-1.44-.09-.51-.37-.96-.76-1.31-.38-.35-.86-.59-1.36-.74-.08-.03-.13-.11-.1-.2.03-.08.11-.13.2-.1,0,0,0,0,0,0Z"/><path class="cls-31" d="M307.05,202.13c-.27.55-.78.81-1.03,1.22-.13.2-.19.43-.13.64.06.21.24.4.44.54.39.29.98.44,1.29.96.29.52.06,1.23-.47,1.47-.04.02-.08,0-.1-.04-.02-.04,0-.08.04-.1.44-.21.62-.83.37-1.23-.12-.2-.33-.35-.55-.48-.22-.13-.47-.23-.7-.39-.22-.15-.45-.36-.55-.66-.1-.3-.01-.62.14-.86.3-.5.79-.77.97-1.21.03-.08.12-.12.2-.09.08.03.12.12.09.2,0,0,0,0,0,0Z"/><path class="cls-30" d="M318.66,171.98c0,.16,3.13,10.09,3.13,10.09l5.64-1.91-1.57-9.86s-7.09-.96-7.19,1.67Z"/><path class="cls-17" d="M324.32,172.13c.24.11.42.32.48.58l1.21,5.05c.02.08.03.15.02.23-.02.43-.19,1.81-1.61,1.56-1.21-.21-2.33-.39-3.11-.15-.45.14-.7.63-.56,1.08.3.93.94,2.8,1.73,4.38.2.4.67.57,1.08.4,1.08-.45,3.17-1.38,4.71-2.53.25-.19.38-.5.34-.81-.2-1.37-.75-5.23-.74-6.34.01-1.03,1.17-1.78,1.72-2.08.21-.11.36-.31.42-.54.18-.7.3-2.11-1.5-2.54-.45-.11-.72-.56-.63-1.01.17-.81.11-1.94-1.36-2.42-1.49-.49-2.5.32-3.05,1.01-.24.31-.67.44-1.03.28-.16-.07-.35-.07-.56.06-.39.26-.9.17-1.16-.22-.44-.67-1.24-1.32-2.63-.93-2.54.71-2.53,3.61-1.68,5.22.86,1.61,3.57.68,4.87-.31.96-.73,2.34-.26,3,.04Z"/><path class="cls-66" d="M328.32,177.45s-1.37-2.87-.36-3.71c1.02-.84,2.67-.63,2.54,1.56-.16,2.73-2.18,2.15-2.18,2.15Z"/><path class="cls-35" d="M227.49,189.35c-.05.1-1.58,1.17-1.58,1.17,0,0-1.06,5.86.89,8.75,1.95,2.89,8.6-2.25,8.6-2.25,0,0,3.74-.59,5.62-7.94.43-1.69-2.27-.41-5.27-.09-3.87.4-8.26.37-8.26.37Z"/><path class="cls-79" d="M221.19,205.96c1.18-.81,2.49-1.43,3.88-1.81.52-.14,3.34.68,5.08.64,2.39-.05,4.82-1.14,6.79-.65,1.96.49,3.56,1.12,4.48,1.78,2.77,1.97,4.39,5.64,5.38,9.27-1.87,1.92-4.23,2.78-4.23,2.78l-.44,17.66-10.44,5.34-11.92-5.99.43-17.26s-3.79-1.76-4.06-2.4c-.28-.64,1.73-7.07,5.07-9.37Z"/><path class="cls-11" d="M216.3,215.25s-5.07,14.06,6.5,19.84c2.4-.32,1.48-4.31,1.48-4.31,0,0-5.03-1.11-3.52-12.84-1.39-1.14-4.46-2.69-4.46-2.69Z"/><path class="cls-1" d="M246.55,215.25s3.49,14.68-6.5,19.84c-2.4-.32-1.48-4.31-1.48-4.31,0,0,4.05-2,3.52-12.84,1.39-1.14,4.46-2.69,4.46-2.69Z"/><rect class="cls-71" x="219.63" y="220.61" width="22.9" height="15.47" rx="1.64" ry="1.64"/><path class="cls-103" d="M232.43,224.8c.12.82-.32,1.57-1.14,1.69-.82.12-1.58-.45-1.71-1.27-.12-.82.25-1.64,1.07-1.76.82-.12,1.65.52,1.77,1.34Z"/><path class="cls-16" d="M252.58,240.66c-2.62-.6-8.68-.28-8.68-.28l-.25.67-.41,3.32s5.77,1.04,8.61,1.04c.29,0,.56-.04.8-.12.09-.08.17-.16.25-.25,1.21-1.32.86-3.25-.33-4.38Z"/><path class="cls-5" d="M242.16,240.2l1.03.04c.55.02,1.07.29,1.44.75.37.45.56,1.05.53,1.66-.03.49-.23.94-.56,1.27-.33.32-.76.49-1.2.46l-1.57-.11.33-4.06Z"/><path class="cls-65" d="M207.66,240.34c2.64-.52,8.68-.01,8.68-.01l.23.67.33,3.33s-5.79.86-8.64.77c-.29,0-.55-.06-.79-.14-.08-.08-.17-.16-.25-.25-1.17-1.35-.78-3.28.44-4.37Z"/><path class="cls-74" d="M218.09,240.2h-1.03c-.55.02-1.08.27-1.46.71-.38.44-.59,1.03-.57,1.65.01.49.2.95.52,1.28.32.33.75.51,1.19.49l1.57-.06-.23-4.07Z"/><path class="cls-26" d="M253.31,230.27c-1.19-2.74-4.1-3.18-6.57-1.9-.04.06-15.71,8.09-29.53,11.61.4,1.27.6,2.62.64,3.94,0,.3,0,.59-.01.87,10.6-.54,22.1-4.08,31.98-7.18,3.06-.99,4.81-4.31,3.49-7.34Z"/><path class="cls-6" d="M242.23,244.13c-.04-1.53.26-2.95.89-4.27.02-.06.04-.12.06-.18-.79-.24-1.81-.58-3.15-1.03-9.81-3.36-17.3-6.75-24.45-10.65-2.78-1.52-5.93-.5-6.82,2.78-.79,2.93,1.01,5.28,3.59,6.32,8.89,3.57,21.94,6.83,29.89,7.37,0-.11-.01-.22-.02-.33Z"/><path class="cls-10" d="M225.07,204.15s1.06,4.57,6.18,4.48c5.22-.09,5.68-4.49,5.68-4.49l-3.41-.73-.28-3.8-5.13.38-.09,3.61-2.95.55Z"/><path class="cls-46" d="M228.83,188.84s-5.88,11.38,1.09,14.15c4.92,1.95,8-7.56,7.08-10.14-1.42-3.98-2.36-3.51-2.36-3.51l-5.82-.5Z"/><path class="cls-31" d="M237.01,192.86s-.03-.09-.04-.13c.02.21.03.43.04.65,0-.16.02-.32.02-.48,0-.02,0-.03-.01-.05Z"/><path class="cls-31" d="M236.97,192.73c0-.08-.02-.15-.03-.23.3.5-.28-.67.03.23Z"/><path class="cls-40" d="M239.73,185.79c3.15-.72.96,9.02-3.72,7.43-4.69-1.6-6.87-2.58-7.6-1.29-.73,1.29-1.95,6.55-2.35,3.82-.38-2.55-.74-7.23,1.72-8.25,1.4-.58,2.63.68,3.59.36,1.48-.48,2.91-.5,3.8,0,1.67.96,2.57-1.63,4.57-2.08Z"/><path class="cls-45" d="M227.88,193.82s-1.02-1.54-1.48.04-.17,3.74.76,2.73c.93-1.01.72-2.77.72-2.77Z"/><path class="cls-39" d="M146.33,96.23s-16.5-28.85-18.72-31.57c-.37-.46-.95-.69-1.54-.62l-4.6.55-5.4,11.68,9-5.24c-.89,6.16,10.67,15.31,14.63,18.65.4.34.44.95.07,1.33l-1.58,1.66c2.6,2.63,5.6,4.32,8.98,5.11l-.83-1.54Z"/><path class="cls-28" d="M139.1,91.77s-1.01.33-1.35,1.23c-.16.43.01.92.39,1.19,1.66,1.19,7.15,5.04,9.68,5.79.21.06.4-.13.36-.34-.13-.59-.55-1.76-1.9-3.48l.12.25c.15.31-.18.63-.49.46-1.69-.96-5.14-3.05-6.8-5.09Z"/><path class="cls-44" d="M139.92,103.31s-2.5-5.97-2.53-5.99c-2.27-13.79-7.79-25.61-9.42-28.71-.27-.52-.79-.87-1.38-.92l-4.61-.39-7.65,10.35,9.87-3.31c-2.12,5.85,7.35,17.15,10.55,21.22.33.41.23,1.01-.2,1.31l-1.88,1.3c2.01,3.1,4.6,5.37,7.76,6.82l-.51-1.68Z"/><path class="cls-67" d="M133.74,97.48s-1.06.12-1.57.93c-.25.39-.17.9.14,1.24,1.39,1.5,5.98,6.38,8.31,7.63.19.1.42-.04.42-.26,0-.6-.18-1.84-1.16-3.79l.07.27c.09.34-.31.58-.57.36-1.46-1.28-4.42-4.03-5.63-6.37Z"/><path class="cls-62" d="M100.38,65.11s-4.17,6.21-4.51,9.04c-.34,2.83,1.15,3.81,5.52,4.17,13,1.07,19.4-2.82,19.4-2.82.89-5.67,1.52-7.11,8.95-10.19,0,0-9.39.75-11.28.01-1.89-.73-18.07-.21-18.07-.21Z"/><path class="cls-61" d="M117.02,30.34s-2.91-3.44-6,.78c-.56.76-2.71.13-3.5,1.73-.41.83-1.29,1.29-2.19,1.13-2.25-.42-5.94-.45-7.76,3.08-1.39,2.7-.32,4.27,1.07,5.17,1.02.66,1.38,2,.77,3.05-.59,1-.7,2.36.82,4,3.42,3.67,10.2-2.33,10.2-2.33l5.38-12.71,1.2-3.91Z"/><path class="cls-82" d="M111.67,64.29s4.86-4.63,7.25-7.69c1.29-1.66,1.7-3.84,1.1-5.85-1.09-3.68-3.03-7.49-3.21-8.08-.27-.91-5.72-.87-5.72-.87,0,0-10.72,6.96-14.93,18.74l4.73,1.47s2.8-4.7,5.57-7.68c0,0-4.79,6.32-4.95,8.91l10.17,1.05Z"/><path class="cls-91" d="M120.93,66.12l-3.65-3.97-4.22,1.14s-4.92.76-7.73,0l-2.81-.76-6.36-1.98-1,2.82c-.25.72,0,1.51.62,1.95.55.39,1.19.82,1.61,1,.84.37,19.29.12,19.29.12l4.25-.31Z"/><path class="cls-20" d="M114.83,35.25l-3.66,6.81c.24,1.49,3.99,1.53,4.56.64.06-.09.09-.19.11-.3l2.19-4.55c.09-.44-1.12-1.94-1.52-2.15l-1.46-.77c-.56-.3,1.78-.32-.23.33Z"/><path class="cls-84" d="M122.25,33.65s.41,2.3-1.39,5.23c-1.81,2.92-3.61,2.79-4.52,1.75-.91-1.04-2.01-2.78-1.51-5.7.5-2.92,6.81-4.21,7.43-1.28Z"/><path class="cls-92" d="M117,35.24s2.93-3.85,5.18-.49l-.04,1.16s2.92-.14,2.61-2.83c-.32-2.69-2.7-4.53-6.01-3.61-3.31.92-5.24,1.97-5.62,4.27-.37,2.3,1.5,1.92,1.5,1.92,0,0,.72-1.58,1.58-1.69.87-.11.55,1.15.55,1.15l.25.14Z"/><path class="cls-90" d="M116.33,35.14s1.52-1.97.14-2.38c-1.38-.41-1.33,1.93-1.24,2.8l1.1-.42Z"/><path class="cls-95" d="M108.84,67.69s.03,0,.04,0l16.79-.02c.42,0,.75-.34.75-.75,0-.42-.34-.76-.75-.75l-16.79.02c-.42,0-.75.34-.75.75,0,.4.32.73.71.75Z"/><path class="cls-15" d="M140.77,52.44h-13.99c-1.03,0-1.97.6-2.41,1.53l-6.47,13.71h17.38c.66,0,1.26-.41,1.51-1.02l5.01-12.69c.29-.73-.25-1.53-1.04-1.53Z"/><path class="cls-69" d="M130.91,59.47c-.3.94-.08,1.86.5,2.04.58.19,1.29-.43,1.6-1.37.3-.94.08-1.86-.5-2.04-.58-.19-1.29.43-1.6,1.37Z"/><path class="cls-33" d="M164.31,211.33s-1-6.21,2.05-8.22c.14-.09.32.01.32.17v1.18c0,.28.34.43.54.23.66-.62,1.83-1.56,3.08-1.75.33-.05.59.28.45.58-.76,1.63-2.76,6.21-2.69,9.21l-3.75-1.41Z"/><path class="cls-86" d="M161.07,211.32l-2.04,32.64h12.23v-31.72c0-.91-.58-1.72-1.45-2.02-1.62-.55-4.37-1.24-7.07-.76-.92.16-1.61.93-1.67,1.87Z"/><path class="cls-85" d="M161.1,231.88l-.41,9.1c-.03.75.57,1.38,1.32,1.38h6.18c.73,0,1.32-.59,1.32-1.32v-9.1c0-.73-.59-1.32-1.32-1.32h-5.77c-.71,0-1.29.56-1.32,1.26Z"/><path class="cls-59" d="M183.04,243.96v-33.74c0-.84-.55-1.59-1.35-1.84-3.6-1.1-6.73-.48-8.38.03-.73.23-1.23.9-1.23,1.66v33.88h10.96Z"/><path class="cls-53" d="M173.17,210.79l.27,4.98c.03.62.55,1.11,1.17,1.11h5.87c.63,0,1.15-.5,1.17-1.13l.16-4.91c.02-.56-.37-1.06-.92-1.18-1.43-.31-4.23-.73-6.82-.06-.54.14-.92.64-.89,1.2Z"/><path class="cls-58" d="M173.63,219.02h0c.04.61.55,1.09,1.17,1.09h5.62c.65,0,1.18-.54,1.17-1.19h0c-.01-.64-.53-1.15-1.17-1.15h-5.62c-.68,0-1.21.57-1.17,1.25Z"/><path class="cls-12" d="M145.75,211.17l1.36,32.76h11.59l.88-33.13c.02-.91-.56-1.73-1.43-2-3.77-1.13-7.51-1.24-11.21.45-.75.34-1.22,1.1-1.18,1.92Z"/><path class="cls-56" d="M146.81,212.4l.14,1.78c.04.54.51.95,1.05.92l9.47-.55c.5-.03.9-.42.93-.92l.09-1.23c.04-.58-.41-1.07-.99-1.07h-9.7c-.58,0-1.04.49-.99,1.07Z"/><path class="cls-13" d="M147.2,216.65v.65c0,.5.42.9.92.88l9.07-.38c.47-.02.85-.41.85-.88v-.69c0-.5-.42-.91-.92-.88l-9.07.42c-.47.02-.84.41-.84.88Z"/><path class="cls-86" d="M212.9,93.02c13.05-.19,77.63-1.32,90.88-1.56,1.31-.02,2.38,1.03,2.38,2.34v6.05c0,1.29-1.05,2.34-2.34,2.34h-90.89c-1.29,0-2.34-1.05-2.34-2.34v-4.49c0-1.28,1.03-2.32,2.3-2.34Z"/><path class="cls-99" d="M229.36,97.68h0c0,1.32,1.08,2.38,2.4,2.35l52.66-.91c1.51-.03,2.61-1.45,2.25-2.91l-.24-.98c-.27-1.08-1.26-1.83-2.37-1.79l-52.42,1.89c-1.27.05-2.27,1.09-2.27,2.35Z"/><path class="cls-31" d="M217.6,98.01l-8.1,8.24c-.34.35-.31.91.06,1.22l.06.05c.33.28.82.23,1.09-.1l7.41-8.94-.53-.47Z"/><path class="cls-68" d="M225.92,91.4c1.25,2.62.1,5.78-2.57,7.06-2.67,1.27-5.85.18-7.1-2.44-1.25-2.62-.1-5.78,2.57-7.06,2.67-1.27,5.85-.18,7.1,2.44Z"/><path class="cls-31" d="M218.56,88.43c-2.97,1.42-4.25,4.93-2.86,7.85,1.39,2.92,4.93,4.14,7.9,2.72,2.97-1.42,4.25-4.93,2.86-7.85-1.39-2.92-4.93-4.14-7.9-2.72ZM223.23,98.22c-2.54,1.21-5.55.17-6.74-2.32-1.19-2.49-.1-5.49,2.44-6.7,2.54-1.21,5.55-.17,6.74,2.32,1.19,2.49.1,5.49-2.44,6.7Z"/><path class="cls-31" d="M215.73,95.37c-.07,0-.13-.05-.15-.11-.1-.38-.17-.77-.19-1.16,0-.09.06-.16.15-.16.08-.01.16.06.16.15.02.37.08.74.18,1.09.02.08-.03.17-.11.19-.01,0-.03,0-.04,0Z"/><path class="cls-31" d="M210.96,105.26s-.08-.01-.11-.04c-.06-.06-.07-.16,0-.22l.12-.13c.06-.06.16-.07.22,0,.06.06.07.16,0,.22l-.12.13s-.07.05-.11.05Z"/><path class="cls-31" d="M311.79,188.53c-.14,0-.27-.1-.3-.24-.07-.3-.14-.6-.22-.9-.04-.17.06-.34.22-.38.17-.04.34.06.38.22.08.31.15.61.23.92.04.17-.07.34-.23.38-.02,0-.05,0-.07,0ZM310.96,185.51c-.13,0-.26-.08-.3-.22-.09-.3-.19-.59-.29-.88-.06-.16.03-.34.19-.4.16-.06.34.03.4.19.1.3.2.6.3.9.05.16-.04.34-.2.39-.03.01-.06.01-.1.01ZM309.89,182.57c-.12,0-.24-.07-.29-.19-.12-.29-.24-.57-.36-.86-.07-.16,0-.34.16-.41.16-.07.34,0,.41.16.13.29.25.58.37.87.07.16-.01.34-.17.41-.04.02-.08.02-.12.02ZM308.59,179.73c-.11,0-.22-.06-.28-.17-.14-.28-.28-.55-.43-.83-.08-.15-.02-.34.13-.42.15-.08.34-.02.42.13.15.28.29.56.44.84.08.15.02.34-.14.42-.05.02-.09.03-.14.03ZM307.07,177c-.11,0-.21-.05-.27-.15-.16-.27-.32-.53-.49-.79-.09-.15-.05-.34.1-.43.15-.09.34-.05.43.1.17.27.34.53.5.8.09.15.04.34-.11.43-.05.03-.11.05-.16.05ZM305.35,174.39c-.1,0-.19-.05-.25-.13-.18-.25-.36-.5-.55-.75-.1-.14-.08-.33.06-.44.14-.1.33-.08.44.06.19.25.38.51.56.76.1.14.07.34-.07.44-.06.04-.12.06-.18.06ZM303.44,171.91c-.09,0-.18-.04-.24-.11-.2-.24-.4-.47-.61-.71-.11-.13-.1-.33.03-.44.13-.11.33-.1.44.03.21.24.41.48.62.72.11.13.09.33-.04.44-.06.05-.13.07-.2.07ZM301.34,169.6c-.08,0-.16-.03-.22-.09-.22-.22-.44-.44-.66-.66-.12-.12-.13-.32,0-.44s.32-.13.44,0c.23.22.45.44.67.67.12.12.12.32,0,.44-.06.06-.14.09-.22.09ZM299.06,167.45c-.07,0-.15-.03-.21-.08-.23-.2-.47-.41-.71-.6-.13-.11-.15-.31-.04-.44.11-.13.31-.15.44-.04.24.2.48.41.72.61.13.11.14.31.03.44-.06.07-.15.11-.24.11ZM296.63,165.49c-.06,0-.13-.02-.19-.06-.25-.18-.5-.37-.75-.54-.14-.1-.18-.29-.08-.44.1-.14.29-.18.44-.08.26.18.51.37.77.55.14.1.17.3.07.44-.06.08-.16.13-.25.13ZM294.04,163.73c-.06,0-.11-.02-.16-.05l-.2-.13c-.2-.12-.39-.24-.59-.36-.15-.09-.2-.28-.11-.43.09-.15.28-.2.43-.11.2.12.4.24.6.36l.21.13c.15.09.19.28.1.43-.06.1-.16.15-.27.15ZM291.32,162.19s-.1-.01-.14-.03c-.28-.14-.55-.28-.83-.42-.16-.08-.22-.26-.15-.42.08-.16.26-.22.42-.15.28.14.57.28.85.42.15.08.21.27.13.42-.06.11-.16.17-.28.17ZM288.49,160.88s-.08,0-.12-.02c-.29-.12-.57-.24-.86-.35-.16-.06-.24-.24-.18-.4.06-.16.24-.24.4-.18.29.11.59.23.88.35.16.07.23.25.17.41-.05.12-.17.19-.29.19ZM285.56,159.79s-.06,0-.1-.02c-.29-.1-.59-.19-.89-.28-.17-.05-.26-.22-.21-.39.05-.17.22-.26.39-.21.3.09.6.19.9.28.16.05.25.23.2.39-.04.13-.17.22-.3.22ZM263.04,159.03c-.14,0-.27-.09-.3-.23-.04-.17.06-.34.22-.38.31-.08.61-.16.92-.23.17-.04.34.07.38.23.04.17-.07.34-.23.38-.3.07-.6.15-.9.22-.03,0-.05.01-.08.01ZM282.55,158.94s-.05,0-.07,0c-.3-.07-.6-.14-.91-.21-.17-.04-.28-.2-.24-.37.04-.17.2-.27.37-.24.31.07.62.14.92.21.17.04.27.21.23.38-.03.14-.16.24-.3.24ZM266.1,158.37c-.15,0-.28-.11-.31-.26-.03-.17.08-.33.25-.36.31-.05.62-.11.93-.15.17-.03.33.09.36.26.03.17-.09.33-.26.36-.31.05-.61.1-.92.15-.02,0-.04,0-.05,0ZM279.48,158.31s-.03,0-.05,0c-.31-.05-.61-.1-.92-.14-.17-.02-.29-.18-.27-.35.02-.17.18-.29.35-.27.31.04.62.09.93.14.17.03.29.19.26.36-.03.15-.16.26-.31.26ZM269.2,157.95c-.16,0-.3-.12-.31-.28-.02-.17.11-.32.28-.34.31-.03.63-.06.94-.08.17-.01.32.12.33.29.01.17-.12.32-.29.33-.31.02-.62.05-.93.08,0,0-.02,0-.03,0ZM276.38,157.93s-.02,0-.03,0c-.31-.03-.62-.05-.93-.07-.17-.01-.3-.16-.29-.33s.16-.3.33-.29c.31.02.63.04.94.07.17.01.3.17.28.34-.01.16-.15.29-.31.29ZM272.32,157.78c-.17,0-.31-.14-.31-.31,0-.17.14-.31.31-.32.2,0,.41,0,.61,0h.34c.17,0,.31.14.31.32,0,.17-.14.31-.31.31h-.33c-.2,0-.4,0-.6,0h0Z"/><path class="cls-31" d="M104.82,181.11s-.09,0-.13-.03c-.16-.07-.23-.26-.16-.41.13-.29.26-.57.4-.86.08-.16.26-.22.42-.15.16.08.22.26.15.42-.14.28-.27.56-.39.84-.05.12-.17.18-.28.18ZM106.23,178.32c-.05,0-.1-.01-.15-.04-.15-.08-.21-.27-.12-.43.15-.28.31-.55.47-.82.09-.15.28-.2.43-.11.15.09.2.28.11.43-.16.27-.31.54-.46.81-.06.1-.16.16-.27.16ZM107.86,175.65c-.06,0-.12-.02-.17-.05-.14-.1-.18-.29-.09-.43.18-.26.35-.52.54-.78.1-.14.29-.18.44-.08.14.1.18.29.08.44-.18.25-.35.51-.53.77-.06.09-.16.14-.26.14ZM109.7,173.12c-.07,0-.14-.02-.19-.07-.14-.11-.16-.3-.05-.44.2-.25.39-.49.6-.73.11-.13.31-.15.44-.04.13.11.15.31.04.44-.2.24-.39.48-.59.72-.06.08-.15.12-.25.12ZM111.74,170.75c-.08,0-.15-.03-.21-.08-.13-.12-.13-.32-.02-.44.21-.23.43-.46.65-.68.12-.12.32-.13.44,0,.12.12.13.32,0,.44-.22.22-.43.45-.64.67-.06.07-.15.1-.23.1ZM113.96,168.55c-.08,0-.17-.03-.23-.1-.12-.13-.11-.33.02-.44.23-.21.47-.42.7-.63.13-.11.33-.1.44.03.11.13.1.33-.03.44-.23.2-.46.41-.69.62-.06.06-.14.08-.21.08ZM116.34,166.53c-.09,0-.19-.04-.25-.12-.11-.14-.08-.33.05-.44.25-.19.5-.38.75-.57.14-.1.33-.07.44.06.1.14.07.33-.06.44-.25.18-.5.37-.74.56-.06.04-.12.07-.19.07ZM118.88,164.71c-.1,0-.2-.05-.26-.14-.09-.14-.05-.34.09-.43.26-.17.53-.34.8-.51.15-.09.34-.05.43.1.09.15.05.34-.1.43-.26.16-.52.33-.78.5-.05.03-.11.05-.17.05ZM121.56,163.1c-.11,0-.22-.06-.27-.16-.08-.15-.03-.34.12-.42l.17-.09c.22-.12.44-.23.66-.35.15-.08.34-.02.42.14.08.15.02.34-.14.42-.22.11-.44.23-.65.34l-.17.09s-.1.04-.15.04ZM124.37,161.72c-.12,0-.23-.07-.29-.19-.07-.16,0-.34.16-.41.29-.13.58-.25.87-.37.16-.07.34.01.41.17.07.16-.01.34-.17.41-.29.12-.57.24-.86.37-.04.02-.08.03-.13.03ZM127.28,160.57c-.13,0-.25-.08-.3-.21-.06-.16.03-.34.19-.4.3-.1.6-.2.9-.3.17-.05.34.04.39.2.05.16-.04.34-.2.39-.3.09-.59.19-.88.3-.03.01-.07.02-.1.02ZM130.27,159.66c-.14,0-.27-.09-.3-.23-.04-.17.06-.34.22-.38.31-.08.61-.16.92-.23.17-.04.34.06.38.23.04.17-.06.34-.23.38-.3.07-.6.15-.9.22-.03,0-.05.01-.08.01ZM133.32,159c-.15,0-.28-.11-.31-.26-.03-.17.08-.33.25-.36.31-.05.62-.11.93-.15.17-.03.33.09.36.26.03.17-.09.33-.26.36-.31.05-.61.1-.92.15-.02,0-.04,0-.05,0ZM146.16,158.87s-.03,0-.05,0c-.13-.02-.25-.04-.38-.06-.17-.03-.29-.18-.26-.36.03-.17.19-.29.36-.26.13.02.26.04.39.06.17.03.29.19.26.36-.02.15-.16.26-.31.26ZM136.42,158.57c-.16,0-.3-.12-.31-.28-.02-.17.11-.32.28-.34.31-.03.63-.06.94-.08.17,0,.32.12.33.29.01.17-.12.32-.29.33-.31.02-.62.05-.93.08-.01,0-.02,0-.03,0ZM143.61,158.55s-.02,0-.03,0c-.31-.03-.62-.05-.93-.07-.17-.01-.3-.16-.29-.33.01-.17.16-.3.33-.29.31.02.63.05.94.07.17.02.3.17.28.34-.01.16-.15.28-.31.28ZM139.54,158.4c-.17,0-.31-.14-.31-.31,0-.17.14-.31.31-.32.21,0,.41,0,.62,0h.33c.17,0,.31.14.31.32,0,.17-.14.31-.31.31h-.33c-.2,0-.4,0-.61,0h0Z"/><path class="cls-31" d="M145.47,131.47s-.02,0-.03,0l-.25-.03c-.17-.02-.3-.17-.28-.35.02-.17.17-.3.35-.28l.24.03c.17.02.3.17.28.34-.02.16-.15.28-.31.28ZM143.06,131.14s-.04,0-.05,0c-.31-.05-.62-.11-.93-.18-.17-.03-.28-.2-.24-.37.03-.17.2-.28.37-.24.3.06.61.12.91.17.17.03.28.19.25.36-.03.15-.16.26-.31.26ZM140.01,130.46s-.05,0-.08-.01c-.3-.08-.61-.17-.91-.26-.17-.05-.26-.22-.21-.39.05-.17.22-.26.39-.21.3.09.6.17.9.25.17.04.27.22.22.38-.04.14-.16.23-.3.23ZM137.02,129.52s-.07,0-.11-.02c-.3-.11-.59-.22-.89-.33-.16-.06-.24-.24-.18-.41.06-.16.24-.24.41-.18.29.11.58.22.87.33.16.06.25.24.19.4-.05.13-.17.21-.29.21ZM134.13,128.34s-.09,0-.13-.03c-.29-.13-.57-.27-.85-.41-.16-.08-.22-.26-.14-.42.08-.15.26-.22.42-.14.28.14.56.27.84.4.16.07.23.26.15.41-.05.11-.17.18-.28.18ZM131.34,126.92c-.05,0-.1-.01-.15-.04-.27-.15-.55-.31-.82-.47-.15-.09-.2-.28-.11-.43.09-.15.28-.2.43-.11.27.16.54.31.81.47.15.08.2.28.12.43-.06.1-.16.16-.27.16ZM128.68,125.28c-.06,0-.12-.02-.17-.05-.26-.18-.52-.36-.78-.54-.14-.1-.17-.3-.07-.44.1-.14.29-.17.44-.07.25.18.51.36.77.53.14.1.18.29.08.43-.06.09-.16.14-.26.14ZM126.16,123.43c-.07,0-.14-.02-.19-.07-.25-.2-.49-.4-.73-.6-.13-.11-.15-.31-.04-.44.11-.13.31-.15.44-.04.24.2.48.39.72.59.13.11.16.3.05.44-.06.08-.15.12-.24.12ZM123.79,121.39c-.08,0-.15-.03-.21-.08-.23-.22-.46-.43-.68-.65-.12-.12-.13-.32,0-.44.12-.12.32-.13.44,0,.22.22.45.43.67.64.13.12.13.32.01.44-.06.07-.14.1-.23.1ZM121.6,119.16c-.09,0-.17-.03-.23-.1-.21-.23-.42-.47-.63-.71-.11-.13-.1-.33.03-.44.13-.11.33-.1.44.03.2.23.41.47.62.7.12.13.11.33-.02.44-.06.05-.14.08-.21.08ZM119.59,116.77c-.09,0-.19-.04-.25-.12-.19-.25-.38-.5-.57-.76-.1-.14-.07-.34.07-.44.14-.1.34-.07.44.07.18.25.37.5.56.74.11.14.08.33-.06.44-.06.04-.12.06-.19.06ZM117.79,114.21c-.1,0-.2-.05-.26-.14-.17-.27-.34-.53-.5-.8-.09-.15-.04-.34.11-.43.15-.09.34-.04.43.11.16.27.32.53.49.79.09.15.05.34-.09.43-.05.03-.11.05-.17.05ZM116.22,111.51c-.11,0-.22-.06-.28-.17-.15-.28-.29-.56-.43-.84-.08-.15-.01-.34.14-.42.16-.08.34-.01.42.14.14.28.28.55.42.83.08.15.02.34-.13.42-.05.02-.1.04-.15.04ZM114.89,108.68c-.12,0-.24-.07-.29-.19-.11-.25-.21-.51-.31-.76l-.04-.12c-.06-.16.02-.34.18-.4.16-.06.34.02.4.18l.04.11c.1.25.2.5.3.75.07.16,0,.34-.17.41-.04.02-.08.02-.12.02ZM113.82,105.74c-.13,0-.26-.09-.3-.22-.09-.3-.19-.6-.27-.91-.05-.17.05-.34.22-.39.17-.05.34.05.39.22.08.3.17.59.27.89.05.16-.04.34-.2.39-.03,0-.06.01-.09.01ZM113.01,102.72c-.14,0-.27-.1-.31-.25-.07-.31-.13-.62-.19-.93-.03-.17.08-.33.25-.37.17-.03.33.08.37.25.06.3.12.61.19.91.04.17-.07.34-.24.37-.02,0-.05,0-.07,0ZM112.48,99.64c-.15,0-.29-.11-.31-.27-.04-.31-.08-.63-.11-.94-.02-.17.11-.33.28-.34.17-.02.33.11.34.28.03.31.07.62.11.92.02.17-.1.33-.27.35-.01,0-.03,0-.04,0ZM112.2,96.53c-.17,0-.3-.13-.31-.3-.01-.31-.03-.63-.03-.95,0-.17.13-.32.31-.32,0,0,0,0,0,0,.17,0,.31.14.31.31,0,.31.02.62.03.93,0,.17-.13.32-.3.33,0,0,0,0-.01,0ZM112.18,93.4s0,0-.01,0c-.17,0-.31-.15-.3-.32.01-.32.03-.63.04-.94,0-.17.16-.31.33-.29.17.01.3.16.29.33-.02.31-.03.62-.04.93,0,.17-.14.3-.31.3ZM112.41,90.28s-.02,0-.04,0c-.17-.02-.29-.17-.27-.35.04-.31.08-.63.12-.94.02-.17.18-.29.35-.27.17.02.29.18.27.35-.04.31-.08.62-.12.92-.02.16-.15.28-.31.28ZM112.89,87.19s-.04,0-.06,0c-.17-.03-.28-.2-.25-.37.06-.31.13-.62.19-.93.04-.17.2-.27.37-.24.17.04.28.2.24.37-.07.3-.13.61-.19.91-.03.15-.16.25-.31.25ZM113.62,84.15s-.06,0-.09-.01c-.17-.05-.26-.22-.22-.39.09-.3.17-.61.27-.91.05-.17.23-.26.39-.21.17.05.26.23.21.39-.09.3-.18.59-.26.89-.04.14-.16.23-.3.23ZM114.59,81.18s-.07,0-.11-.02c-.16-.06-.24-.24-.18-.4.11-.3.22-.59.34-.88.06-.16.25-.24.41-.17.16.06.24.25.17.41-.12.29-.23.58-.33.87-.05.13-.17.2-.29.2ZM115.8,78.3s-.09,0-.13-.03c-.16-.07-.22-.26-.15-.42.13-.29.27-.57.41-.85.08-.15.26-.22.42-.14.15.08.22.26.14.42-.14.28-.27.56-.4.84-.05.11-.17.18-.28.18ZM117.24,75.52c-.05,0-.11-.01-.16-.04-.15-.09-.2-.28-.11-.43.16-.27.32-.54.48-.81.09-.15.28-.19.43-.1.15.09.19.28.1.43-.16.26-.32.53-.47.8-.06.1-.16.16-.27.16ZM118.92,72.89c-.06,0-.12-.02-.18-.06-.14-.1-.18-.29-.08-.44.18-.26.36-.52.55-.77.1-.14.3-.17.44-.07.14.1.17.3.07.44-.18.25-.36.5-.54.76-.06.09-.16.13-.26.13ZM120.82,70.4c-.07,0-.14-.02-.2-.07-.13-.11-.15-.31-.04-.44.2-.24.41-.48.62-.72.11-.13.31-.14.44-.03.13.11.14.31.03.44-.21.23-.41.47-.61.7-.06.07-.15.11-.24.11Z"/><path class="cls-31" d="M196.5,103.8c-.17,0-.3-.13-.31-.3v-.16c-.02-.17.12-.32.29-.33.17,0,.32.13.33.3v.15c.02.17-.12.32-.29.33,0,0-.01,0-.02,0ZM196.46,101.46h0c-.17,0-.31-.15-.31-.32,0-.32.02-.63.03-.95,0-.17.16-.3.33-.3.17,0,.31.15.3.33-.01.31-.02.62-.03.93,0,.17-.14.31-.31.31ZM196.65,98.34s-.02,0-.03,0c-.17-.02-.3-.17-.28-.34.03-.31.07-.63.11-.94.02-.17.18-.29.35-.27.17.02.29.18.27.35-.04.31-.08.62-.11.92-.02.16-.15.28-.31.28ZM197.12,95.25s-.04,0-.06,0c-.17-.03-.28-.2-.25-.37.06-.31.13-.62.2-.93.04-.17.21-.27.37-.24.17.04.27.2.24.37-.07.3-.13.61-.19.91-.03.15-.16.25-.31.25ZM197.86,92.21s-.06,0-.09-.01c-.17-.05-.26-.22-.21-.39.09-.3.18-.6.27-.91.05-.16.23-.26.39-.2.16.05.26.23.2.39-.09.3-.18.59-.27.89-.04.14-.16.23-.3.23ZM198.86,89.24s-.08,0-.11-.02c-.16-.06-.24-.24-.18-.4.11-.29.23-.59.35-.88.07-.16.25-.24.41-.17.16.07.24.25.17.41-.12.29-.23.57-.34.86-.05.12-.17.2-.29.2ZM200.1,86.38s-.09-.01-.14-.03c-.16-.08-.22-.26-.14-.42.14-.28.28-.57.42-.85.08-.15.27-.21.42-.13.15.08.21.27.13.42-.14.28-.28.55-.42.83-.05.11-.17.18-.28.18ZM201.59,83.63c-.05,0-.11-.01-.16-.04-.15-.09-.2-.28-.11-.43.16-.27.33-.54.5-.81.09-.15.29-.19.43-.1.15.09.19.29.1.43-.17.26-.33.53-.49.79-.06.1-.16.15-.27.15ZM203.31,81.02c-.06,0-.13-.02-.18-.06-.14-.1-.17-.3-.07-.44.19-.26.37-.51.57-.76.11-.14.3-.16.44-.06.14.11.16.3.06.44-.19.25-.37.49-.56.75-.06.08-.16.13-.25.13ZM205.25,78.57c-.07,0-.15-.03-.21-.08-.13-.11-.14-.31-.03-.44.21-.24.42-.47.63-.71.12-.13.31-.14.44-.02.13.12.14.31.02.44-.21.23-.42.46-.62.69-.06.07-.15.11-.24.11ZM207.41,76.31c-.08,0-.16-.03-.23-.1-.12-.12-.11-.32.01-.44.23-.22.46-.43.69-.64.13-.12.33-.11.44.02.12.13.11.33-.02.44-.23.21-.46.42-.68.63-.06.06-.14.09-.22.09ZM209.77,74.26c-.09,0-.18-.04-.25-.12-.11-.14-.08-.33.05-.44.25-.2.5-.39.75-.58.14-.1.33-.08.44.06.1.14.08.33-.06.44-.25.19-.49.38-.74.57-.06.05-.13.07-.19.07ZM212.31,72.42c-.1,0-.2-.05-.26-.14-.1-.14-.06-.34.09-.43.26-.17.53-.34.8-.51.15-.09.34-.05.43.1.09.15.05.34-.1.43-.26.16-.52.33-.78.5-.05.03-.11.05-.17.05ZM214.99,70.82c-.11,0-.22-.06-.28-.16-.08-.15-.03-.34.13-.42.28-.15.56-.3.84-.44.15-.08.34-.02.42.14.08.15.02.34-.14.42-.28.14-.55.28-.82.43-.05.03-.1.04-.15.04ZM217.8,69.46c-.12,0-.24-.07-.29-.19-.07-.16,0-.34.16-.41.29-.13.58-.25.87-.36.16-.06.34.01.41.17.06.16-.01.34-.17.41-.29.12-.57.24-.86.36-.04.02-.08.03-.12.03ZM220.72,68.34c-.13,0-.25-.08-.3-.21-.05-.16.03-.34.2-.4.3-.1.6-.2.9-.29.16-.05.34.04.39.21.05.17-.04.34-.21.39-.3.09-.59.19-.89.28-.03.01-.07.02-.1.02ZM223.72,67.47c-.14,0-.27-.1-.3-.24-.04-.17.06-.34.23-.38.31-.07.61-.14.92-.21.17-.04.34.07.37.24.04.17-.07.34-.24.37-.3.06-.61.13-.91.21-.02,0-.05,0-.07,0ZM226.79,66.87c-.15,0-.29-.11-.31-.27-.03-.17.09-.33.26-.36.31-.05.62-.09.94-.13.17-.02.33.1.35.27.02.17-.1.33-.27.35-.31.04-.61.08-.92.13-.02,0-.03,0-.05,0ZM229.9,66.54c-.16,0-.3-.13-.31-.29-.01-.17.12-.32.29-.33.31-.02.63-.03.95-.05.17,0,.32.13.32.3,0,.17-.13.32-.3.32-.31.01-.62.03-.93.04,0,0-.01,0-.02,0ZM233.96,66.53s-.01,0-.02,0c-.31-.02-.62-.03-.93-.04-.17,0-.31-.15-.3-.32,0-.17.15-.31.32-.3.32,0,.63.02.95.04.17,0,.3.16.29.33,0,.17-.15.29-.31.29Z"/><path class="cls-31" d="M208.41,224.52s-.02,0-.03,0c-.31-.03-.64-.08-.96-.15-.17-.04-.28-.2-.24-.37.04-.17.2-.28.37-.24.3.06.6.11.89.13.17.01.3.17.28.34-.01.16-.15.29-.31.29ZM210.58,224.34c-.14,0-.26-.09-.3-.23-.05-.17.05-.34.22-.39.28-.08.56-.19.82-.31.16-.08.34-.01.42.14.08.16.01.34-.14.42-.3.14-.61.26-.93.35-.03,0-.06.01-.08.01ZM205.41,223.69s-.09,0-.13-.03c-.29-.13-.58-.27-.86-.43-.15-.08-.21-.27-.13-.42.08-.15.27-.21.42-.13.27.15.55.28.82.41.16.07.23.26.16.41-.05.12-.17.18-.29.18ZM202.73,222.09c-.06,0-.13-.02-.19-.06-.25-.19-.5-.38-.75-.58-.13-.11-.15-.31-.05-.44.11-.13.31-.15.44-.05.24.2.49.39.73.57.14.1.17.3.07.44-.06.08-.16.13-.25.13ZM200.37,220.05c-.08,0-.16-.03-.22-.09-.22-.22-.44-.46-.66-.69-.12-.13-.11-.33.02-.44.13-.12.33-.11.44.02.21.23.42.45.64.67.12.12.12.32,0,.44-.06.06-.14.09-.22.09ZM198.33,217.68c-.1,0-.19-.04-.25-.13-.19-.25-.37-.51-.55-.78-.1-.14-.06-.34.08-.43.14-.1.34-.06.43.08.17.25.35.51.54.75.1.14.07.33-.06.44-.06.04-.12.06-.19.06ZM196.65,215.04c-.11,0-.22-.06-.28-.16-.15-.28-.3-.56-.43-.85-.08-.16-.01-.34.14-.42.15-.08.34-.01.42.14.13.28.28.55.42.82.08.15.03.34-.13.42-.05.03-.1.04-.15.04ZM195.37,212.19c-.13,0-.25-.08-.29-.21-.11-.3-.21-.6-.31-.9-.05-.16.04-.34.2-.39.16-.05.34.04.39.2.09.29.19.59.3.88.06.16-.02.34-.19.4-.04.01-.07.02-.11.02ZM194.52,209.19c-.15,0-.28-.1-.31-.25-.06-.31-.12-.62-.17-.94-.03-.17.09-.33.26-.36.17-.03.33.09.36.26.05.3.1.61.16.91.03.17-.08.33-.25.37-.02,0-.04,0-.06,0ZM194.14,206.09c-.17,0-.3-.13-.31-.3-.02-.32-.02-.64-.03-.95,0-.17.14-.31.31-.31.16,0,.31.14.31.31,0,.31,0,.62.02.92,0,.17-.12.32-.3.33,0,0-.01,0-.02,0ZM194.21,202.96s-.02,0-.03,0c-.17-.02-.3-.17-.28-.34.03-.32.07-.63.11-.95.02-.17.18-.29.35-.27.17.02.29.18.27.35-.04.31-.08.61-.11.92-.02.16-.15.28-.31.28ZM194.74,199.88s-.05,0-.07,0c-.17-.04-.27-.21-.23-.38.08-.31.16-.61.25-.92.05-.17.22-.26.39-.21.17.05.26.22.21.39-.09.3-.17.59-.24.89-.04.14-.16.24-.3.24ZM195.7,196.91s-.08,0-.12-.02c-.16-.07-.24-.25-.17-.41.12-.3.25-.59.38-.87.07-.16.26-.23.41-.15.16.07.23.26.15.41-.13.28-.25.56-.37.85-.05.12-.17.19-.29.19Z"/><polygon class="cls-36" points="214.66 138.86 221.43 138.86 212.23 150.17 221.43 161.48 214.66 161.48 205.45 150.17 214.66 138.86"/><polygon class="cls-21" points="202.9 138.86 196.13 138.86 205.34 150.17 196.13 161.48 202.9 161.48 212.11 150.17 202.9 138.86"/><path class="cls-36" d="M151.78,161.48v-22.63h3.46l14.19,17.45h-1.71v-17.45h4.14v22.63h-3.46l-14.16-17.45h1.71v17.45h-4.17Z"/><path class="cls-36" d="M175.69,161.48v-22.63h16.52v3.56h-12.32v15.52h12.77v3.56h-16.97ZM179.57,151.72v-3.46h11.25v3.46h-11.25Z"/><path class="cls-36" d="M231.55,161.48v-19.07h-7.5v-3.56h19.2v3.56h-7.5v19.07h-4.2Z"/></svg>