<?xml version="1.0" encoding="UTF-8"?><svg id="Livello_1" xmlns="http://www.w3.org/2000/svg" viewBox="0 0 362.78 200"><defs><style>.cls-1{stroke-width:1.03px;}.cls-1,.cls-2,.cls-3{stroke:#fff;}.cls-1,.cls-2,.cls-3,.cls-4{fill:#012638;}.cls-1,.cls-2,.cls-3,.cls-5{stroke-miterlimit:10;}.cls-2{stroke-width:1.46px;}.cls-6{fill:#fff;}.cls-5{fill:none;stroke:#ae8f49;stroke-width:5px;}.cls-7{fill:#ae8f49;}.cls-8{fill:#c89b40;}</style></defs><path class="cls-4" d="M60.81,200l-3.11-1.68C21.57,178.74,0,145.16,0,108.48v-41.54h121.61v41.54c0,36.68-21.57,70.26-57.7,89.84l-3.11,1.68ZM13.04,79.98v28.5c0,30.77,17.79,59.18,47.77,76.63,29.98-17.45,47.77-45.86,47.77-76.63v-28.5H13.04Z"/><path class="cls-7" d="M60.81,195.76l-1.33-.72C24.57,176.13,3.72,143.77,3.72,108.49v-37.81h114.16v37.81c0,35.29-20.84,67.65-55.75,86.56l-1.33.72ZM9.31,76.26v32.23c0,32.76,19.22,62.91,51.49,80.91,32.28-18.01,51.49-48.16,51.49-80.91v-32.23H9.31Z"/><path class="cls-4" d="M6.52,73.46v35.02c0,34.07,20.47,65.79,54.29,84.1h0c33.82-18.32,54.29-50.03,54.29-84.1v-35.02H6.52Z"/><line class="cls-5" x1="31.42" y1="173.08" x2="62.01" y2="142.48"/><path class="cls-5" d="M90.2,173.08l-30.59-30.59,30.59,30.59Z"/><path class="cls-8" d="M22.43,60.76c.04.66,1.22,2.05,1.22,2.57v2.06h74.47v-2.24c0-.46,1.14-1.73,1.17-2.39H22.43Z"/><path class="cls-8" d="M98.88,17.04l-15.44,14.68,9.56,8.84c-9.91.81-15.8-10.38-8.64-17.53L60.93,0l-23.43,23.62.03-.65c7.22,7.28,1.03,18.58-8.95,17.59l9.51-9.16-15.11-14.77-15.37,15.07c7.66,7.71,12.61,17.61,14.26,27.47h77.91c1.68-9.8,6.32-20.12,14.22-27.3l-15.12-14.85h0ZM23,37.25l-5.59-5.59,5.59-5.59,5.59,5.59-5.59,5.59ZM61.05,32.01l-8.63-8.63,8.63-8.63,8.63,8.63s-8.63,8.63-8.63,8.63ZM98.78,37.25l-5.59-5.59,5.59-5.59,5.59,5.59-5.59,5.59h0Z"/><path class="cls-6" d="M55.69,110.18c5.77,1.05,9.84,3.79,9.84,9.02,0,3.41-2.14,6.6-5.28,8.36-2.8,1.54-6.38,2.31-10.45,2.31h-15.4v-2.04c4.24-.44,4.68-.71,4.68-5.34v-20.95c0-4.62-.71-5.11-4.62-5.39v-2.04h16.72c4.18,0,6.82.55,9.02,1.92,2.04,1.32,3.35,3.41,3.35,6.1,0,4.56-4.29,7.31-7.86,8.03h0ZM48.71,109.47c5.23,0,7.15-2.25,7.15-6.32,0-4.79-3.14-6.6-6.16-6.6-1.32,0-2.14.16-2.59.44-.6.39-.55.88-.55,2.04v10.45h2.14ZM46.56,122.39c0,3.96,1.81,5.17,4.79,5.11,3.03-.05,5.99-2.69,5.99-7.81s-2.69-7.86-8.85-7.86h-1.92v10.56h0Z"/><path class="cls-6" d="M69.66,129.87v-2.04c4.18-.39,4.67-.71,4.67-5.34v-20.95c0-4.62-.55-5.06-4.67-5.39v-2.04h16.99v2.04c-4.13.39-4.67.77-4.67,5.39v20.95c0,4.56.5,4.89,4.67,5.34v2.04h-16.99Z"/><path class="cls-2" d="M151.02,86.53c6.78,1.07,11.98,4.39,11.98,10.48,0,4.58-2.32,7.72-5.58,9.6-3.26,1.88-7.84,2.63-12.61,2.63h-15.25v-1c4.46-.82,5.02-1.32,5.02-6.71v-25.6c0-5.46-.63-5.58-5.02-6.46v-1h17.57c5.21,0,7.9.75,10.17,2.26,2.2,1.51,3.45,3.76,3.45,6.65,0,5.71-5.27,8.22-9.73,9.16h0ZM145,86.28c5.64,0,7.72-2.39,7.72-7.59,0-6.52-3.32-8.72-6.96-8.72-1.07,0-2.26.12-2.76.56-.56.44-.63,1.38-.63,3.07v12.68h2.63ZM142.36,101.9c0,4.33,1.69,5.77,5.21,5.77,3.89,0,6.78-3.45,6.78-10.16,0-6.27-2.45-9.73-9.47-9.73h-2.51v14.12h0Z"/><path class="cls-2" d="M205.66,109.68h-2.82c-7.53-.31-9.54-1.76-11.67-5.08-2.2-3.39-4.14-6.9-6.15-10.79-1.38-2.63-2.32-3.39-4.46-3.39h-.94v11.04c0,5.27.37,5.77,5.02,6.78v1h-17.69v-1c4.64-1,5.02-1.38,5.02-6.78v-25.29c0-5.27-.37-5.96-5.02-6.71v-1h16.88c5.14,0,8.28.56,10.85,2.39,2.39,1.63,3.76,4.2,3.76,7.41,0,6.34-4.83,9.16-7.97,10.48.94,1.69,4.27,7.47,6.02,10.29,2.39,3.83,3.2,5.08,4.58,6.71,1.44,1.69,2.32,2.26,4.77,3.07l-.19.88h0ZM180.88,88.98c3.01,0,5.21-.25,6.71-1.69,1.76-1.63,2.51-3.83,2.51-7.47,0-7.28-3.64-9.91-7.22-9.91-1.32,0-2.2.12-2.57.44-.44.31-.69.75-.69,2.01v16.63h1.26Z"/><path class="cls-2" d="M206.79,109.24v-1c4.71-.82,5.02-1.26,5.02-7.09v-24.66c0-5.83-.44-6.34-5.02-7.03v-1h17.88v1c-4.58.82-5.08,1.13-5.08,7.03v24.59c0,6.02.37,6.34,5.08,7.15v1h-17.88Z"/><path class="cls-2" d="M263.12,77.75c-.75-2.45-1.19-4.2-2.76-5.96-1.07-1.19-1.82-1.51-5.02-1.51h-5.14v31.24c0,5.39.63,5.9,5.52,6.71v1h-18.57v-1c4.58-1,5.27-1.19,5.27-6.71v-31.24h-5.71c-2.7,0-3.45.69-4.33,1.63-1.07,1.19-2.07,3.51-2.82,5.96h-1.07c.31-3.39.63-7.59.75-10.79h.88c1.07,1.38,2.07,1.38,3.83,1.38h25.16c1.63,0,2.57-.19,3.83-1.38h.81c0,2.82.06,7.34.38,10.54l-1,.12h0Z"/><path class="cls-2" d="M267.45,109.24v-1c4.71-.82,5.02-1.26,5.02-7.09v-24.66c0-5.83-.44-6.34-5.02-7.03v-1h17.88v1c-4.58.82-5.08,1.13-5.08,7.03v24.59c0,6.02.38,6.34,5.08,7.15v1h-17.88Z"/><path class="cls-2" d="M312.43,77.38c-1.32-5.21-4.33-8.34-9.16-8.34-3.76,0-5.9,2.57-5.9,6.59s2.2,5.83,7.59,9.03c5.39,3.2,10.23,6.59,10.23,13.17,0,7.22-6.08,12.36-14.43,12.36-3.07,0-6.02-.63-9.47-1.51-.38-1.19-1.32-8.59-1.38-9.6l1-.19c1.38,5.46,5.08,9.85,10.85,9.85,4.33,0,6.21-2.95,6.21-7.15,0-3.95-2.32-6.78-6.78-9.47-5.65-3.45-10.23-6.65-10.23-13.05s5.08-11.48,13.42-11.48c3.83,0,6.65.75,7.97.82.25,2.32.63,5.77,1.07,8.78l-1,.19h0Z"/><path class="cls-2" d="M362.05,69.47c-4.64.69-5.08,1.13-5.08,6.65v25.47c0,5.39.44,5.83,5.08,6.65v1h-17.88v-1c4.71-.69,5.02-1.19,5.02-6.65v-13.36h-17.32v13.36c0,5.52.5,5.9,5.08,6.65v1h-17.88v-1c4.58-.63,5.02-1.07,5.02-6.65v-25.47c0-5.52-.56-5.9-5.02-6.65v-1h17.88v1c-4.52.75-5.08,1.13-5.08,6.65v10.1h17.32v-10.1c0-5.46-.63-5.9-5.02-6.65v-1h17.88v1Z"/><path class="cls-3" d="M129.56,146.28v-.69c3.23-.56,3.45-.86,3.45-4.87v-16.94c0-4.01-.3-4.35-3.45-4.83v-.69h12.28v.69c-3.15.56-3.49.77-3.49,4.83v16.9c0,4.14.26,4.35,3.49,4.91v.69h-12.28Z"/><path class="cls-3" d="M173.66,118.95c-2.85.6-3.49,1.08-3.58,4.01-.04,1.33-.13,2.42-.13,6.9v17.03h-1.08l-19.35-23.27v11.03c0,4.01.04,5.26.13,6.68.17,2.93.43,3.71,4.44,4.27v.69h-9.96v-.69c3.23-.47,3.58-1.12,3.75-4.14.09-1.55.22-3.23.22-6.81v-11.29c0-.9-.26-1.72-.69-2.29-1.12-1.51-1.89-1.81-3.79-2.11v-.69h8.23l16.73,19.52v-7.93c0-4.48-.13-5.61-.17-6.81-.13-3.02-1.12-3.62-4.87-4.09v-.69h10.13v.69h0Z"/><path class="cls-3" d="M191.03,124.38c-.9-3.58-2.98-5.73-6.29-5.73-2.59,0-4.05,1.77-4.05,4.52s1.51,4.01,5.21,6.21,7.03,4.52,7.03,9.05c0,4.96-4.18,8.49-9.92,8.49-2.11,0-4.14-.43-6.51-1.03-.26-.82-.9-5.91-.95-6.6l.69-.13c.95,3.75,3.49,6.77,7.46,6.77,2.98,0,4.27-2.03,4.27-4.91,0-2.72-1.59-4.65-4.65-6.51-3.88-2.37-7.03-4.57-7.03-8.96s3.49-7.89,9.23-7.89c2.63,0,4.57.52,5.48.56.17,1.59.43,3.97.73,6.04l-.69.13h0Z"/><path class="cls-3" d="M218.48,124.64c-.52-1.68-.82-2.89-1.9-4.09-.73-.82-1.25-1.03-3.45-1.03h-3.53v21.47c0,3.71.43,4.05,3.79,4.61v.69h-12.76v-.69c3.15-.69,3.62-.82,3.62-4.61v-21.47h-3.92c-1.86,0-2.37.47-2.98,1.12-.73.82-1.42,2.42-1.94,4.09h-.73c.22-2.33.43-5.21.52-7.41h.6c.73.95,1.42.95,2.63.95h17.29c1.12,0,1.77-.13,2.63-.95h.56c0,1.94.04,5.04.26,7.24l-.69.09h0Z"/><path class="cls-3" d="M221.46,146.28v-.69c3.23-.56,3.45-.86,3.45-4.87v-16.94c0-4.01-.3-4.35-3.45-4.83v-.69h12.28v.69c-3.15.56-3.49.77-3.49,4.83v16.9c0,4.14.26,4.35,3.49,4.91v.69h-12.28Z"/><path class="cls-3" d="M260.16,124.64c-.52-1.68-.82-2.89-1.9-4.09-.73-.82-1.25-1.03-3.45-1.03h-3.53v21.47c0,3.71.43,4.05,3.79,4.61v.69h-12.76v-.69c3.15-.69,3.62-.82,3.62-4.61v-21.47h-3.92c-1.86,0-2.37.47-2.98,1.12-.73.82-1.42,2.42-1.94,4.09h-.73c.22-2.33.43-5.21.52-7.41h.6c.73.95,1.42.95,2.63.95h17.29c1.12,0,1.77-.13,2.63-.95h.56c0,1.94.04,5.04.26,7.24l-.69.09h0Z"/><path class="cls-3" d="M291.11,118.95c-3.41.39-3.41,1.59-3.53,3.36-.09,1.29-.17,2.89-.17,6.08v5.08c0,4.52-.39,7.93-2.76,10.52-1.85,1.98-4.44,2.93-7.89,2.93-2.8,0-5.52-.6-7.59-2.33-2.29-1.9-3.15-4.57-3.15-9.01v-11.21c0-4.44-.26-4.91-3.49-5.43v-.69h12.28v.69c-3.32.6-3.45.99-3.45,5.43v11.72c0,5.65,2.72,8.4,7.46,8.4,5.17,0,7.16-2.72,7.16-10.91v-5.22c0-3.19-.09-4.91-.22-6.25-.17-2.11-.69-2.89-4.48-3.19v-.69h9.83v.69h0Z"/><path class="cls-3" d="M316.88,124.64c-.52-1.68-.82-2.89-1.9-4.09-.73-.82-1.25-1.03-3.45-1.03h-3.53v21.47c0,3.71.43,4.05,3.79,4.61v.69h-12.76v-.69c3.15-.69,3.62-.82,3.62-4.61v-21.47h-3.92c-1.85,0-2.37.47-2.98,1.12-.73.82-1.42,2.42-1.94,4.09h-.73c.22-2.33.43-5.21.52-7.41h.6c.73.95,1.42.95,2.63.95h17.29c1.12,0,1.77-.13,2.63-.95h.56c0,1.94.04,5.04.26,7.24l-.69.09h0Z"/><path class="cls-3" d="M341.58,139.51c-.22,1.51-.99,5.73-1.25,6.77h-21.04v-.69c3.71-.52,4.01-.73,4.01-4.57v-17.5c0-3.88-.22-4.22-3.28-4.57v-.69h13.06c4.22,0,5.91-.04,6.25-.09.04,1.64.22,4.4.43,6.25l-.69.13c-.34-1.08-.9-2.67-1.86-3.79-.77-.95-1.72-1.21-4.27-1.21h-3.23c-.9,0-1.08.17-1.08,1.03v10.3h4.18c3.41,0,3.53-.95,4.14-3.62h.69v8.53h-.69c-.6-2.54-.73-3.62-4.14-3.62h-4.18v9.18c0,3.02.65,3.58,3.32,3.62h2.54c2.54,0,3.15-.34,4.22-1.51.77-.86,1.46-2.33,2.2-4.09l.65.13h0Z"/><path class="cls-3" d="M360.15,124.38c-.9-3.58-2.98-5.73-6.29-5.73-2.59,0-4.05,1.77-4.05,4.52s1.51,4.01,5.21,6.21,7.03,4.52,7.03,9.05c0,4.96-4.18,8.49-9.92,8.49-2.11,0-4.14-.43-6.51-1.03-.26-.82-.9-5.91-.95-6.6l.69-.13c.95,3.75,3.49,6.77,7.46,6.77,2.98,0,4.27-2.03,4.27-4.91,0-2.72-1.59-4.65-4.65-6.51-3.88-2.37-7.03-4.57-7.03-8.96s3.49-7.89,9.23-7.89c2.63,0,4.57.52,5.47.56.17,1.59.43,3.97.73,6.04l-.69.13h0Z"/><path class="cls-1" d="M131.5,156.09v14.96h-1.94v-14.96s1.94,0,1.94,0Z"/><path class="cls-1" d="M134.87,171.05v-14.96h2.12l4.79,7.56c1.09,1.76,1.96,3.33,2.67,4.87l.05-.02c-.18-2-.21-3.82-.21-6.14v-6.27h1.82v14.96h-1.96l-4.76-7.58c-1.03-1.67-2.04-3.38-2.78-5.01l-.06.02c.12,1.89.14,3.7.14,6.17v6.4h-1.82,0Z"/><path class="cls-1" d="M152.32,157.72h-4.56v-1.63h11.08v1.63h-4.58v13.33h-1.94v-13.33h0Z"/><path class="cls-1" d="M168.25,164.03h-5.8v5.4h6.49v1.61h-8.43v-14.96h8.09v1.61h-6.14v4.74h5.8v1.6h0Z"/><path class="cls-1" d="M171.42,156.29c.98-.2,2.39-.32,3.72-.32,2.05,0,3.4.39,4.34,1.23.74.65,1.18,1.67,1.18,2.85,0,1.97-1.25,3.27-2.82,3.81v.06c1.14.4,1.83,1.48,2.2,3.03.49,2.09.85,3.52,1.15,4.11h-2c-.24-.43-.57-1.71-.98-3.58-.44-2.05-1.25-2.84-3-2.9h-1.83v6.48h-1.93v-14.75h0ZM173.35,163.1h1.98c2.07,0,3.38-1.13,3.38-2.84,0-1.94-1.4-2.79-3.44-2.79-.94,0-1.58.09-1.91.17v5.46h0Z"/><path class="cls-1" d="M183.36,171.05v-14.96h2.12l4.79,7.56c1.09,1.76,1.96,3.33,2.67,4.87l.05-.02c-.18-2-.21-3.82-.21-6.14v-6.27h1.82v14.96h-1.96l-4.76-7.58c-1.03-1.67-2.04-3.38-2.78-5.01l-.06.02c.12,1.89.14,3.7.14,6.17v6.4h-1.82,0Z"/><path class="cls-1" d="M200.39,166.35l-1.55,4.7h-2l5.09-14.96h2.32l5.11,14.96h-2.07l-1.6-4.7h-5.31ZM205.31,164.83l-1.48-4.31c-.32-.98-.55-1.87-.77-2.73h-.05c-.22.87-.45,1.79-.74,2.7l-1.47,4.33h4.52,0Z"/><path class="cls-1" d="M212.7,157.72h-4.56v-1.63h11.08v1.63h-4.58v13.33h-1.94v-13.33h0Z"/><path class="cls-1" d="M222.82,156.09v14.96h-1.94v-14.96h1.94Z"/><path class="cls-1" d="M238.97,163.42c0,5.13-3.13,7.87-6.94,7.87s-6.73-3.07-6.73-7.59,2.93-7.86,6.93-7.86,6.74,3.13,6.74,7.57h0ZM227.35,163.65c0,3.2,1.74,6.07,4.79,6.07s4.79-2.82,4.79-6.22c0-2.98-1.55-6.09-4.77-6.09s-4.81,2.97-4.81,6.24Z"/><path class="cls-1" d="M241.47,171.05v-14.96h2.12l4.79,7.56c1.09,1.76,1.96,3.33,2.67,4.87l.05-.02c-.18-2-.21-3.82-.21-6.14v-6.27h1.82v14.96h-1.96l-4.75-7.58c-1.03-1.67-2.04-3.38-2.78-5.01l-.06.02c.12,1.89.14,3.7.14,6.17v6.4h-1.82Z"/><path class="cls-1" d="M258.5,166.35l-1.55,4.7h-2l5.09-14.96h2.32l5.11,14.96h-2.07l-1.6-4.7h-5.31ZM263.42,164.83l-1.48-4.31c-.32-.98-.55-1.87-.77-2.73h-.05c-.22.87-.45,1.79-.74,2.7l-1.47,4.33h4.52,0Z"/><path class="cls-1" d="M269.66,156.09h1.94v13.33h6.4v1.63h-8.34v-14.96Z"/><path class="cls-1" d="M284.59,168.69c.87.54,2.13.97,3.45.97,1.98,0,3.14-1.03,3.14-2.55,0-1.39-.81-2.2-2.83-2.96-2.44-.87-3.96-2.15-3.96-4.25,0-2.33,1.94-4.06,4.85-4.06,1.52,0,2.65.35,3.3.72l-.54,1.58c-.48-.28-1.48-.71-2.82-.71-2.05,0-2.83,1.22-2.83,2.24,0,1.39.91,2.08,2.98,2.87,2.54.99,3.81,2.21,3.81,4.41s-1.69,4.31-5.24,4.31c-1.45,0-3.02-.43-3.82-.98l.51-1.61Z"/><path class="cls-1" d="M306.24,170.57c-.7.35-2.13.71-3.95.71-4.21,0-7.38-2.67-7.38-7.58s3.16-7.85,7.81-7.85c1.85,0,3.04.39,3.55.66l-.48,1.57c-.73-.34-1.77-.62-3.01-.62-3.51,0-5.83,2.24-5.83,6.17,0,3.66,2.11,6,5.73,6,1.19,0,2.39-.24,3.17-.61l.39,1.54h0Z"/><path class="cls-1" d="M310.6,156.09v6.26h7.23v-6.26h1.94v14.96h-1.94v-7.02h-7.23v7.02h-1.94v-14.96h1.94Z"/><path class="cls-1" d="M335.92,163.42c0,5.13-3.13,7.87-6.94,7.87s-6.73-3.07-6.73-7.59,2.93-7.86,6.93-7.86,6.74,3.13,6.74,7.57h0ZM324.3,163.65c0,3.2,1.74,6.07,4.79,6.07s4.79-2.82,4.79-6.22c0-2.98-1.55-6.09-4.77-6.09s-4.81,2.97-4.81,6.24Z"/><path class="cls-1" d="M351.22,163.42c0,5.13-3.13,7.87-6.94,7.87s-6.73-3.07-6.73-7.59,2.93-7.86,6.93-7.86,6.74,3.13,6.74,7.57h0ZM339.59,163.65c0,3.2,1.74,6.07,4.79,6.07s4.79-2.82,4.79-6.22c0-2.98-1.55-6.09-4.77-6.09s-4.81,2.97-4.81,6.24Z"/><path class="cls-1" d="M353.71,156.09h1.94v13.33h6.4v1.63h-8.34v-14.96Z"/></svg>